<svg width="90" height="218" viewBox="0 0 90 218" fill="none" xmlns="http://www.w3.org/2000/svg">
<path d="M27.2312 23.551C26.8005 25.0988 23.1511 24.4267 21.9062 23.7877C21.4518 24.067 22.9523 26.3106 21.5512 26.1544C20.8886 25.5627 21.0826 25.397 20.1312 24.971C19.8094 24.8243 19.6437 24.6397 19.1846 24.7344C19.8046 21.6388 25.106 22.931 27.2312 23.551Z" fill="#6D564B"/>
<path d="M31.0181 27.3374C31.0844 27.7965 30.8477 28.09 30.7814 28.5207C26.2895 29.6899 31.0986 27.5835 28.8881 24.2607C29.92 25.0607 30.8051 25.8843 31.0181 27.3374Z" fill="#341F16"/>
<path d="M24.9828 22.1309C29.4131 22.2823 28.2535 22.7888 24.7461 22.6042L24.9828 22.1309Z" fill="#4E3B34"/>
<path d="M28.8869 24.2608C31.0974 27.5836 26.2883 29.6899 30.7802 28.5208C30.7424 28.7574 30.6382 29.2639 30.5436 29.4674C30.3258 29.9266 30.0844 29.9124 30.0702 29.9408C30.6193 28.303 29.6774 29.226 29.5969 29.2308C27.3533 29.3775 26.1084 29.2071 25.9286 29.2308C25.3937 29.2923 19.3871 33.1736 19.1836 24.7341C19.6427 24.6394 19.8084 24.824 20.1303 24.9708C19.6711 26.3718 20.3811 27.8392 21.4319 28.7574C27.0977 29.936 24.7263 28.9894 21.5503 26.1541C22.9513 26.3103 21.4509 24.0667 21.9053 23.7874C23.1501 24.4264 26.7995 25.0986 27.2302 23.5508C27.3722 23.5934 28.7638 24.1661 28.8869 24.2608Z" fill="#4F3325"/>
<path d="M22.6156 24.4971C23.619 24.6675 28.9393 26.3241 28.6506 26.9821C25.3325 28.5441 21.5269 24.8379 22.6156 24.4971Z" fill="#FBFCFD"/>
<path d="M21.5505 26.154C24.7266 28.9893 27.098 29.936 21.4322 28.7574C20.3814 27.8391 19.6714 26.3718 20.1305 24.9707C21.0819 25.3967 20.8879 25.5624 21.5505 26.154Z" fill="#FBFCFD"/>
<path d="M10.4283 152.062C7.49369 155.489 5.03236 151.579 9.95501 151.115C9.96921 151.167 10.1396 151.153 10.4283 152.062Z" fill="#888F90"/>
<path d="M10.4276 113.958C10.7779 115.35 10.7495 116.964 11.3743 118.218C13.7788 132.087 16.5667 145.918 21.7876 159.043C17.0827 163.261 21.9154 161.15 22.4976 161.883C22.6774 162.11 24.4335 167.042 24.3909 167.326C24.2347 168.401 22.5402 167.833 22.2609 168.865C22.9378 170.337 24.8548 169.163 25.4559 169.338C26.3268 169.589 30.265 180.239 33.3842 185.55C34.4634 187.386 35.4243 189.625 37.4075 190.401C37.6631 191.31 37.8572 191.746 37.8809 191.821C38.5909 194.226 40.2523 197.246 42.4959 198.448C43.1254 198.784 44.3087 198.334 44.0342 199.395C43.2911 201.051 42.7799 208.97 39.5375 207.205C37.2655 204.336 33.1996 197.643 31.0176 194.188C30.9844 194.141 30.8188 193.18 30.7809 193.123C30.3928 192.498 29.4177 191.675 29.3609 191.585C28.4947 190.169 27.6001 188.754 26.7576 187.325C25.4796 185.157 24.4193 182.89 23.2076 180.698C24.017 179.737 22.1 177.489 21.5509 176.438C20.2445 173.953 20.4244 174.767 20.3676 174.663C20.2824 174.497 20.2209 173.177 20.1309 173.006C19.9889 172.732 18.9429 173.253 19.4209 171.823C17.2862 169.475 16.5951 166.157 15.3976 163.303C15.3645 163.223 14.2758 162.153 14.2143 162.002C14.1527 161.85 13.8451 160.473 13.2676 158.925C13.0972 158.466 12.9599 157.964 12.7943 157.505C12.7043 157.259 12.7659 156.847 13.0309 156.677C11.2749 153.486 10.4655 149.685 9.48095 146.145C10.2052 145.681 9.89749 147.229 10.901 145.435C9.00289 136.849 6.44216 122.204 6.4043 113.84C6.4043 113.655 6.87763 113.845 6.87763 113.485C7.97103 113.352 9.43835 113.916 10.4276 113.958Z" fill="#1C4663"/>
<path d="M77.6417 152.772C77.05 154.533 76.2548 156.474 76.2217 158.215C76.1886 158.296 76.1223 158.93 75.7484 159.872C72.6622 164.16 69.7607 171.956 67.7017 177.149C67.3278 177.206 67.3183 177.901 67.2284 178.095C67.1479 178.271 65.9646 179.728 65.3351 181.054C64.1186 183.61 62.9873 186.317 62.0217 188.982C60.7532 191.24 59.603 193.659 58.2351 195.845C57.8611 196.442 57.5677 197.199 57.5251 197.265C56.9192 198.212 56.2565 199.163 55.6318 200.105C55.272 200.645 54.8271 201.218 54.4484 201.762C54.013 202.387 53.4876 203.026 53.0284 203.655C52.7302 204.067 52.1906 204.611 51.8451 205.075C51.296 204.957 50.0654 204.744 49.7151 204.602C49.4358 204.488 48.3945 203.935 47.8218 203.655C47.5046 203.499 46.1272 202.278 45.4551 202.709C45.3652 202.363 45.6965 201.899 44.9818 201.999C45.0717 201.099 44.9344 200.489 44.7451 199.632C45.1143 199.67 44.9344 199.201 44.9818 199.159C46.203 198.113 49.7482 201.237 52.5551 188.864C52.7397 188.348 53.4686 188.897 53.9751 189.219C54.0792 189.285 55.2342 190.572 55.7501 190.875C57.8753 187.321 59.6787 183.482 61.5484 179.752C64.3979 178.502 66.6888 173.234 69.3584 171.824C70.4281 166.669 70.0589 161.817 73.145 157.387C73.3486 157.094 77.121 152.711 77.6417 152.772Z" fill="#1C4663"/>
<path d="M45.4546 202.708C45.9706 204.653 47.1539 207.64 48.7679 208.861C47.0261 211.086 46.2262 211.403 46.1646 211.583C45.5872 213.263 47.5562 219.26 44.2713 217.263C44.5837 209.084 43.7885 211.649 42.733 210.755C42.3212 210.404 42.0372 209.936 41.668 209.571C44.0678 207.086 43.0217 206.774 43.088 206.613C43.6844 205.184 44.4038 204.857 44.508 204.483C44.6358 204.019 44.3991 202.978 44.508 202.353C44.5411 202.154 44.9434 202.372 44.9813 201.998C45.696 201.899 45.3647 202.363 45.4546 202.708Z" fill="#4E3B34"/>
<path d="M44.7447 198.922C44.7731 199.149 44.6974 199.419 44.7447 199.632C44.9341 200.489 45.0713 201.099 44.9814 201.998C44.9435 202.372 44.5412 202.155 44.5081 202.353C44.3992 202.978 44.6359 204.02 44.5081 204.483C44.4039 204.857 43.6845 205.184 43.0881 206.613C43.0218 206.774 44.0679 207.087 41.6681 209.572C40.7119 208.625 40.3806 208.27 39.5381 207.205C42.7804 208.971 43.2916 201.052 44.0347 199.395C44.1057 199.239 44.4513 198.799 44.7447 198.922Z" fill="#594A37"/>
<path d="M49.7144 204.601L49.9511 207.441C49.3783 208.184 49.047 208.336 49.0044 208.388C48.0341 207.834 46.4816 204.525 47.8211 203.654C48.3938 203.934 49.4351 204.487 49.7144 204.601Z" fill="#11110E"/>
<path d="M47.8217 203.655C46.4822 204.526 48.0347 207.835 49.0051 208.389C48.9909 208.408 49.0666 208.479 48.7684 208.862C47.1543 207.641 45.971 204.654 45.4551 202.709C46.1272 202.278 47.5046 203.499 47.8217 203.655Z" fill="#11110E"/>
<path d="M51.8448 205.075C51.2342 205.898 50.5716 206.637 49.9515 207.442L49.7148 204.602C50.0651 204.744 51.2958 204.957 51.8448 205.075Z" fill="#75402F"/>
<path d="M31.018 194.189L30.0714 193.953C30.0051 193.83 29.0584 194.128 29.3614 191.586C29.4182 191.676 30.3932 192.499 30.7814 193.124C30.8192 193.181 30.9849 194.142 31.018 194.189Z" fill="#623334"/>
<path d="M33.8585 27.3394C33.0917 28.5842 32.5048 30.1652 32.2019 31.5994C31.9037 31.8502 28.491 37.1989 27.9419 38.1077C19.2562 52.4591 10.4807 75.3542 7.58862 91.9492C7.42769 91.8309 7.11055 90.7185 7.11529 90.6475C7.19575 89.2133 9.53401 79.458 10.1919 75.3826C12.587 71.3687 12.7811 65.5373 15.6353 61.5376C15.9808 55.4316 18.6835 54.0637 19.8952 51.8343C23.8476 44.5592 27.6106 37.1184 31.0185 29.5877L30.5452 29.4694C30.6399 29.2658 30.744 28.7594 30.7819 28.5227C30.8481 28.092 31.0848 27.7985 31.0185 27.3394H31.4919C31.4919 27.3915 31.738 27.2542 31.8469 28.286C33.2006 25.607 34.8762 25.1384 35.0419 24.9727C37.0961 24.9017 35.0182 25.4555 33.8585 27.3394Z" fill="#1C4663"/>
<path d="M40.9579 17.6358C40.9768 17.7825 40.9816 17.9623 40.9579 18.1091C40.8869 18.5587 35.7939 24.2151 35.0413 24.9724C34.8756 25.1381 33.2 25.6067 31.8463 28.2857C31.7374 27.2539 31.4865 27.3911 31.4913 27.3391C31.5717 26.1037 37.0766 19.4202 38.1179 17.8724C39.0977 16.6607 40.6171 14.9946 40.9579 17.6358Z" fill="#142F44"/>
<path d="M30.0711 29.9422C27.5009 35.0447 20.9973 44.8947 17.2911 52.4254L15.1611 49.9404C19.672 50.428 18.0579 49.434 19.6578 46.6271C22.6966 41.2832 25.636 35.873 28.8878 30.6522C29.1528 30.2262 29.4889 29.7339 29.5978 29.2322C29.6782 29.2274 30.6202 28.3044 30.0711 29.9422Z" fill="#8C887E"/>
<path d="M53.2649 20.0027C55.1204 22.3883 56.5451 24.3574 58.2349 26.866C58.3201 26.9891 58.8881 28.0683 59.6549 29.2327C60.4075 30.3734 61.0559 31.6183 61.7849 32.7827C62.2913 33.5921 62.9493 34.3447 63.4415 35.1493C64.0379 36.1244 64.7574 37.0284 65.3349 37.9893C66.5987 40.0862 67.7583 41.6387 68.6482 43.906C66.9773 43.8018 68.3027 46.0928 68.8849 46.7459C69.7321 47.7021 69.9073 46.9305 69.9499 46.9826C70.3569 47.4417 73.107 53.1312 73.1448 53.4909C73.1685 53.7513 71.2278 54.7311 73.3815 55.0293C72.5342 55.7298 73.5424 56.5865 73.8548 57.3959C74.9719 60.2974 74.9861 59.6348 75.0382 59.7626C77.0451 64.8698 81.8163 81.214 82.8481 86.6242C83.6291 90.7279 84.3533 95.253 84.7415 99.4041C84.8929 101.032 84.6847 103.191 84.7415 104.256C84.0788 103.579 83.3215 102.992 82.6115 102.362C79.3881 99.5035 79.4591 100.124 79.2982 99.9958C78.8816 99.6645 78.3846 99.4515 78.3515 99.4041C78.2616 99.2716 78.1906 98.3486 78.1148 98.1025C77.1398 94.9453 76.4771 89.2417 75.9848 85.7958C77.916 85.9142 77.0262 85.4408 76.6948 84.3758C76.5907 84.0398 76.4629 84.1534 76.4582 84.1392C75.431 80.7927 75.3742 76.7789 73.8548 77.7492C72.7567 72.8265 71.829 67.8944 69.5949 63.3126C71.5308 65.0544 68.9227 57.6799 68.4115 56.5676C67.7583 55.1523 67.214 55.5689 66.9915 55.1476C66.2389 53.7323 65.9123 51.0201 64.1515 50.5326C64.1231 50.4663 64.1799 50.3622 64.1515 50.2959C66.3809 50.6935 61.7896 43.4137 60.3649 43.196C58.6704 40.0199 50.477 24.381 48.2949 26.156C45.4549 26.0235 46.0135 29.1191 45.9283 31.126C45.6679 30.7947 44.9059 30.8515 43.7983 28.5227C43.7462 28.4091 43.9166 27.7653 43.0883 26.156C42.738 25.4744 42.7806 25.6732 42.3783 25.2093C42.3546 25.1809 42.3972 24.7218 42.1416 24.4994C42.8611 23.9172 43.1829 23.0415 43.7983 22.3694C46.8891 22.5966 49.3836 20.5518 52.1999 21.4227L51.8449 20.0027C52.3324 19.9364 52.8058 19.6808 53.2649 20.0027Z" fill="#1C4663"/>
<path d="M45.6923 2.96295C42.5872 5.29647 44.4853 5.09294 44.509 5.44794C44.6604 7.843 44.5326 10.9291 43.799 12.7846C45.3799 12.7467 44.6557 15.137 40.959 13.3762C41.953 11.8285 43.2783 10.6025 43.3256 10.4179C43.7895 8.69973 42.8002 3.06235 43.5623 0.832954C44.8166 -1.23077 45.5219 0.946553 45.6923 2.96295Z" fill="#6D564B"/>
<path d="M45.6934 2.96289C45.8117 4.38762 45.4283 5.31535 45.4567 6.27621C45.6034 11.4071 44.9266 9.5422 48.2967 13.6129C47.0708 13.3383 47.1323 17.0445 46.1667 18.8195C45.9537 18.403 45.0875 16.0269 44.865 15.9795C44.3538 16.7321 42.9244 17.3285 42.8534 17.5178C42.683 17.977 43.7764 21.295 44.2734 21.4228C44.2355 21.4465 43.89 22.0429 43.8 22.1328C43.5634 22.166 43.2226 22.0808 43.09 22.1328L40.96 18.1095C40.9837 17.9628 40.979 17.7829 40.96 17.6362C43.4876 16.5428 41.1446 15.5109 39.54 15.5062C40.0086 14.7962 40.5009 14.0862 40.96 13.3762C44.6568 15.137 45.381 12.7467 43.8 12.7845C44.5337 10.9291 44.6615 7.84294 44.51 5.44788C44.4864 5.09288 42.5883 5.29642 45.6934 2.96289Z" fill="#4E3B34"/>
<path d="M40.9601 17.6359C40.6193 14.9947 39.0999 16.6608 38.1201 17.8725C38.6266 17.1152 39.0147 16.3011 39.5401 15.5059C41.1447 15.5106 43.4877 16.5425 40.9601 17.6359Z" fill="#241C1A"/>
<path d="M49.7171 15.5066C50.5975 16.0178 51.8708 17.9727 52.5571 18.8199C53.3665 19.8234 53.2245 19.9465 53.2671 20.0033C52.808 19.6814 52.3346 19.937 51.8471 20.0033C50.659 20.1689 44.8418 21.0919 44.2738 21.4233C43.7768 21.2955 42.6834 17.9774 42.8538 17.5183C42.9248 17.3289 44.3542 16.7325 44.8654 15.9799C45.0879 16.0273 45.9541 18.4034 46.1671 18.8199C46.896 20.2305 46.3233 20.6375 48.4154 20.2399C49.1633 19.7145 46.2712 13.5139 49.7171 15.5066Z" fill="#11161D"/>
<path d="M48.297 13.6131C48.7041 14.1054 49.6412 14.7443 49.717 15.5064C46.2711 13.5137 49.1632 19.7143 48.4153 20.2397C46.3232 20.6373 46.8959 20.2303 46.167 18.8197C47.1326 17.0447 47.0711 13.3386 48.297 13.6131Z" fill="#241C1A"/>
<path d="M58.708 27.1026C58.4761 27.0506 58.4382 26.866 58.2347 26.866C56.5449 24.3573 55.1201 22.3883 53.2647 20.0027C53.2221 19.9459 53.3641 19.8228 52.5547 18.8193C55.0113 20.7884 57.1271 24.3715 58.708 27.1026Z" fill="#C3A0A1"/>
<path d="M58.7077 27.1029C60.1466 27.4342 60.4827 27.9643 59.6544 29.2329C58.8876 28.0685 58.3196 26.9893 58.2344 26.8662C58.4379 26.8662 58.4758 27.0508 58.7077 27.1029Z" fill="#7E4742"/>
<path d="M7.11484 96.9185C7.18111 99.6733 6.39538 99.626 9.00817 99.9952C6.39064 100.289 7.37517 100.904 6.87817 107.805C6.73144 109.84 6.88764 111.507 6.87817 113.485C6.87817 113.845 6.40484 113.656 6.40484 113.84C6.44271 122.204 9.00343 136.849 10.9015 145.435C10.6412 145.511 10.253 145.284 10.1915 145.08C8.57744 139.85 7.39884 134.298 6.64151 128.868C6.64151 128.84 6.49004 129.053 6.40484 128.395C6.39538 128.319 6.80717 128.286 6.64151 126.857C6.30544 123.941 5.60491 121.049 5.45818 118.1C5.08898 110.688 5.63331 103.219 6.40484 95.8535L7.11484 96.9185Z" fill="#1C4663"/>
<path d="M53.0275 187.798C53.3162 187.964 53.7422 188.546 54.0925 188.508C54.7741 188.437 54.4995 187.452 55.1575 187.561C54.7457 188.352 54.9871 188.816 53.9741 189.218C53.4677 188.896 52.7387 188.347 52.5541 188.863C49.7473 201.236 46.202 198.112 44.9808 199.158L44.7442 198.921C44.4507 198.798 44.1052 199.238 44.0342 199.395C44.3087 198.334 43.1254 198.784 42.4958 198.448C40.2523 197.246 38.5909 194.226 37.8809 191.821C38.9979 192.451 38.3968 193.502 39.7742 192.531C39.8263 192.739 39.7316 193.023 39.7742 193.241C40.1481 195.073 41.0475 196.1 42.6142 197.028C49.1178 200.876 50.4147 190.931 51.8442 187.088C52.4737 187.793 52.9659 187.765 53.0275 187.798Z" fill="#4C3035"/>
<path d="M14.215 162.002C14.2008 162.121 13.8126 162.433 13.7416 162.476C12.3216 163.366 2.67987 168.198 1.79001 167.919C1.09421 167.181 -0.15065 165.415 0.0150164 164.369C2.31068 165.543 9.66625 160.005 13.2683 158.926C13.8458 160.474 14.1534 161.851 14.215 162.002Z" fill="#241C1A"/>
<path d="M12.7946 157.505C12.9603 157.965 13.0975 158.466 13.2679 158.925C9.66589 160.005 2.31031 165.543 0.0146484 164.369C0.724646 162.977 11.6444 157.709 12.3213 157.505C12.4396 157.472 12.6384 157.524 12.7946 157.505Z" fill="#4E3B34"/>
<path d="M10.9008 145.436C9.89729 147.23 10.205 145.682 9.48076 146.146C8.29743 141.891 7.00523 137.716 6.16743 133.366C6.89163 131.747 5.36277 130.469 6.64076 128.869C7.3981 134.298 8.57669 139.85 10.1908 145.081C10.2523 145.284 10.6404 145.511 10.9008 145.436Z" fill="#142F44"/>
<path d="M6.16801 133.366C7.0058 137.716 8.298 141.89 9.48133 146.146C10.4659 149.686 11.2753 153.487 13.0313 156.677C12.7663 156.848 12.7047 157.259 12.7947 157.506C12.6385 157.525 12.4397 157.472 12.3213 157.506C11.5924 155.721 11.0102 153.899 10.428 152.062C10.1393 151.153 9.96886 151.168 9.95466 151.116C7.95247 144.541 6.53247 137.768 5.45801 130.999C6.04021 131.079 5.95027 132.23 6.16801 133.366Z" fill="#61565B"/>
<path d="M21.5512 176.439L21.0779 177.149C19.7336 174.602 18.271 172.065 17.0545 169.457C16.0463 167.303 15.1091 163.938 13.7412 162.475C13.8122 162.433 14.2003 162.12 14.2145 162.002C14.2761 162.153 15.3647 163.223 15.3979 163.304C16.5954 166.158 17.2865 169.476 19.4212 171.824C18.9431 173.253 19.9892 172.732 20.1312 173.007C20.2211 173.177 20.2827 174.498 20.3679 174.664C20.4247 174.768 20.2448 173.954 21.5512 176.439Z" fill="#61565B"/>
<path d="M23.2081 180.699C22.5644 179.53 21.8402 178.593 21.0781 177.149L21.5515 176.439C22.1005 177.49 24.0175 179.739 23.2081 180.699Z" fill="#4E3B34"/>
<path d="M82.6112 102.362C83.3212 102.992 84.0785 103.579 84.7412 104.256C84.9447 107.948 85.347 111.55 85.2145 115.261C85.0394 120.122 84.2537 125.007 83.5579 129.816C83.1177 129.82 83.4159 130.464 83.3212 130.999C81.8965 132.982 82.2515 131.259 82.0195 131.236C77.3477 130.743 78.9949 136.811 76.6945 143.187C75.7715 145.753 72.6097 150.358 72.4346 150.76C71.6678 152.512 69.3295 161.396 67.7012 165.907C67.5782 166.243 67.5829 167.725 67.4646 168.037C67.2279 168.648 62.4851 177.887 61.5479 179.752C59.6783 183.482 57.8749 187.321 55.7496 190.875C55.2337 190.572 54.0787 189.285 53.9746 189.219C54.9875 188.816 54.7461 188.353 55.1579 187.562C57.0323 183.96 58.8263 180.216 60.6013 176.557C61.1077 175.516 63.5785 169.041 64.0329 168.865C64.0613 168.856 64.2696 169.244 64.6246 169.102C64.6861 169.078 65.557 169.168 65.8079 168.51C65.9641 168.108 65.5854 167.881 65.5712 167.682C65.5476 167.313 65.0979 167.512 65.0979 167.327C65.1168 165.571 74.7397 138.885 75.3929 133.839C78.4837 134.956 78.621 133.342 75.7479 131.827C77.4424 125.712 78.5169 119.492 79.5345 113.249C80.3203 113.211 81.1155 113.216 81.9012 113.131C82.6869 109.32 81.3237 103.517 82.6112 102.362Z" fill="#11161D"/>
<path d="M83.3211 130.999C82.0147 138.426 80.0315 145.658 77.6411 152.772C77.1205 152.711 73.348 157.094 73.1445 157.387C70.0584 161.818 70.4276 166.669 69.3578 171.824C66.6882 173.234 64.3973 178.503 61.5479 179.752C62.485 177.887 67.2278 168.648 67.4645 168.037C67.5828 167.725 67.5781 166.243 67.7012 165.907C69.3294 161.396 71.6677 152.512 72.4345 150.761C72.6096 150.358 75.7715 145.753 76.6945 143.187C78.9949 136.812 77.3477 130.743 82.0195 131.236C82.2514 131.259 81.8964 132.982 83.3211 130.999Z" fill="#142F44"/>
<path d="M84.505 130.289C83.4447 137.654 81.239 144.825 79.2983 151.944C81.7029 154.504 83.5252 151.333 84.2683 152.89C82.5643 153.615 81.1727 153.529 80.1267 154.902C79.0853 155.101 80.4154 154.197 78.9433 153.009C78.4889 153.009 77.2062 156.672 76.9317 157.269C76.8749 157.387 76.2595 158.125 76.2217 158.215C76.2548 156.473 77.05 154.533 77.6417 152.772C80.032 145.658 82.0153 138.425 83.3217 130.999C83.4163 130.464 83.1181 129.82 83.5583 129.815L84.505 130.289Z" fill="#39323A"/>
<path d="M75.7478 159.871C74.5976 162.754 75.3265 162.569 75.2745 162.711C73.9018 166.275 69.2726 171.927 72.9078 172.296C69.7838 171.785 69.7744 175.202 68.4112 177.148C68.3023 177.096 67.952 177.176 67.7012 177.148C69.7602 171.955 72.6617 164.159 75.7478 159.871Z" fill="#39323A"/>
<path d="M67.7015 178.332C65.9785 181.385 64.8993 185.002 63.2048 188.036C63.1669 188.102 62.0594 188.916 62.0215 188.982C62.9871 186.317 64.1183 183.61 65.3348 181.054C65.9643 179.729 67.1477 178.271 67.2281 178.096C67.2139 178.384 67.4553 178.361 67.7015 178.332Z" fill="#41404D"/>
<path d="M68.4115 177.149C69.8741 177.83 68.7381 178.214 67.7015 178.332C67.4553 178.361 67.2139 178.384 67.2281 178.096C67.3181 177.901 67.3275 177.206 67.7015 177.149C67.9523 177.177 68.3026 177.097 68.4115 177.149Z" fill="#11110E"/>
<path d="M57.5244 197.266C57.567 197.199 57.8605 196.442 58.2344 195.846C59.5881 197.091 59.2757 197.119 57.5244 197.266Z" fill="#2F0A0C"/>
<path d="M44.9812 199.159C44.9338 199.201 45.1137 199.67 44.7445 199.632C44.6972 199.419 44.7729 199.149 44.7445 198.922L44.9812 199.159Z" fill="#DDCABB"/>
<path d="M43.0884 22.1327C42.2979 22.4451 41.1714 23.4722 40.485 23.7894C38.1752 24.8591 35.7375 25.0863 34.0951 27.3393H33.8584C35.0181 25.4555 37.096 24.9017 35.0417 24.9727C35.7943 24.2154 40.8874 18.559 40.9584 18.1094L43.0884 22.1327Z" fill="#1C4663"/>
<path d="M51.8447 20.0029L52.1997 21.4229C49.3834 20.552 46.8889 22.5968 43.798 22.3696C43.8359 22.327 43.7602 22.1708 43.798 22.1329C43.888 22.043 44.2335 21.4466 44.2714 21.4229C44.8394 21.0916 50.6566 20.1686 51.8447 20.0029Z" fill="#1C4663"/>
<path d="M43.7977 22.1325C43.7598 22.1704 43.8356 22.3266 43.7977 22.3692C43.1824 23.0413 42.8605 23.917 42.141 24.4992C41.3032 23.7655 40.8725 24.2483 40.4844 23.7892C41.1707 23.4721 42.2972 22.4449 43.0877 22.1325C43.2202 22.0805 43.561 22.1657 43.7977 22.1325Z" fill="#A38A52"/>
<path d="M10.1914 75.3819C9.53347 79.4573 7.19521 89.2127 7.11474 90.6469C7.11474 90.7179 7.42714 91.8302 7.58808 91.9485C7.27568 93.6052 7.07214 95.2287 7.11474 96.9185L6.40475 95.8535C5.63321 103.219 5.08888 110.688 5.45808 118.1C5.60481 121.049 6.30535 123.941 6.64141 126.857C6.80708 128.286 6.39528 128.319 6.40475 128.395C4.71022 126.904 4.86642 124.282 4.74808 122.123L4.27475 122.242C4.20849 121.522 4.09489 120.841 4.03809 120.112L4.51142 119.993C3.48429 108.392 4.29369 99.0106 6.40475 87.6885C6.94434 84.8012 7.60228 82.018 8.29807 79.1686C8.71934 77.4409 8.81874 75.3109 9.95473 73.9619C9.94527 74.0329 10.3902 74.156 10.1914 75.3819Z" fill="#142F44"/>
<path d="M10.192 75.3819C10.3908 74.156 9.94584 74.033 9.9553 73.962C10.0074 73.5691 9.67604 73.4602 9.71864 72.897C9.79437 71.9124 13.0178 63.7048 13.032 63.1936C13.0414 62.7961 12.9184 62.8008 12.5586 62.8386C13.1598 61.4139 14.0212 60.0744 13.742 59.762C14.5277 60.0081 14.6318 59.0473 15.162 57.8687C15.2472 57.6793 15.7016 57.2344 16.3453 55.857C16.5204 55.4831 15.9714 55.0855 16.1086 54.792C16.4778 54.011 16.9085 53.2063 17.2919 52.4253C20.9981 44.8946 27.5017 35.0446 30.0719 29.9421C30.0861 29.9137 30.3275 29.9279 30.5452 29.4688L31.0186 29.5871C27.6106 37.1178 23.8476 44.5586 19.8953 51.8337C18.6835 54.0631 15.9808 55.431 15.6353 61.537C12.7811 65.5366 12.587 71.3681 10.192 75.3819Z" fill="#142F44"/>
<path d="M15.1608 57.8688C14.6307 59.0474 14.5266 60.0083 13.7408 59.7622C12.3682 58.7587 3.59733 54.5366 3.2092 54.0822C2.3572 53.0834 3.09086 52.1273 3.5642 51.2422C6.72132 52.5533 9.77431 54.1579 12.9125 55.5022C14.1432 56.0276 15.8235 54.8442 15.1608 57.8688Z" fill="#241C1A"/>
<path d="M16.1077 54.7916C15.9705 55.0851 16.5195 55.4827 16.3444 55.8566C15.7007 57.234 15.2463 57.6789 15.1611 57.8682C15.8238 54.8437 14.1434 56.027 12.9128 55.5016C9.77457 54.1573 6.72158 52.5527 3.56445 51.2416C3.76799 50.8582 4.05672 49.4098 5.81278 49.5849C6.38551 49.6417 14.5505 54.252 16.1077 54.7916Z" fill="#4E3B34"/>
<path d="M6.40591 87.6885C4.29485 99.0106 3.48545 108.392 4.51258 119.993L4.03925 120.112C3.03105 106.811 3.47598 99.962 5.69591 86.9785L6.40591 87.6885Z" fill="#4E3B34"/>
<path d="M9.95545 73.962C8.81946 75.311 8.72006 77.441 8.29879 79.1687L7.58879 78.932C7.99113 76.8919 7.42313 76.1062 7.58879 75.027C7.70713 74.2507 9.27386 72.6083 9.95545 70.767C10.9116 68.1779 11.4748 65.3947 12.5588 62.8387C12.9185 62.8008 13.0416 62.7961 13.0321 63.1937C13.0179 63.7049 9.79452 71.9125 9.71879 72.897C9.67619 73.4603 10.0075 73.5691 9.95545 73.962Z" fill="#5F3121"/>
<path d="M6.40441 128.396C6.48961 129.054 6.63634 128.841 6.64107 128.869C5.36308 130.469 6.89194 131.747 6.16774 133.366C5.95001 132.23 6.03994 131.079 5.45774 130.999C4.96548 127.913 4.56315 125.39 4.27441 122.242L4.74775 122.124C4.86608 124.282 4.70988 126.905 6.40441 128.396Z" fill="#493F3E"/>
<path d="M8.29766 79.1693C7.60186 82.0187 6.94393 84.8019 6.40433 87.6893L5.69434 86.9793C6.1582 84.2718 7.05753 81.6164 7.58766 78.9326L8.29766 79.1693Z" fill="#644743"/>
<path d="M12.7951 96.6822C11.7585 97.6289 12.9466 99.1435 11.6118 99.9955C11.0106 99.9766 10.3101 99.9435 9.71843 99.9955C9.4865 100.014 9.24036 99.9671 9.00843 99.9955C6.39564 99.6263 7.18137 99.6737 7.1151 96.9189C7.0725 95.2291 7.27604 93.6056 7.58843 91.9489C10.4805 75.3539 19.2561 52.4588 27.9417 38.1074C28.4908 37.1986 31.9035 31.8499 32.2017 31.5991C32.391 31.4429 35.4772 30.0324 36.4617 29.2324C36.3575 29.6774 36.4285 30.7045 35.515 32.9007C32.5898 39.9203 31.6526 36.73 29.7167 37.5157C28.557 38.9878 32.2112 38.4577 32.2017 39.5274C30.6776 42.2633 29.5368 45.1032 27.9417 47.8107C27.35 48.8094 28.6659 48.9041 25.8117 49.4674C25.9821 51.621 27.8281 50.7927 25.93 52.899C20.7471 49.3206 25.3289 53.9877 25.3384 54.9107C25.3384 55.1568 23.3741 59.218 23.0901 59.289C22.399 59.4594 22.0156 58.2145 21.3151 59.1707C25.291 65.7689 14.6269 65.9204 19.8951 69.1106C18.8348 71.004 15.8623 85.2844 15.0434 85.5589C8.7197 83.8313 13.9784 86.9458 14.2151 87.8072C14.4233 88.5646 13.0649 92.8009 12.7951 96.6822Z" fill="#1C4663"/>
<path d="M84.5047 130.289L83.5581 129.815C84.2539 125.006 85.0396 120.121 85.2147 115.26C85.3473 111.549 84.9449 107.947 84.7414 104.255C84.6846 103.19 84.8929 101.032 84.7414 99.4036C84.3533 95.2525 83.6291 90.7274 82.8481 86.6236C81.8162 81.2135 77.045 64.8693 75.0381 59.7621C75.3647 59.8473 75.4878 59.6153 75.7481 59.5254C83.7805 80.6171 88.8546 105.022 84.7414 127.567C84.7509 128.66 86.6631 130.407 84.5047 130.289Z" fill="#39323A"/>
<path d="M86.3978 54.5549C86.2511 54.6827 83.5152 55.8471 82.8478 56.2116C82.4549 56.4246 82.0431 56.7275 81.6645 56.9216C79.7901 57.8777 77.7358 58.8244 75.7478 59.5249C75.4875 59.6149 75.3644 59.8468 75.0378 59.7616C74.9858 59.6338 74.9716 60.2965 73.8545 57.3949C73.8545 57.234 73.7977 56.9642 73.9728 56.9216C77.8731 55.9371 81.4988 53.6083 85.0961 51.715C85.3612 51.5777 85.5174 52.2309 85.9245 51.5966L84.7411 49.585C85.2571 49.6891 88.1255 53.0545 86.3978 54.5549Z" fill="#11110E"/>
<path d="M84.7411 49.585L85.9244 51.5966C85.5174 52.2309 85.3612 51.5777 85.0961 51.715C81.4988 53.6083 77.8731 55.9371 73.9728 56.9216C73.7977 56.9642 73.8545 57.234 73.8545 57.3949C73.5421 56.5855 72.5339 55.7288 73.3812 55.0283C74.5976 55.0567 77.4518 52.9646 78.5878 52.425C79.383 52.0463 80.1782 51.6061 80.9545 51.2416C81.4846 50.9908 84.3104 49.5944 84.5045 49.585C84.5849 49.585 84.6607 49.585 84.7411 49.585Z" fill="#382E2B"/>
<path d="M45.928 31.1258C45.9564 31.1589 46.1552 30.9601 46.638 31.5991C47.0546 32.1529 47.4143 32.9434 47.8214 33.4924C45.4358 34.4438 42.7046 34.6521 40.248 33.9658C40.5178 33.4688 40.6835 32.3943 40.958 31.9541C41.4219 31.2063 42.7709 30.9649 43.798 28.5225C44.9056 30.8513 45.6677 30.7945 45.928 31.1258Z" fill="#142F44"/>
<path d="M69.5947 63.3122C67.6588 59.0948 66.1441 54.7259 64.1514 50.5322C65.9122 51.0198 66.2388 53.732 66.9914 55.1472C67.2138 55.5685 67.7582 55.1519 68.4114 56.5672C68.9226 57.6795 71.5306 65.054 69.5947 63.3122Z" fill="#1C4663"/>
<path d="M64.1509 50.2953C63.7722 49.5048 63.119 48.7144 62.7309 47.9286C61.9405 46.3335 61.2068 44.7715 60.3643 43.1953C61.789 43.413 66.3803 50.6929 64.1509 50.2953Z" fill="#1C4663"/>
<path d="M76.4578 84.1389H76.2212C76.1454 84.1531 76.0602 84.12 75.9845 84.1389C75.1136 84.3519 75.2461 83.5757 75.0378 82.9556C74.484 81.2942 74.2379 79.4624 73.8545 77.7489C75.3739 76.7786 75.4307 80.7925 76.4578 84.1389Z" fill="#1C4663"/>
<path d="M76.6946 84.3755C77.0259 85.4405 77.9158 85.9138 75.9846 85.7955C75.6485 85.7766 75.5065 85.166 75.0379 85.3222C73.7836 84.6027 75.2698 84.3092 75.9846 84.1388C76.0603 84.1199 76.1455 84.153 76.2212 84.1388L76.6946 84.3755Z" fill="#934429"/>
<path d="M68.8847 46.7458C68.3025 46.0926 66.9772 43.8016 68.6481 43.9058C69.1735 45.2406 70.1533 46.8073 68.8847 46.7458Z" fill="#644743"/>
<path d="M76.695 84.3754L76.2217 84.1387H76.4583C76.4583 84.1387 76.5909 84.0393 76.695 84.3754Z" fill="#6D564B"/>
<path d="M79.535 158.926C74.2289 161.335 86.2658 164.857 88.2916 167.21C88.2348 167.281 88.3958 167.669 87.2266 168.629C86.3273 168.824 77.1352 163.357 75.275 162.713C75.3271 162.571 74.5981 162.755 75.7483 159.873C76.1223 158.931 76.1885 158.297 76.2217 158.216C76.2595 158.126 76.8749 157.388 76.9317 157.27C78.2286 157.762 79.3883 158.841 79.535 158.926Z" fill="#11110E"/>
<path d="M79.5345 158.926C80.8125 159.655 88.774 163.711 89.1195 164.132C89.9147 165.103 89.1526 165.647 88.7645 166.499C88.632 166.793 88.4852 166.958 88.2912 167.209C86.2653 164.857 74.2285 161.335 79.5345 158.926Z" fill="#382E2B"/>
<path d="M16.5829 94.3162C16.19 96.4699 16.2042 98.7466 15.3995 100.825C16.9521 101.975 15.977 100.768 17.0562 99.7595C16.1947 101.8 18.3673 102.443 20.1329 104.73L18.2395 103.428C17.8514 106.983 19.7826 112.402 18.2395 115.734C18.1401 115.943 15.6125 119.308 15.3995 119.403C15.3285 119.436 15.1013 119.384 14.9262 119.403C13.4636 111.829 13.2506 114.087 10.4296 113.959C9.44029 113.917 7.97296 113.354 6.87957 113.486C6.88903 111.508 6.73283 109.842 6.87957 107.806L7.23457 113.249L15.1629 112.894C14.6801 110.641 16.3557 100.498 13.8612 99.7595C13.3216 99.5986 12.6968 100.029 11.8496 99.9962C11.7691 99.9962 11.6934 99.9962 11.6129 99.9962C12.9477 99.1442 11.7596 97.6295 12.7962 96.6829C12.4507 101.658 12.7583 97.9088 14.5712 99.9962C15.9344 97.2414 14.9073 94.0701 16.5829 94.3162Z" fill="#11161D"/>
<path d="M20.1328 104.729C21.4061 106.381 22.135 107.745 22.7361 108.516C22.4332 108.502 22.4474 108.881 22.4995 109.108C23.2095 112.137 28.5108 116.974 15.8728 121.533C15.7024 120.823 15.338 120.16 15.3995 119.403C15.6125 119.308 18.1401 115.943 18.2395 115.734C19.7826 112.402 17.8514 106.982 18.2395 103.428L20.1328 104.729Z" fill="#142F44"/>
<path d="M6.87695 107.805C7.37395 100.904 6.38942 100.289 9.00695 99.9955C9.23888 99.9671 9.48501 100.014 9.71694 99.9955C8.88861 102.665 11.4304 103.806 11.8469 99.9955C12.6942 100.029 13.319 99.5979 13.8586 99.7588C16.3531 100.497 14.6775 110.641 15.1603 112.894L7.23195 113.249L6.87695 107.805Z" fill="#CB2929"/>
<path d="M11.6109 99.9957C11.6914 99.9957 11.7671 99.9957 11.8476 99.9957C11.431 103.806 8.88924 102.665 9.71757 99.9957C10.3092 99.9437 11.0098 99.9768 11.6109 99.9957Z" fill="#FA7F52"/>
<path d="M64.6246 71.1221C65.4861 73.839 66.2008 76.4423 66.9913 79.1687C65.4198 79.0125 59.8109 79.3817 59.2997 79.1687C58.708 78.9178 57.5247 71.5717 57.7613 71.2404L64.6246 71.1221Z" fill="#DDB207"/>
<path d="M61.7845 61.4183C61.9549 61.7923 63.105 66.3789 63.6778 68.045C60.2935 68.542 58.4191 67.0368 56.1045 64.7317C55.9341 63.6099 55.8536 62.5591 55.8678 61.4183C55.8678 61.2243 55.4323 60.1687 55.9861 59.9983C59.8864 60.235 60.7479 59.1085 61.7845 61.4183Z" fill="#DDB207"/>
<path d="M56.5783 48.8757C56.8008 49.3253 59.5934 53.4386 60.6016 55.8573C60.0573 59.147 62.9162 59.431 60.1283 59.7623C58.4432 59.0144 58.3296 58.3044 55.5133 57.3956C53.2224 56.6572 50.4345 56.3874 48.0583 55.9756C48.2098 55.6916 48.437 55.3177 48.5317 55.029C49.289 52.7759 48.6169 54.3143 47.8217 52.4257C46.7377 49.8507 46.1555 48.0426 46.4017 45.089C50.0842 44.4926 49.9327 49.2401 56.5783 48.8757Z" fill="#142F44"/>
<path d="M42.6155 53.6096L45.2189 58.4612L45.4555 58.1062H45.6922C45.7017 58.1583 45.9478 58.0683 46.0472 59.0529C46.4164 57.9595 47.3536 57.2732 48.0589 55.9762C50.435 56.388 53.2229 56.6578 55.5138 57.3962C58.3302 58.305 58.4438 59.015 60.1288 59.7629C59.1017 59.8859 56.1339 59.5925 55.7505 59.7629C55.1399 60.0327 55.5233 60.9178 55.3955 61.1829C54.676 62.6597 53.5826 61.3154 52.2005 61.1829C48.9629 60.8752 42.1848 61.5 41.4322 57.0412C40.727 52.8806 42.412 53.7042 42.6155 53.6096Z" fill="#1C4663"/>
<path d="M52.5547 40.8291C54.022 43.4514 55.2432 46.1872 56.578 48.8757C49.9324 49.2402 50.0839 44.4927 46.4014 45.0891C46.5954 42.7982 46.7658 44.559 47.2297 44.3791C48.3846 43.9342 48.4888 41.8657 48.5314 40.8291H52.5547Z" fill="#1C4663"/>
<path d="M47.8218 33.4922C50.1979 36.7061 51.4522 37.8516 51.6084 38.1072C51.8072 38.429 51.812 39.352 51.8451 39.4088L48.7684 40.1188C48.688 39.3757 47.8928 38.4527 47.5851 37.7522C47.817 37.8184 48.0158 37.7758 48.2951 37.9888C48.6075 39.9342 50.6381 39.3994 48.5318 37.5155C47.9022 36.9522 47.5188 36.6588 46.6384 36.5688C44.1913 36.3132 43.4008 37.2362 42.1418 39.1722L38.5918 37.7522C39.0273 36.389 39.5716 35.2198 40.2485 33.9655C42.7051 34.6519 45.4362 34.4436 47.8218 33.4922Z" fill="#1C4663"/>
<path d="M51.8446 39.4092C52.1191 39.8825 52.3037 40.3842 52.5546 40.8292H48.5312C48.5691 39.8825 48.7726 40.157 48.7679 40.1192L51.8446 39.4092Z" fill="#747E79"/>
<path d="M40.4848 23.7891C40.8729 24.2482 41.3036 23.7654 42.1414 24.4991C42.397 24.7215 42.3544 25.1807 42.3781 25.2091C37.4365 25.0907 37.7631 26.364 35.2781 28.759C33.0818 30.8748 34.3362 29.3744 34.0948 27.3391C35.7372 25.086 38.1749 24.8588 40.4848 23.7891Z" fill="#6D564B"/>
<path d="M21.0783 147.329C21.8735 150.296 21.3528 152.171 22.2616 150.76C22.2001 152.105 22.6308 153.392 22.9716 154.665C23.9798 158.452 25.2105 162.149 26.285 165.907C27.8186 166.626 27.1606 167.336 27.2316 167.445L25.22 168.629L22.2616 168.865C22.5409 167.833 24.2354 168.401 24.3916 167.327C24.4342 167.043 22.6782 162.111 22.4983 161.884C21.9161 161.15 17.0834 163.261 21.7883 159.044C16.5675 145.918 13.7795 132.087 11.375 118.219C11.8057 119.085 13.2589 120.036 13.7417 120.94C14.9913 123.279 15.5687 129.039 16.345 132.064C16.4065 132.296 16.9935 132.064 17.055 132.3C17.2064 132.883 16.6716 133.37 16.8183 133.957C17.6419 137.195 18.4655 140.461 19.4216 143.66C19.5873 144.219 20.1174 144.323 20.1316 144.37C20.1837 144.541 19.7293 147.542 21.0783 147.329Z" fill="#75402F"/>
<path d="M37.4083 190.402C35.4251 189.626 34.4642 187.387 33.385 185.55C30.2658 180.239 26.3276 169.59 25.4567 169.339C24.8556 169.164 22.9386 170.337 22.2617 168.865L25.22 168.629L27.2317 167.445C27.4352 167.753 28.2872 166.347 31.0184 173.48C32.9259 175.894 33.9057 179.293 35.0417 182.237C35.5055 183.444 36.1966 183.572 36.225 183.657C36.3859 184.107 35.6002 183.913 35.7517 184.367C36.8119 187.552 37.5977 188.173 37.645 188.39C37.7255 188.75 37.29 189.99 37.4083 190.402Z" fill="#5F3121"/>
<path d="M32.2017 171.942C34.4026 176.017 36.49 180.14 38.1183 184.485C37.8816 186.445 39.5951 189.881 40.0116 191.467C40.1347 191.945 39.6803 192.148 39.775 192.532C38.3976 193.502 38.9987 192.451 37.8816 191.822C37.858 191.746 37.6639 191.31 37.4083 190.402C37.29 189.985 37.7254 188.75 37.645 188.39C37.5976 188.172 36.8119 187.552 35.7516 184.367C35.6002 183.912 36.3859 184.106 36.225 183.657C36.1966 183.571 35.5055 183.444 35.0416 182.237C33.9056 179.292 32.9258 175.894 31.0183 173.48C28.2872 166.347 27.4352 167.753 27.2317 167.445C27.1607 167.336 27.8186 166.626 26.285 165.907C25.2105 162.148 23.9799 158.452 22.9717 154.665C25.3715 155.867 26.6589 162.868 28.77 166.735C29.4563 165.874 30.7817 169.315 32.2017 171.942Z" fill="#4F3325"/>
<path d="M14.9254 119.402C15.252 122.909 16.9512 126.616 17.0554 129.697L21.0787 146.382C21.1213 146.675 21.0077 147.073 21.0787 147.329C19.7297 147.542 20.1841 144.541 20.132 144.37C20.1178 144.323 19.5877 144.219 19.422 143.66C18.4659 140.461 17.6423 137.195 16.8187 133.957C16.672 133.37 17.2068 132.883 17.0554 132.3C16.9938 132.064 16.4069 132.3 16.3454 132.064C15.5691 129.039 14.9916 123.279 13.742 120.94C13.2592 120.036 11.8061 119.085 11.3754 118.219C10.7506 116.964 10.779 115.35 10.4287 113.959C13.2498 114.087 13.4628 111.829 14.9254 119.402Z" fill="#5F3121"/>
<path d="M25.3386 155.375C25.6226 155.351 25.5469 155.55 25.5753 155.612C26.38 157.358 28.9312 165.026 29.362 165.552C30.3039 166.702 35.6289 163.715 30.3086 167.327L32.2019 171.942C30.782 169.315 29.4566 165.874 28.7703 166.735C26.6592 162.868 25.3718 155.867 22.972 154.665C22.6312 153.392 22.2004 152.104 22.262 150.76C21.3532 152.171 21.8738 150.296 21.0786 147.328C21.0077 147.073 21.1212 146.675 21.0786 146.382C23.2465 149.785 23.398 152.27 24.9836 155.612L25.3386 155.375Z" fill="#331E1F"/>
<path d="M15.3991 119.403C15.3376 120.16 15.702 120.823 15.8724 121.533C16.0618 122.314 16.1517 123.123 16.3458 123.899C17.7563 129.565 18.1681 128.495 18.2391 128.751C19.8011 134.237 20.7714 140.035 22.2624 145.554C22.4944 146.42 23.1807 147.457 23.2091 147.566C23.9096 150.136 24.0611 152.952 25.3391 155.376L24.9841 155.613C23.3984 152.271 23.247 149.786 21.0791 146.383L17.0558 129.698C16.9516 126.616 15.2524 122.91 14.9258 119.403C15.1009 119.384 15.3281 119.436 15.3991 119.403Z" fill="#241C1A"/>
<path d="M42.6154 26.6299C43.2497 27.5813 41.6215 30.639 40.6038 30.4165C39.7423 29.8485 40.0926 29.1385 40.0121 28.9965C39.1696 27.5292 37.9579 29.1338 36.9355 29.7065C36.7414 29.3137 36.9591 27.1127 36.4621 29.2332C35.4776 30.0331 32.3915 31.4437 32.2021 31.5999C32.5051 30.1657 33.092 28.5847 33.8588 27.3399H34.0955C34.3369 29.3752 33.0825 30.8757 35.2788 28.7599C35.8705 29.219 37.7685 27.1695 38.0005 27.1032C38.2277 27.0369 39.3684 27.3777 42.6154 26.6299Z" fill="#241C1A"/>
<path d="M43.7991 28.5226C42.7719 30.965 41.4229 31.2064 40.9591 31.9542C40.6846 32.3944 40.5189 33.4689 40.2491 33.9659C39.5722 35.2202 39.0279 36.3893 38.5924 37.7525C38.4268 38.2685 37.5748 39.3808 38.2374 39.6459L41.9057 39.8825C41.4987 40.5925 41.4514 40.3275 41.4324 40.3559C36.9878 39.6837 37.6836 40.0861 36.6991 41.7759C36.0885 42.8219 28.7471 57.7035 28.4158 58.5791C27.7626 58.6643 27.1851 59.5542 26.5225 58.8158C26.655 58.3614 26.8301 57.8407 26.9958 57.3958C27.7815 55.2705 32.0699 46.4855 33.6224 43.1959C34.3135 41.7285 39.0468 33.0287 39.0658 32.4276C39.08 32.0205 37.9298 30.7472 37.4091 29.9426C38.351 29.829 38.2942 28.6693 40.0124 28.9959C40.0929 29.1379 39.7426 29.8479 40.6041 30.4159C41.6217 30.6384 43.25 27.5806 42.6157 26.6292C42.6489 26.6198 42.824 26.0849 43.0891 26.1559C43.9174 27.7652 43.747 28.409 43.7991 28.5226Z" fill="#11110E"/>
<path d="M42.3793 25.2097C42.7816 25.6736 42.739 25.4748 43.0893 26.1564C42.8242 26.0854 42.6491 26.6202 42.6159 26.6297C39.3689 27.3776 38.2282 27.0368 38.001 27.103C37.769 27.1693 35.871 29.2188 35.2793 28.7597C37.7643 26.3646 37.4377 25.0914 42.3793 25.2097Z" fill="#4A4036"/>
<path d="M36.9356 29.7066C37.1391 30.1184 37.3758 29.8912 37.4089 29.9433C37.9296 30.748 39.0798 32.0212 39.0656 32.4283C39.0467 33.0294 34.3133 41.7293 33.6223 43.1966L33.504 42.4866C31.5444 46.5857 29.173 50.235 27.7056 54.4382C25.9543 54.8122 26.0111 58.3669 26.9956 57.3966C26.83 57.8415 26.6548 58.3622 26.5223 58.8166C26.4087 59.2094 25.4384 58.755 27.2323 60.1182C23.3273 67.9471 18.1443 85.7681 16.5823 94.3164C14.9067 94.0703 15.9339 97.2416 14.5707 99.9964C12.7578 97.909 12.4501 101.658 12.7957 96.6831C13.0655 92.8018 14.4239 88.5655 14.2157 87.8081C13.979 86.9467 8.72029 83.8321 15.044 85.5598C15.8629 85.2853 18.8354 71.0048 19.8957 69.1115C14.6275 65.9213 25.2916 65.7698 21.3157 59.1716C22.0162 58.2154 22.3996 59.4603 23.0906 59.2899C23.3746 59.2189 25.3437 55.1577 25.339 54.9116C25.3295 53.9886 20.7477 49.3215 25.9306 52.8999C27.8287 50.7936 25.9827 51.6219 25.8123 49.4682C28.6665 48.905 27.3506 48.8103 27.9423 47.8116C29.5374 45.1041 30.6782 42.2641 32.2023 39.5283C32.2118 38.4585 28.5576 38.9887 29.7173 37.5166C31.6532 36.7309 32.5904 39.9211 35.5156 32.9016C36.4291 30.7054 36.3581 29.6782 36.4623 29.2333C36.9593 27.1128 36.7415 29.3138 36.9356 29.7066Z" fill="#75402F"/>
<path d="M28.4151 58.5791C27.8187 60.1411 28.1973 59.7056 28.1784 59.7624C27.2412 62.3184 26.6732 65.201 25.8117 67.8091C25.4946 68.7652 25.1727 69.6787 24.8651 70.6491C24.0036 73.3471 23.0475 75.9599 22.2618 78.6957C21.1684 82.4824 20.1034 86.217 19.1851 90.0557C18.4798 92.9998 17.4148 96.351 17.5284 99.2856C17.4953 99.2951 17.1356 99.6832 17.0551 99.759C15.9759 100.767 16.951 101.974 15.3984 100.824C16.2031 98.746 16.1889 96.4693 16.5818 94.3157C18.1438 85.7673 23.3267 67.9463 27.2317 60.1174C25.4378 58.7542 26.4081 59.2086 26.5217 58.8158C27.1844 59.5542 27.7619 58.6643 28.4151 58.5791Z" fill="#241C1A"/>
<path d="M40.0122 28.9965C38.294 28.6699 38.3508 29.8296 37.4089 29.9432C37.3757 29.8911 37.1391 30.1183 36.9355 29.7065C37.9579 29.1338 39.1697 27.5292 40.0122 28.9965Z" fill="#11110E"/>
<path d="M33.622 43.1963C32.0694 46.486 27.7811 55.271 26.9953 57.3963C26.0108 58.3666 25.954 54.8119 27.7053 54.438C29.1727 50.2348 31.5441 46.5854 33.5036 42.4863L33.622 43.1963Z" fill="#4F3325"/>
<path d="M41.4316 40.356C41.2328 40.6542 41.1334 40.9287 41.1949 41.3026C39.8506 40.9287 38.1324 42.2162 36.6982 41.776C37.6828 40.0862 36.987 39.6839 41.4316 40.356Z" fill="#575A4D"/>
<path d="M42.1411 39.1719C41.8761 39.579 41.9234 39.8488 41.9045 39.8819L38.2362 39.6453C37.5735 39.3802 38.4255 38.2679 38.5911 37.752L42.1411 39.1719Z" fill="#807564"/>
<path d="M25.5747 155.612C25.5463 155.55 25.622 155.351 25.338 155.375C24.06 152.951 23.9085 150.135 23.208 147.565C34.0284 145.373 30.7719 146.24 33.148 155.493L25.5747 155.612Z" fill="#DDB207"/>
<path d="M17.5279 99.2856C17.4143 96.351 18.4793 92.9998 19.1846 90.0557H26.8762C27.378 92.2614 23.9321 99.049 23.3262 99.2856C22.6588 99.546 18.5645 99.0158 17.5279 99.2856Z" fill="#DDB207"/>
<path d="M25.8105 67.809C26.672 65.2009 27.24 62.3183 28.1772 59.7623C29.9427 58.8251 34.3069 59.3836 36.9338 59.4073C36.2002 60.619 35.0311 67.7995 34.2122 68.0456C33.8099 68.1687 27.2116 67.5155 25.8105 67.809Z" fill="#DDB207"/>
<path d="M22.2607 78.6961C23.0465 75.9602 24.0026 73.3474 24.8641 70.6494L32.2007 70.7677C32.1581 71.8564 30.3642 78.7623 29.9524 78.9327C29.5974 79.0795 23.3731 78.9895 22.2607 78.6961Z" fill="#DDB207"/>
<path d="M24.8644 110.172C25.4135 113.334 27.3825 115.648 29.1244 118.218C26.9092 118.701 25.6501 121.077 23.5627 122.005C21.5795 122.885 18.4934 123.037 16.3444 123.898C16.1504 123.122 16.0604 122.313 15.8711 121.532C28.5091 116.973 23.2077 112.136 22.4977 109.107C22.4457 108.88 22.4315 108.501 22.7344 108.515C23.3071 109.258 24.0645 110.427 24.8644 110.172Z" fill="#1C4663"/>
<path d="M48.5311 55.0286C48.4364 55.3173 48.2092 55.6913 48.0578 55.9753C47.3525 57.2722 46.4153 57.9585 46.0461 59.0519C45.9467 58.0674 45.7006 58.1573 45.6911 58.1053C45.5349 57.187 45.7148 55.9043 45.4544 54.3186C45.4497 54.276 45.8142 54.1482 45.6911 53.4903C45.5018 52.4868 43.7504 50.1296 44.2711 49.3486C45.8284 50.9296 46.8366 54.0062 48.5311 55.0286Z" fill="#11161D"/>
<path d="M45.4548 48.8754C45.7104 49.8647 47.0641 51.5971 47.8215 52.4254C48.6167 54.314 49.2888 52.7757 48.5315 55.0287C46.8369 54.0063 45.8287 50.9297 44.2715 49.3487C44.6596 48.7665 44.8158 48.8281 45.4548 48.8754Z" fill="#75402F"/>
<path d="M43.3249 53.3724C43.377 53.4103 44.2527 53.7321 44.5083 53.8457L45.4549 58.1057L45.2183 58.4607L42.6149 53.6091C42.6765 53.5807 41.9144 52.7003 43.3249 53.3724Z" fill="#15232A"/>
<path d="M45.4545 54.319C45.7148 55.9047 45.5349 57.1874 45.6911 58.1057H45.4545L44.5078 53.8457C44.8155 53.9782 45.2841 54.035 45.4545 54.319Z" fill="#A38A52"/>
<path d="M41.195 41.3024C41.905 41.5012 43.6895 44.4122 44.39 45.0891C44.6125 45.3068 45.1 44.7578 45.2183 44.9708C45.313 45.1412 45.0953 47.4936 45.455 48.8758C44.816 48.8284 44.6598 48.7669 44.2717 49.3491C43.751 50.1301 45.5023 52.4873 45.6917 53.4907C45.8147 54.1487 45.4503 54.2765 45.455 54.3191C45.2846 54.0351 44.816 53.9783 44.5083 53.8457C44.2527 53.7321 43.3771 53.4103 43.325 53.3724C41.6589 52.1559 42.6197 51.9477 42.615 51.7157C42.5819 49.6284 41.7157 50.9395 41.195 51.7157C39.7371 53.8931 38.4497 59.3317 40.13 61.4191C42.4493 64.3064 55.0116 64.5714 55.6316 65.0874C56.2091 65.5702 55.0778 69.1722 57.5249 68.874C58.1308 71.6383 57.2125 70.5496 57.0516 71.4774C56.9806 71.8844 58.3627 79.2258 58.8266 79.4057C64.8474 79.169 62.4097 79.9311 62.4949 80.234C62.6275 80.7121 63.1813 81.2611 63.2049 81.4173C63.257 81.7439 62.7269 82.3119 62.7316 82.364C62.8405 83.2539 63.4274 83.7035 63.4416 83.784C63.5552 84.4845 61.7045 84.9484 64.8616 85.914L64.5066 86.979C61.5435 86.8843 61.0276 87.4476 60.8383 87.4523L61.3116 86.5056L60.7199 85.559C57.3593 85.8714 60.4501 88.0108 60.3649 88.2806C60.1519 88.967 59.494 87.5564 59.6549 90.6473L57.6433 93.8423C56.8812 93.1607 56.0529 92.8625 55.1583 92.4223C49.5446 89.677 46.0419 88.7776 39.5383 89.819C36.2534 90.3444 29.1724 94.3109 27.2317 96.8006C25.007 99.6548 24.2402 106.58 24.865 110.172C24.0651 110.428 23.3078 109.259 22.7351 108.516C22.1339 107.744 21.405 106.381 20.1317 104.729C18.3662 102.443 16.1936 101.799 17.0551 99.7589C17.1355 99.6832 17.4953 99.2951 17.5284 99.2856C18.565 99.0158 22.6593 99.5459 23.3267 99.2856C23.9326 99.0489 27.3784 92.2614 26.8767 90.0556H19.1851C20.1033 86.2169 21.1683 82.4823 22.2617 78.6957C23.3741 78.9891 29.5984 79.0791 29.9534 78.9323C30.3652 78.7619 32.1591 71.856 32.2017 70.7674L24.865 70.649C25.1727 69.6787 25.4946 68.7652 25.8117 67.809C27.2128 67.5156 33.811 68.1688 34.2134 68.0457C35.0322 67.7996 36.2013 60.6191 36.935 59.4074C34.308 59.3837 29.9439 58.8252 28.1784 59.7624C28.1973 59.7056 27.8186 60.1411 28.415 58.5791C28.7464 57.7034 36.0877 42.8218 36.6983 41.7758C38.1325 42.216 39.8507 40.9285 41.195 41.3024Z" fill="#39617B"/>
<path d="M26.5215 85.3211C27.4256 85.0371 26.8671 87.56 26.6399 87.6878C24.543 87.257 21.1729 87.9481 21.3149 86.7411L26.5215 85.3211Z" fill="#1C4663"/>
<path d="M26.5216 85.3217L21.3149 86.7417C20.3824 86.008 26.0151 84.9762 26.5216 85.3217Z" fill="#AFAA9A"/>
<path d="M42.6143 51.7152H41.1943C41.715 50.9389 42.5812 49.6278 42.6143 51.7152Z" fill="#955F24"/>
<path d="M45.2186 69.7015C45.1334 70.8612 45.0671 73.1379 45.6919 73.9615C44.9725 74.1934 45.4647 74.4112 45.4553 74.4348C44.6601 76.3755 45.0577 77.7292 44.9819 79.8781C44.8068 79.8781 44.7831 80.0911 44.2719 80.1148V74.5532C40.6557 74.1224 44.0542 74.0325 44.2719 73.6065C44.6885 72.7971 43.9264 70.6955 44.5086 69.4648L45.2186 69.7015Z" fill="#6D564B"/>
<path d="M45.4556 79.8779C48.5796 79.9773 49.7724 79.9016 48.5322 80.8246C45.2804 80.8199 44.6888 79.9253 44.9822 83.1913C43.5386 82.1263 46.2886 80.0862 41.6689 80.5879C40.1211 79.9063 43.5433 80.1477 44.2722 80.1146C44.7834 80.0909 44.8071 79.8827 44.9822 79.8779C45.1053 79.8779 45.3325 79.8779 45.4556 79.8779Z" fill="#9A8971"/>
<path d="M48.5324 80.8245C48.0212 81.2079 45.238 83.1344 44.9824 83.1912C44.689 79.9252 45.2806 80.8198 48.5324 80.8245Z" fill="#142F44"/>
<path d="M44.9823 83.1912L44.2723 83.3095C44.8545 80.1997 40.4619 83.177 41.6689 80.5878C46.2887 80.0861 43.5386 82.1262 44.9823 83.1912Z" fill="#1C4663"/>
<path d="M46.6388 74.4346C46.7335 75.0357 44.7076 75.509 45.4555 79.8779C45.3324 79.8779 45.1052 79.8779 44.9822 79.8779C45.0579 77.729 44.6603 76.3752 45.4555 74.4346H46.6388Z" fill="#2D3E4A"/>
<path d="M46.6387 74.4352H45.4554C45.4649 74.4115 44.9726 74.1938 45.6921 73.9618C45.8151 74.1228 46.4967 73.5453 46.6387 74.4352Z" fill="#EADDC1"/>
<path d="M45.4555 69.4655C45.4555 69.4655 45.2425 69.3851 45.2188 69.7022L44.5088 69.4655C44.6082 69.2573 44.7171 69.0017 44.9821 68.9922L45.4555 69.4655Z" fill="#F1EAE0"/>
<path d="M45.4558 69.4649L44.9824 68.9916C46.2604 68.9774 45.4605 69.4081 45.4558 69.4649Z" fill="#B7DAE2"/>
<path d="M36.6979 130.289C36.7784 130.289 36.8541 130.289 36.9346 130.289C36.9109 130.578 37.1381 130.507 37.1713 130.526C37.6872 130.871 37.8197 130.739 38.3546 130.762C39.2161 130.8 40.0917 130.758 40.9579 130.762C40.8207 131.842 42.9459 132.817 43.9163 133.366C51.5132 137.654 60.3787 139.585 67.7012 144.489C67.4787 144.986 67.029 147.007 66.8729 147.092C66.4279 147.334 64.2885 146.737 63.6779 147.329C63.2661 147.727 62.2484 153.146 61.7845 154.311L64.3879 154.666C64.0423 155.754 62.5939 160.663 62.4945 161.292H62.2579C60.0474 158.94 60.8473 160.653 60.0095 160.582C59.7634 160.563 59.1575 159.295 57.9979 158.689C57.5624 158.462 58.6842 157.993 56.5779 158.689C55.4324 156.668 49.0566 153.43 50.4246 151.826H50.6612C51.8966 151.646 50.7038 152.346 51.4896 152.772C51.7736 152.929 56.7009 154.5 57.6429 154.902C60.2746 154.102 58.3434 152.588 60.3645 152.417C60.9515 151.688 57.6571 147.807 56.8145 146.974C50.2684 140.485 37.7156 138.445 36.2246 130.289C36.3808 130.289 36.5417 130.294 36.6979 130.289Z" fill="#1C4663"/>
<path d="M32.9113 159.162C32.1209 158.987 31.1269 159.077 30.308 158.807C30.5967 159.721 33.006 165.259 33.503 165.315C33.697 165.339 32.9965 164.809 37.1713 164.842C39.609 164.861 42.094 165.074 44.5079 165.079C45.4546 165.079 46.4013 165.088 47.3479 165.079C50.3915 165.041 53.4208 164.563 56.4596 164.842C57.3116 164.582 57.5246 159.749 57.9979 158.689C59.1576 159.295 59.7634 160.563 60.0096 160.582C60.8474 160.653 60.0474 158.94 62.2579 161.292C60.7338 164.014 60.8 167.966 58.7079 169.694C58.1446 171.464 57.5246 173.31 56.8146 175.019C55.1295 179.08 53.3829 182.947 51.8446 187.089C50.4151 190.932 49.1182 200.877 42.6146 197.029C44.8961 197.336 41.2372 193.725 40.248 193.005C42.0514 190.251 39.8693 188.513 38.118 184.485C36.4897 180.14 34.4023 176.018 32.2013 171.942L30.308 167.327C35.6282 163.716 30.308 166.702 29.3613 165.552C34.9514 165.434 30.8429 162.868 29.8347 158.571C30.1707 157.766 35.3064 159.11 32.9113 159.162Z" fill="url(#paint0_linear_460_6103)"/>
<path d="M40.248 193.004C40.248 193.004 39.8741 193.217 39.7747 193.241C39.7321 193.023 39.8268 192.739 39.7747 192.531C39.68 192.148 40.1344 191.944 40.0114 191.466C39.5948 189.88 37.8814 186.444 38.118 184.484C39.8694 188.512 42.0514 190.25 40.248 193.004Z" fill="#11110E"/>
<path d="M42.6144 197.027C41.0477 196.099 40.1483 195.072 39.7744 193.241C39.8738 193.217 40.2335 193.028 40.2477 193.004C41.237 193.723 44.8959 197.335 42.6144 197.027Z" fill="#1C4663"/>
<path d="M32.9109 159.162C32.9441 159.171 33.3511 159.521 33.3843 159.635C32.8825 159.715 32.2672 159.427 32.2009 160.227C33.7061 161.524 34.6197 164.098 34.8043 164.25C35.1167 164.501 35.4669 164.259 35.7509 164.368C36.5935 164.695 37.1662 164.515 37.1709 164.842C32.9961 164.808 33.6967 165.339 33.5026 165.315C33.0056 165.258 30.5963 159.72 30.3076 158.807C31.1265 159.076 32.1205 158.987 32.9109 159.162Z" fill="#8A101C"/>
<path d="M44.5081 179.752C44.7353 179.752 44.7589 179.511 44.9814 179.516C45.0855 179.516 45.1471 179.516 45.2181 179.516C48.3799 179.568 52.3701 180.188 46.6381 180.226C46.0843 180.226 45.5352 180.23 44.9814 180.226C44.953 180.226 45.1376 180.003 44.5081 179.989C36.7596 179.819 36.8732 179.691 44.5081 179.752Z" fill="#9CAB9D"/>
<path d="M45.2181 179.516C45.1471 179.516 45.0855 179.516 44.9814 179.516C44.9009 178.844 45.2843 177.888 44.5081 177.623C44.5033 177.192 44.4418 176.515 44.5081 176.203C44.9199 177.623 46.0606 175.961 46.6381 175.256C48.3799 175.956 44.5885 176.335 45.2181 179.516Z" fill="#2D3E4A"/>
<path d="M44.9808 180.225V182.118C44.8625 187.718 44.2708 182.573 44.5075 179.988C45.137 180.002 44.9524 180.225 44.9808 180.225Z" fill="#644743"/>
<path d="M46.6371 180.225L44.9805 182.118V180.225C45.5343 180.229 46.0833 180.225 46.6371 180.225Z" fill="#142F44"/>
<path d="M46.6378 175.256C46.0603 175.961 44.9196 177.623 44.5078 176.203C44.7303 175.185 45.5018 175.687 46.6378 175.256Z" fill="#DDCABB"/>
<path d="M44.9809 179.514C44.7585 179.51 44.7348 179.751 44.5076 179.751C44.4981 179.041 44.5171 178.331 44.5076 177.621C45.2839 177.886 44.9005 178.842 44.9809 179.514Z" fill="#6D564B"/>
<path d="M66.5185 59.5254C66.6131 59.7715 67.6545 61.4093 67.7018 61.5371C69.4389 66.2798 71.1571 71.2451 71.9618 76.2103C73.7037 78.1794 73.1404 84.9244 74.9201 83.902L75.0385 82.9553C75.2467 83.5754 75.1142 84.3516 75.9851 84.1386C75.2704 84.309 73.7841 84.6025 75.0385 85.322C73.6942 85.6296 75.3508 90.3156 75.7484 92.5403C75.952 93.6858 76.0088 96.4879 76.6951 99.1669C78.3944 99.1196 77.5944 98.6463 78.1151 98.1019C78.1908 98.3481 78.2618 99.2711 78.3518 99.4036C78.3849 99.4509 78.8819 99.6639 79.2984 99.9953C78.6405 99.8627 78.082 99.7965 77.4051 99.7586C77.1022 99.7397 76.7614 99.7302 76.4584 99.7586C75.9094 99.8107 75.5828 99.8391 75.0385 99.9953C74.1675 100.246 73.8835 100.592 73.1451 100.942C73.0457 100.312 72.5819 100.047 72.4351 99.2853C72.0091 97.0653 71.3039 94.8549 70.7785 92.6586C69.8839 88.924 69.1928 87.4946 69.1218 87.2153C69.1076 87.1585 69.3727 86.9739 69.1218 86.032C68.5112 83.7269 67.6545 81.4501 66.9918 79.1687C66.2013 76.4423 65.4866 73.8389 64.6251 71.122C63.9341 68.9352 63.7258 68.656 63.6785 68.5187C63.6264 68.3625 63.83 68.4903 63.6785 68.0454C63.1058 66.3792 61.9556 61.7927 61.7852 61.4187C62.2017 60.2638 65.1979 59.8378 66.5185 59.5254Z" fill="url(#paint1_linear_460_6103)"/>
<path d="M64.1518 50.2954C64.1802 50.3617 64.1234 50.4658 64.1518 50.5321C66.1445 54.7258 67.6592 59.0946 69.5951 63.312C71.8292 67.8939 72.757 72.826 73.8551 77.7486C74.2385 79.4621 74.4846 81.2939 75.0384 82.9553L74.9201 83.902C73.1404 84.9244 73.7036 78.1794 71.9618 76.2103C71.1571 71.2451 69.4389 66.2798 67.7018 61.537C67.6545 61.4092 66.6131 59.7715 66.5185 59.5254C65.5245 56.9126 62.9827 50.7687 62.4951 49.2304C62.4241 49.0079 62.4005 47.924 62.7318 47.9287C63.1199 48.7145 63.7731 49.5049 64.1518 50.2954Z" fill="#11161D"/>
<path d="M75.985 85.7948C76.4773 89.2406 77.14 94.9443 78.115 98.1014C77.5944 98.6457 78.3943 99.1191 76.695 99.1664C76.0087 96.4873 75.9519 93.6852 75.7484 92.5397C75.3508 90.3151 73.6941 85.6291 75.0384 85.3214C75.507 85.1652 75.649 85.7758 75.985 85.7948Z" fill="#11161D"/>
<path d="M60.3653 43.1955C61.2078 44.7717 61.9415 46.3337 62.732 47.9288C62.4006 47.9241 62.4243 49.008 62.4953 49.2305C62.9828 50.7688 65.5246 56.9127 66.5186 59.5255C65.198 59.8379 62.2018 60.2639 61.7853 61.4188C60.7487 59.1089 59.8872 60.2355 55.987 59.9988C55.4332 60.1692 55.8686 61.2247 55.8686 61.4188L55.3953 61.1821C55.5231 60.9171 55.1397 60.0319 55.7503 59.7621C56.1337 59.5917 59.1015 59.8852 60.1286 59.7621C62.9166 59.4308 60.0576 59.1468 60.602 55.8571C59.5938 53.4384 56.8011 49.3252 56.5786 48.8755C55.2438 46.187 54.0226 43.4511 52.5553 40.8288C52.3045 40.3839 52.1199 39.8822 51.8453 39.4089C51.8122 39.3521 51.8075 38.4291 51.6087 38.1072C51.4525 37.8516 50.1981 36.7061 47.822 33.4922C47.4149 32.9431 47.0552 32.1527 46.6387 31.5989C47.1167 30.851 46.2695 27.6797 47.9403 27.3389C48.1912 27.2868 53.0902 28.5838 48.2953 26.1556C50.4774 24.3806 58.6708 40.0195 60.3653 43.1955Z" fill="#4F3325"/>
<path d="M48.2954 26.1555C53.0902 28.5837 48.1912 27.2867 47.9404 27.3388C46.2695 27.6796 47.1168 30.8509 46.6387 31.5988C46.1559 30.9598 45.9571 31.1586 45.9287 31.1255C46.0139 29.1185 45.4554 26.023 48.2954 26.1555Z" fill="#623334"/>
<path d="M47.9396 28.0486C50.3583 27.2581 51.9582 32.7393 50.0696 33.0186C47.1113 32.2707 46.5622 28.4982 47.9396 28.0486Z" fill="#185A86"/>
<path d="M78.5892 113.249C78.9064 113.24 79.2235 113.264 79.5359 113.249C78.5182 119.493 77.4438 125.712 75.7492 131.828C78.6224 133.342 78.4851 134.956 75.3942 133.839C74.741 138.885 65.1182 165.571 65.0993 167.328C65.0993 167.512 65.5489 167.313 65.5726 167.683C64.5123 167.673 64.0153 168.118 64.6259 169.103C64.2709 169.245 64.0627 168.856 64.0343 168.866C63.5799 169.041 61.1091 175.516 60.6026 176.558C58.8276 180.216 57.0337 183.96 55.1593 187.562C54.5014 187.454 54.7759 188.438 54.0943 188.509C53.744 188.547 53.318 187.965 53.0293 187.799C55.5001 184.533 60.5411 169.884 56.816 175.019C57.526 173.31 58.146 171.464 58.7093 169.694C60.8014 167.967 60.7351 164.014 62.2593 161.293H62.4959C62.4107 161.823 62.1977 162.466 62.2593 162.713C62.1173 163.536 63.0071 163.03 63.6793 163.186C64.4271 163.356 64.5313 163.877 64.8626 163.541C67.4849 158.808 67.9109 152.81 68.1759 147.448C68.2327 146.331 68.3132 145.46 67.7026 145.673C67.944 145.01 68.1854 144.267 68.1759 143.543C70.8171 136.746 74.4949 121.187 75.2759 113.604L78.1159 113.249C78.2721 113.249 78.433 113.254 78.5892 113.249Z" fill="#341F16"/>
<path d="M53.029 187.799C52.9675 187.766 52.4752 187.794 51.8457 187.089C53.384 182.947 55.1306 179.08 56.8157 175.019C60.5408 169.883 55.4998 184.533 53.029 187.799Z" fill="#5F3121"/>
<path d="M65.5722 167.682C65.5864 167.881 65.9651 168.108 65.8089 168.51C65.558 169.168 64.6871 169.078 64.6256 169.102C64.015 168.117 64.512 167.672 65.5722 167.682Z" fill="#623334"/>
<path d="M63.679 163.186C63.2388 162.273 63.0637 162.675 62.259 162.713C62.1975 162.467 62.4105 161.823 62.4957 161.293C62.5951 160.663 64.0435 155.755 64.389 154.666C64.5973 154.008 66.5048 150.468 66.519 147.566C67.4988 147.277 67.4042 146.496 67.7024 145.673C68.313 145.46 68.2325 146.331 68.1757 147.448C67.9106 152.811 67.4846 158.808 64.8624 163.541C64.531 163.877 64.4269 163.357 63.679 163.186Z" fill="#5F3121"/>
<path d="M67.702 145.673C67.4038 146.497 67.4985 147.278 66.5187 147.566C65.6525 147.822 64.5591 147.296 63.6787 147.33C64.2893 146.738 66.4288 147.33 66.8737 147.093C67.0299 147.008 67.4796 144.987 67.702 144.49C67.8298 144.201 68.0949 143.751 68.1754 143.543C68.1848 144.267 67.9434 145.01 67.702 145.673Z" fill="#15232A"/>
<path d="M63.6792 163.186C63.0071 163.03 62.1172 163.536 62.2592 162.712C63.0639 162.675 63.239 162.272 63.6792 163.186Z" fill="#4F3325"/>
<path d="M72.9075 105.202C73.0116 105.77 73.5465 107.469 72.7891 107.805C64.539 107.829 63.2562 101.041 61.7842 98.5752C64.8845 100.123 65.6134 101.747 70.4225 103.309C70.9621 103.484 72.6945 103.474 72.7891 103.545C73.0589 103.735 72.8365 104.828 72.9075 105.202Z" fill="#1C4663"/>
<path d="M42.6147 51.7158C42.6147 51.9478 41.6586 52.156 43.3247 53.3725C41.9142 52.7004 42.6762 53.5807 42.6147 53.6091C42.4112 53.7038 40.7261 52.8802 41.4314 57.0408C42.184 61.4996 48.9621 60.8748 52.1997 61.1825C53.5818 61.315 54.6752 62.6593 55.3946 61.1825L55.868 61.4191C55.8538 62.5599 55.9342 63.6107 56.1046 64.7324C56.2656 65.8211 56.2845 67.9227 56.6963 68.2824C57.0844 68.6232 62.6082 68.4765 63.678 68.5191C63.7253 68.6564 63.9336 68.9356 64.6246 71.1224L57.7613 71.2408C57.5246 71.5721 58.708 78.9182 59.2996 79.1691C59.8108 79.3821 65.4198 79.0129 66.9913 79.1691C67.6539 81.4505 68.5107 83.7273 69.1213 86.0324C65.9452 86.4347 65.7275 87.4524 69.1213 87.2157C69.1923 87.495 69.8833 88.9244 70.7779 92.659C68.7189 92.3277 64.3785 92.0532 64.388 93.014C67.5451 98.0739 65.9499 100.639 72.4346 99.2857C72.5813 100.048 73.0452 100.313 73.1446 100.942C73.2393 101.543 73.3339 103.797 73.3813 104.729L72.9079 105.202C72.8369 104.828 73.0594 103.735 72.7896 103.546C72.6949 103.475 70.9625 103.484 70.4229 103.309C65.6139 101.747 64.885 100.123 61.7846 98.5757C60.4593 96.3558 59.702 96.583 59.1813 96.209C59.0866 96.1428 58.7979 96.0386 58.708 95.9724L55.158 92.4224C56.0526 92.8626 56.8809 93.1608 57.643 93.8424L59.6546 90.6474C59.4937 87.5565 60.1516 88.967 60.3646 88.2807C60.4498 88.0109 57.359 85.8715 60.7196 85.5591L61.3113 86.5057C59.7919 85.0053 58.6464 87.5139 60.838 87.4524C61.0273 87.4476 61.5432 86.8844 64.5063 86.979L64.8613 85.9141C61.7042 84.9485 63.5549 84.4846 63.4413 83.7841C63.4271 83.7036 62.8402 83.2539 62.7313 82.3641C62.7266 82.312 63.2567 81.744 63.2046 81.4174C63.181 81.2612 62.6272 80.7121 62.4946 80.2341C62.4094 79.9311 64.8471 79.1691 58.8263 79.4057C58.3624 79.2259 56.9803 71.8845 57.0513 71.4774C57.2122 70.5497 58.1305 71.6384 57.5246 68.8741C55.0775 69.1723 56.2088 65.5702 55.6313 65.0874C55.0112 64.5715 42.449 64.3064 40.1297 61.4191C38.4494 59.3317 39.7368 53.8931 41.1947 51.7158H42.6147Z" fill="#1C4663"/>
<path d="M63.6778 68.0457C63.8293 68.4907 63.6257 68.3629 63.6778 68.5191C62.6081 68.4765 57.0843 68.6232 56.6962 68.2824C56.2844 67.9227 56.2654 65.8211 56.1045 64.7324C58.4191 67.0375 60.2935 68.5427 63.6778 68.0457Z" fill="#DDB207"/>
<path d="M69.1216 87.2156C65.7278 87.4522 65.9455 86.4346 69.1216 86.0322C69.3725 86.9742 69.1074 87.1588 69.1216 87.2156Z" fill="#87772C"/>
<path d="M61.3112 86.5055L60.8378 87.4522C58.6463 87.5137 59.7918 85.005 61.3112 86.5055Z" fill="#926A6E"/>
<path d="M65.2165 86.2695L66.0448 86.3879C66.3241 87.8363 64.0142 87.3629 65.2165 86.2695Z" fill="#B58221"/>
<path d="M46.6382 36.5691C46.2737 37.5158 46.695 37.5016 47.5848 37.7525C47.8925 38.453 48.6877 39.376 48.7682 40.1191C48.7682 40.157 48.5694 39.8825 48.5315 40.8291C48.4889 41.8657 48.3848 43.9342 47.2298 44.3791C46.766 44.559 46.5956 42.7982 46.4015 45.0891C46.1554 48.0427 46.7376 49.8508 47.8215 52.4257C47.0642 51.5974 45.7104 49.865 45.4548 48.8758C45.0951 47.4936 45.3128 45.1412 45.2182 44.9708C45.0998 44.7578 44.6123 45.3068 44.3898 45.0891C43.6893 44.4122 41.9049 41.5012 41.1949 41.3024C41.1333 40.9285 41.2327 40.654 41.4315 40.3558C41.4505 40.3274 41.4978 40.5925 41.9049 39.8825C41.9238 39.8493 41.8765 39.5795 42.1415 39.1725C43.4006 37.2365 44.191 36.3135 46.6382 36.5691Z" fill="#F1EAE0"/>
<path d="M48.5312 37.516C48.2378 37.5065 48.2567 37.7621 48.2946 37.9893C48.0153 37.7763 47.8165 37.8189 47.5846 37.7527C46.6947 37.5018 46.2734 37.516 46.6379 36.5693C47.5183 36.6593 47.9017 36.9527 48.5312 37.516Z" fill="#949177"/>
<path d="M48.2955 37.9892C48.2576 37.762 48.2387 37.5064 48.5321 37.5159C50.6385 39.3997 48.6079 39.9346 48.2955 37.9892Z" fill="#E3C2A2"/>
<path d="M49.4784 151.825C49.7814 151.868 50.1174 151.797 50.4251 151.825C49.0572 153.43 55.433 156.667 56.5784 158.689C55.8448 158.93 53.8946 160.18 53.1468 160.345C50.9694 160.833 47.0029 160.596 44.7451 160.582C44.7688 160.482 44.9581 160.123 44.9818 160.109C45.3746 159.867 45.7438 159.867 46.1651 159.635C48.9057 158.13 50.4014 156.009 49.0051 153.009C48.688 152.327 47.9969 151.551 47.5851 151.352L47.8218 151.115C47.9874 151.205 49.3885 151.811 49.4784 151.825Z" fill="#15232A"/>
<path d="M29.8337 118.219C31.1685 119.966 34.941 123.359 36.9337 124.136L36.8154 128.159C30.6242 128.836 25.498 126.166 23.4437 129.934C23.4295 130.573 35.2628 130.317 36.2237 130.289C37.7147 138.445 50.2674 140.485 56.8136 146.974C57.6562 147.807 60.9505 151.688 60.3636 152.417C58.3425 152.588 60.2737 154.102 57.642 154.902C56.7 154.5 51.7726 152.929 51.4886 152.772C50.7029 152.346 51.8957 151.646 50.6603 151.826C52.5394 150.297 50.4899 149.999 49.2403 149.696C48.2889 149.468 49.1031 148.489 47.2287 150.169C46.7885 150.562 45.4963 149.847 47.8203 151.116L47.5837 151.352C47.4937 151.31 45.8891 150.903 45.6903 150.879C45.3306 150.841 44.8762 150.86 44.507 150.879C39.466 151.135 39.4802 157.43 43.3237 159.399C43.9627 159.726 44.7815 159.778 44.9803 160.109C44.9567 160.123 44.7673 160.483 44.7437 160.582C44.6301 160.582 43.6834 161.467 42.4953 161.056C41.7948 160.81 43.4657 160.535 39.537 160.109C38.0602 159.948 35.0214 159.584 33.857 159.636C33.7008 159.64 33.5352 159.612 33.3837 159.636C33.3506 159.522 32.9435 159.172 32.9104 159.162C35.3054 159.11 30.1698 157.766 29.8337 158.571C30.8419 162.868 34.9504 165.434 29.3604 165.552C28.9296 165.027 26.3784 157.359 25.5737 155.612L33.147 155.494C30.7709 146.24 34.0274 145.374 23.2071 147.566C23.1787 147.457 22.4923 146.42 22.2604 145.554C20.7694 140.035 19.7991 134.237 18.2371 128.751C18.1661 128.495 17.7543 129.565 16.3438 123.899C18.4927 123.038 21.5788 122.886 23.5621 122.006C25.6495 121.078 26.9085 118.702 29.1237 118.219C29.3367 118.172 29.6065 118.247 29.8337 118.219Z" fill="#1C4663"/>
<path d="M49.2407 149.695C48.6964 150.013 50.5471 150.495 49.4774 151.825C49.3875 151.811 47.9864 151.205 47.8207 151.115C45.4967 149.847 46.7889 150.562 47.2291 150.169C49.1035 148.488 48.2893 149.468 49.2407 149.695Z" fill="#575A4D"/>
<path d="M50.6613 151.825H50.4246C50.1169 151.797 49.7809 151.868 49.4779 151.825C50.5477 150.495 48.6969 150.012 49.2413 149.695C50.4909 149.998 52.5404 150.296 50.6613 151.825Z" fill="#A38A52"/>
<path d="M41.9045 148.985L43.3245 150.169C40.5792 150.339 37.6635 149.17 41.9045 148.985Z" fill="#4E3B34"/>
<path d="M43.3253 150.169L41.9053 148.986C42.0189 148.981 42.6342 148.579 44.1536 148.749C44.253 148.801 44.6885 150.084 43.3253 150.169Z" fill="#FAD8A2"/>
<path d="M30.1895 137.862C32.6792 137.692 32.665 138.506 30.1895 138.336V137.862Z" fill="#C3BBA6"/>
<path d="M33.3844 138.335H32.6744C32.3099 137.332 34.6766 138.16 33.3844 138.335Z" fill="#E9DB91"/>
<path d="M33.3848 138.336L33.1481 138.809L32.6748 138.573V138.336H33.3848Z" fill="#646B42"/>
<path d="M33.148 138.809C32.8072 139.519 32.599 139.367 32.6747 138.572L33.148 138.809Z" fill="#E1E9BE"/>
<path d="M66.5175 147.565C66.5033 150.467 64.5958 154.007 64.3875 154.665L61.7842 154.31C62.248 153.146 63.2657 147.726 63.6775 147.329C64.5579 147.296 65.6513 147.821 66.5175 147.565Z" fill="#DDB207"/>
<path d="M39.5374 160.109C42.4011 160.497 41.8709 161.255 42.0224 161.293C43.3193 161.619 44.1571 161.283 44.2707 161.293C44.2423 162.959 43.3193 163.465 44.5074 165.079C42.0934 165.079 39.6084 164.861 37.1707 164.843C37.1707 164.516 36.5933 164.696 35.7507 164.369L33.8574 159.636C35.0218 159.584 38.0606 159.948 39.5374 160.109Z" fill="#ED523B"/>
<path d="M57.998 158.688C57.5247 159.749 57.3117 164.581 56.4597 164.842C53.4209 164.562 50.3916 165.041 47.3481 165.078C47.3339 164.884 47.3717 164.633 47.3481 164.605L51.0164 164.368C52.2612 159.749 49.8615 161.595 46.8747 161.528C46.4014 161.519 45.0003 161.353 44.2714 161.292C44.1578 161.282 43.32 161.618 42.0231 161.292C41.8716 161.254 42.4017 160.497 39.5381 160.108C43.4667 160.534 41.7959 160.809 42.4964 161.055C43.6845 161.467 44.6311 160.582 44.7447 160.582C47.0025 160.596 50.9691 160.833 53.1464 160.345C53.8942 160.179 55.8444 158.93 56.578 158.688C58.6844 157.993 57.5626 158.461 57.998 158.688Z" fill="#570D11"/>
<path d="M46.875 161.528C47.2726 162.995 46.3118 163.487 47.3484 164.604C47.372 164.633 47.3342 164.884 47.3484 165.078C46.4017 165.087 45.455 165.078 44.5084 165.078C43.3203 163.464 44.2433 162.957 44.2717 161.291C45.0006 161.353 46.4017 161.518 46.875 161.528Z" fill="#B01D20"/>
<path d="M33.3845 159.635C33.536 159.611 33.7016 159.639 33.8578 159.635L35.7512 164.368C35.4672 164.259 35.1169 164.5 34.8045 164.25C34.6199 164.098 33.7064 161.523 32.2012 160.226C32.2674 159.426 32.8828 159.715 33.3845 159.635Z" fill="#CB2929"/>
<path d="M47.3482 164.605C46.3116 163.488 47.2725 162.996 46.8749 161.528C49.8616 161.595 52.2614 159.749 51.0166 164.368L47.3482 164.605Z" fill="#7A2317"/>
<path d="M61.7851 98.5756C63.2572 101.042 64.5399 107.829 72.7901 107.806C73.5474 107.47 73.0125 105.77 72.9084 105.202L73.3817 104.729C73.5663 108.303 72.667 112.785 72.9084 113.131C74.0207 113.538 74.7071 113.003 74.8017 113.012C74.8491 113.012 74.5272 113.206 75.7484 113.249C76.4442 113.273 77.4145 113.268 78.115 113.249L75.2751 113.604C74.4941 121.187 70.8163 136.745 68.1751 143.542C68.0946 143.75 67.8295 144.2 67.7017 144.489C60.3793 139.585 51.5138 137.654 43.9168 133.366C42.9465 132.816 40.8212 131.841 40.9585 130.762C42.2507 130.772 50.1222 130.985 50.5435 130.762C50.8464 130.601 50.2784 124.708 50.8985 123.899C51.5138 123.676 52.2001 123.26 52.7918 122.952C56.9524 120.799 59.4374 117.599 61.0751 113.249C62.0454 110.669 63.4276 106.977 62.0218 104.256C61.5248 103.295 60.9284 103.692 60.8384 103.309C62.3105 101.6 60.3935 97.965 59.1818 96.209C59.7024 96.5829 60.4598 96.3557 61.7851 98.5756Z" fill="#15232A"/>
<path d="M53.3837 127.923C57.1845 128.424 62.0977 126.389 64.6253 130.171C59.5749 129.248 51.6181 131.482 53.3837 127.923Z" fill="#570D11"/>
<path d="M39.0643 124.609C39.0738 124.903 38.8182 124.884 38.591 124.846C36.0397 124.434 37.881 125.063 36.6976 130.289C36.5414 130.294 36.3805 130.289 36.2243 130.289C35.2634 130.317 23.4301 130.573 23.4443 129.934C25.4986 126.166 30.6248 128.836 36.816 128.159L36.9343 124.136C37.3035 124.278 38.5105 124.491 39.0643 124.609Z" fill="#CB2929"/>
<path d="M50.8976 123.899C50.2776 124.709 50.8456 130.602 50.5426 130.763C50.1214 130.985 42.2499 130.772 40.9577 130.763C40.0915 130.758 39.2158 130.801 38.3543 130.763L37.171 130.526C37.1379 130.507 36.9107 130.578 36.9343 130.289C38.2833 130.228 39.6607 130.521 40.9577 129.934C40.1199 128.254 38.6478 126.848 38.591 124.846C38.8182 124.884 39.0738 124.903 39.0643 124.609C40.8204 124.988 42.4723 125.125 44.271 125.083C42.9741 125.495 43.7693 127.487 43.561 128.988C48.1002 130.285 48.228 128.884 47.111 124.846C48.2517 124.68 49.8137 124.292 50.8976 123.899Z" fill="#570D11"/>
<path d="M38.5906 124.846C38.6474 126.849 40.1195 128.254 40.9573 129.935C39.6603 130.522 38.2829 130.228 36.9339 130.29C36.8535 130.29 36.7777 130.29 36.6973 130.29C37.8806 125.064 36.0393 124.435 38.5906 124.846Z" fill="#8A101C"/>
<path d="M38.3542 130.763C37.8194 130.739 37.6868 130.872 37.1709 130.526L38.3542 130.763Z" fill="#282C46"/>
<path d="M47.1107 124.846C48.2277 128.883 48.0999 130.284 43.5607 128.987C43.769 127.487 42.9738 125.494 44.2707 125.082C45.3452 125.059 46.0551 124.997 47.1107 124.846Z" fill="#11110E"/>
<path d="M46.1667 159.636C45.7454 159.868 45.3762 159.868 44.9833 160.109C44.7845 159.778 43.9657 159.726 43.3267 159.399C44.297 158.594 42.8865 158.145 42.6167 157.387C41.3055 153.729 43.6911 153.492 44.0367 153.009L45.4567 153.482C46.0625 156.725 47.7949 152.886 48.2966 152.772C48.0268 155.617 44.7088 157.719 46.1667 159.636Z" fill="#575A4D"/>
<path d="M44.5091 150.879C44.5564 151.508 44.3955 152.512 44.0358 153.009C43.6902 153.492 41.3046 153.728 42.6158 157.387C42.8856 158.145 44.2961 158.594 43.3258 159.399C39.4823 157.43 39.4681 151.135 44.5091 150.879Z" fill="#EADDC1"/>
<path d="M47.586 151.352C47.9978 151.551 48.6888 152.327 49.006 153.009L48.296 152.772C47.7942 152.886 46.0618 156.725 45.456 153.482C45.3755 153.061 45.74 151.688 45.6927 150.879C45.8914 150.903 47.496 151.31 47.586 151.352Z" fill="#8C887E"/>
<path d="M45.6918 150.879C45.7392 151.689 45.3747 153.061 45.4552 153.483L44.0352 153.009C44.3949 152.512 44.5558 151.509 44.5085 150.879C44.8777 150.86 45.3321 150.841 45.6918 150.879Z" fill="#F1EAE0"/>
<path d="M49.0055 153.009C50.4019 156.01 48.9061 158.131 46.1655 159.636C44.7077 157.719 48.0257 155.617 48.2955 152.772L49.0055 153.009Z" fill="#4B4D4F"/>
<path d="M70.7787 92.6591C71.3041 94.8554 72.0093 97.0658 72.4353 99.2858C65.9507 100.639 67.5458 98.074 64.3887 93.0141C64.3792 92.0532 68.7197 92.3278 70.7787 92.6591Z" fill="#DDB207"/>
<path d="M82.6112 102.362C81.3237 103.517 82.6869 109.32 81.9012 113.13C81.1155 113.215 80.3203 113.211 79.5346 113.248C79.2222 113.263 78.905 113.239 78.5879 113.248C79.2032 111.483 79.7002 107.303 79.7712 105.32C79.8375 103.507 80.1026 100.629 79.2979 99.9951C79.4588 100.123 79.3878 99.5029 82.6112 102.362Z" fill="#8A101C"/>
<path d="M79.298 99.9945C80.1027 100.629 79.8376 103.507 79.7714 105.319C79.7004 107.303 79.2034 111.482 78.588 113.248C78.4318 113.253 78.2709 113.248 78.1147 113.248C77.4142 113.267 76.4438 113.271 75.748 113.248C77.0828 111.146 75.8427 107.326 76.9314 107.449C76.6142 105.902 77.8449 102.124 77.6414 101.059C77.4236 99.9093 76.5906 101.992 77.4047 99.7578C78.0816 99.7957 78.6401 99.8619 79.298 99.9945Z" fill="#CB2929"/>
<path d="M75.0377 99.9951C74.8909 100.899 75.1891 101.728 75.2743 102.598C75.6625 106.636 75.2743 109.069 74.801 113.012C74.7063 113.002 74.02 113.537 72.9077 113.13C72.6663 112.785 73.5656 108.302 73.381 104.728C73.3337 103.796 73.239 101.543 73.1443 100.942C73.8827 100.592 74.1667 100.246 75.0377 99.9951Z" fill="#CB2929"/>
<path d="M77.4047 99.7582C76.5906 101.992 77.4236 99.9096 77.6414 101.06C77.8449 102.125 76.6142 105.902 76.9314 107.45C75.8427 107.327 77.0828 111.147 75.748 113.248C74.5268 113.206 74.8487 113.016 74.8014 113.011C75.27 109.069 75.6628 106.636 75.2747 102.598C76.8651 102.063 76.245 101.022 76.458 99.7582C76.761 99.7298 77.1018 99.7392 77.4047 99.7582Z" fill="#ED523B"/>
<path d="M76.458 99.7578C76.245 101.022 76.8651 102.063 75.2747 102.598C75.1895 101.727 74.8913 100.899 75.038 99.9945C75.5823 99.8383 75.9089 99.8099 76.458 99.7578Z" fill="#FE9759"/>
<path d="M39.5382 90.5293C26.1902 92.8013 21.9539 107.891 29.8349 118.219C29.6077 118.248 29.3379 118.172 29.1249 118.219C27.383 115.649 25.414 113.334 24.8649 110.173C24.2401 106.58 25.0069 99.6552 27.2316 96.801C29.1722 94.3113 36.2533 90.3447 39.5382 89.8193V90.5293Z" fill="#906C31"/>
<path d="M59.6549 112.538C60.4642 112.624 60.753 112.221 61.0748 113.248C59.4371 117.598 56.9521 120.798 52.7915 122.952C49.038 120.268 51.3384 120.041 51.1349 119.757C51.0639 119.657 49.2605 118.829 49.0049 118.692L51.3715 118.218C52.6685 119.255 55.1677 118.663 54.6849 116.798C56.1995 115.833 56.9048 113.968 56.1049 112.302C56.7249 112.264 58.8313 112.453 59.6549 112.538Z" fill="#7A7B79"/>
<path d="M61.075 113.249C60.7531 112.222 60.4644 112.624 59.655 112.539C59.655 112.198 59.5224 112.056 59.8916 111.829C59.9106 111.815 60.0952 112.43 60.365 111.948C60.3839 111.914 59.9106 111.559 60.1283 111.238C62.476 107.735 61.4773 108.885 62.0216 104.256C63.4274 106.978 62.0453 110.67 61.075 113.249Z" fill="#58554F"/>
<path d="M56.105 108.043C55.9819 109.903 53.8046 111.522 54.4483 112.539C53.814 112.838 53.2697 114.063 52.555 114.906C52.1858 115.341 49.431 116.25 51.3717 118.219L49.005 118.693C48.8914 118.631 47.7743 118.494 46.875 117.273C48.6453 116.861 49.5162 115.905 50.6617 114.669C52.8011 112.355 53.6105 109.766 54.685 106.859C55.7216 107.465 55.6837 107.692 56.105 108.043Z" fill="#58554F"/>
<path d="M50.6612 114.668C49.5158 115.904 48.6448 116.86 46.8746 117.272C44.5647 117.811 44.2571 117.608 42.3779 116.562C43.3246 116.33 44.7683 115.951 44.5079 114.668C45.8333 114.545 45.6345 114.602 46.8746 114.195C48.2046 114.938 50.0743 112.761 50.6612 111.592C52.0055 112.761 50.8742 113.353 50.6612 114.668Z" fill="#4B4D4F"/>
<path d="M54.6854 106.859C53.611 109.766 52.8016 112.355 50.6621 114.669C50.8751 113.353 52.0064 112.762 50.6621 111.593C51.4242 110.073 51.4478 107.3 52.3188 106.623C53.5116 105.695 54.1316 106.537 54.6854 106.859Z" fill="#41404D"/>
<path d="M57.0512 108.515C57.2121 108.662 58.812 110.873 59.8912 111.829C59.522 112.056 59.6592 112.198 59.6545 112.539C58.8309 112.453 56.7246 112.264 56.1045 112.302C55.6927 112.326 54.6561 112.439 54.4479 112.539C53.8041 111.521 55.9815 109.902 56.1045 108.042C56.1471 108.075 56.5021 108.004 57.0512 108.515Z" fill="#2F3032"/>
<path d="M58.7086 95.9722C58.7985 96.0385 59.0872 96.1426 59.1819 96.2089C60.3936 97.965 62.3106 101.6 60.8386 103.309C60.6208 103.56 59.163 103.598 57.0519 108.516C56.5028 108.004 56.1478 108.075 56.1052 108.042C55.684 107.692 55.7218 107.465 54.6852 106.859C54.1314 106.537 53.5114 105.694 52.3186 106.622C51.5518 104.398 53.819 103.347 50.6619 101.889C50.3637 101.416 49.9993 101.278 49.7153 100.942C49.1709 100.289 47.3249 98.2253 46.6386 98.1022C46.3404 98.0502 40.8924 98.4856 40.6036 98.5756C40.4001 98.6418 39.3682 99.9056 38.947 100.232C38.8239 100.327 38.0382 100.138 37.882 100.232C34.2042 94.9451 29.8306 103.91 37.6453 100.469C37.5648 100.573 37.7258 101.193 37.6453 101.297C36.7744 102.381 35.8561 103.351 35.042 104.492C34.9994 104.549 34.0669 105.193 34.0953 105.321C34.1332 105.472 34.8621 105.283 35.042 106.031C35.7472 108.96 34.8337 114.825 39.302 113.722C39.5434 114.711 39.9315 114.295 40.2486 114.669C40.7409 115.251 41.7586 116.217 42.3786 116.562C44.2577 117.608 44.5654 117.812 46.8753 117.272C47.7746 118.493 48.8917 118.631 49.0053 118.692C49.2609 118.829 51.0643 119.658 51.1353 119.757C51.3388 120.041 49.0384 120.268 52.7919 122.952C52.2003 123.26 51.5139 123.676 50.8986 123.899C49.8147 124.292 48.2527 124.68 47.1119 124.845C46.0564 124.997 45.3464 125.058 44.2719 125.082C42.4733 125.125 40.8214 124.987 39.0653 124.609C38.5115 124.49 37.3045 124.277 36.9353 124.135C34.9426 123.359 31.1701 119.965 29.8353 118.219C21.9543 107.891 26.1907 92.8009 39.5386 90.5289C47.9592 89.0947 52.3423 91.291 58.7086 95.9722Z" fill="#E2EAEA"/>
<path d="M55.158 92.4227L58.708 95.9727C52.3417 91.2914 47.9587 89.0952 39.5381 90.5294V89.8194C46.0417 88.778 49.5443 89.6774 55.158 92.4227Z" fill="#AFAA9A"/>
<path d="M32.9122 106.386C32.737 108.298 32.808 109.954 33.1488 111.829C32.3678 112.662 30.2852 112.477 29.3622 112.066L29.5988 110.882C30.7632 110.754 31.691 112.525 32.2022 111.001C31.4212 110.059 31.9797 105.429 31.1372 105.202C30.4934 105.027 29.8828 105.538 29.1255 105.439C29.1681 104.573 28.4534 104.364 29.3622 103.782C30.7017 103.366 32.8601 102.348 33.5038 103.546C33.9346 104.341 33.0778 104.549 32.9122 106.386Z" fill="#D0CFCE"/>
<path d="M58.3533 102.6L58.9449 102.718C58.571 103.712 58.4716 105.681 57.6433 106.386C55.5417 108.171 54.2826 105.582 53.7383 103.901L58.3533 102.6Z" fill="#4B4D4F"/>
<path d="M37.8812 100.233C37.6493 100.38 37.7156 100.375 37.6446 100.47C29.8298 103.911 34.2034 94.9459 37.8812 100.233Z" fill="#D0CFCE"/>
<path d="M51.4892 98.3393C53.87 97.9701 54.8877 105.543 50.1875 99.641L51.4892 98.3393Z" fill="#58554F"/>
<path d="M35.3967 114.67C38.71 114.106 39.9028 118.196 36.6983 117.865C38.3124 113.534 33.03 115.114 34.5684 117.865C32.6703 117.41 33.8678 114.93 35.3967 114.67Z" fill="#B5B3B4"/>
<path d="M43.4433 91.4764C44.7261 91.2113 45.7201 92.1012 45.6917 93.488C42.4304 93.9803 40.6791 95.3103 43.4433 91.4764Z" fill="#58554F"/>
<path d="M43.9162 119.403C45.5161 118.845 45.2605 124.709 44.3895 120.823L43.7979 120.941C44.6309 123.029 41.9282 122.631 43.9162 119.403Z" fill="#7A7B79"/>
<path d="M33.1474 111.829C32.8066 109.955 32.7356 108.298 32.9108 106.386C32.8824 108.203 34.2124 111.351 33.1474 111.829Z" fill="#9E9C9D"/>
<path d="M29.3615 103.783C28.4527 104.365 29.1675 104.574 29.1249 105.44C27.6954 105.251 27.0469 104.503 29.3615 103.783Z" fill="#716869"/>
<path d="M29.5983 110.883L29.3616 112.066C27.9085 111.418 28.0742 111.048 29.5983 110.883Z" fill="#7A7B79"/>
<path d="M54.6849 116.799C55.1677 118.664 52.6685 119.255 51.3716 118.219C49.431 116.25 52.1857 115.341 52.5549 114.905C53.5915 115.284 54.5335 115.506 54.6849 116.799Z" fill="#241C1A"/>
<path d="M56.1047 112.303C56.9046 113.969 56.1993 115.834 54.6847 116.799C54.5332 115.507 53.5913 115.285 52.5547 114.906C53.2694 114.064 53.8138 112.838 54.448 112.539C54.6563 112.44 55.6929 112.326 56.1047 112.303Z" fill="#6B6F71"/>
<path d="M60.8384 103.31C60.9283 103.693 61.5247 103.295 62.0217 104.256C61.4774 108.885 62.4761 107.735 60.1284 111.238C59.9107 111.56 60.384 111.915 60.3651 111.948C60.0953 112.431 59.9107 111.815 59.8917 111.83C58.8126 110.873 57.2127 108.663 57.0518 108.516C59.1628 103.598 60.6207 103.56 60.8384 103.31Z" fill="#E2EAEA"/>
<path d="M60.9569 103.783C61.3308 104.848 60.7344 105.146 60.8386 103.902L60.9569 103.783Z" fill="#4B4D4F"/>
<path d="M46.6376 98.102C46.4057 99.2853 47.021 100.8 47.111 101.652C47.2388 102.859 47.2577 104.203 47.3476 105.439C47.0542 105.415 47.1252 105.671 47.111 105.675C46.3678 105.794 42.851 105.907 42.6143 106.74C42.5528 106.953 43.1634 110.077 43.0877 111.119C43.064 111.119 43.1681 111.559 42.9693 111.592C42.709 111.635 42.3067 111.351 40.721 111.829L40.4843 111.119C42.1173 110.612 41.6961 110.129 41.076 106.859C38.1745 107.233 38.9223 107.45 39.301 111.119C38.1461 111.975 38.5437 107.796 37.881 106.622C39.8027 107.072 36.7213 105.481 35.9877 104.965C35.9356 104.927 36.3001 104.312 35.041 104.492C35.8551 103.351 36.7734 102.381 37.6443 101.297C37.7248 101.193 37.5639 100.573 37.6443 100.469C37.7153 100.374 37.6491 100.379 37.881 100.232C38.0372 100.137 38.8229 100.327 38.946 100.232C39.3673 99.9054 40.3991 98.6416 40.6027 98.5753C40.8914 98.4854 46.3394 98.0499 46.6376 98.102Z" fill="#F1EAE0"/>
<path d="M35.9877 104.965C35.2682 105.188 37.5828 106.087 37.881 106.622C38.5437 107.796 38.1461 111.975 39.301 111.118C39.2916 111.45 40.3518 111.161 40.4844 111.118L40.721 111.828C40.3234 111.947 39.7223 111.582 39.5377 112.302C39.2158 112.288 39.2206 113.4 39.301 113.722C34.8328 114.825 35.7463 108.96 35.041 106.03C34.8612 105.282 34.1323 105.472 34.0944 105.32C34.066 105.192 34.9984 104.549 35.041 104.492C36.3001 104.312 35.9356 104.927 35.9877 104.965Z" fill="#D9D2C2"/>
<path d="M50.6609 101.888C51.404 103.067 51.5507 102.66 51.6075 104.373C51.7306 108.112 50.7697 112.912 46.8742 114.195C45.6341 114.602 45.8329 114.545 44.5075 114.668C43.6224 114.748 43.4662 114.436 43.3242 114.431C43.4757 113.281 46.3441 113.314 46.9925 113.011C50.4053 111.421 48.2753 107.899 49.9509 103.781C50.055 103.521 51.8915 104.198 49.7142 100.941C49.9982 101.277 50.3627 101.415 50.6609 101.888Z" fill="#58554F"/>
<path d="M49.7145 100.942C51.8918 104.198 50.0553 103.521 49.9512 103.782L47.1112 101.652C47.0212 100.8 46.4059 99.2849 46.6378 98.1016C47.3242 98.2246 49.1702 100.288 49.7145 100.942Z" fill="#C3BBA6"/>
<path d="M44.0347 112.065C43.5898 112.51 42.9744 112.974 42.6147 113.485C41.6775 112.728 41.1521 115.478 42.1414 114.432C43.0454 114.659 43.2632 114.432 43.3247 114.432C43.4667 114.437 43.6229 114.749 44.508 114.669C44.7684 115.951 43.3247 116.33 42.378 116.562C41.758 116.216 40.7403 115.251 40.248 114.669C41.3367 114.209 41.2704 114.209 40.7214 113.249C42.1934 111.729 43.8548 112.117 44.0347 112.065Z" fill="#6B6F71"/>
<path d="M52.3183 106.622C51.4474 107.299 51.4237 110.073 50.6617 111.592C50.0747 112.761 48.2051 114.938 46.875 114.195C50.7705 112.913 51.7314 108.113 51.6083 104.374C51.5515 102.66 51.4048 103.067 50.6617 101.889C53.8188 103.347 51.5515 104.397 52.3183 106.622Z" fill="#2F3032"/>
<path d="M40.7208 113.249C41.2699 114.209 41.3362 114.209 40.2475 114.669C39.9304 114.295 39.5422 114.711 39.3008 113.722C39.2204 113.4 39.2156 112.288 39.5375 112.302C39.9114 112.557 40.5126 112.884 40.7208 113.249Z" fill="#493F3E"/>
<path d="M49.9516 103.781C48.276 107.899 50.406 111.421 46.9933 113.011C46.3448 113.314 43.4764 113.281 43.3249 114.431C43.2634 114.431 43.0457 114.659 42.1416 114.431C42.6575 113.854 42.5865 113.527 42.6149 113.485C42.9747 112.973 43.59 112.51 44.0349 112.065C48.7114 110.697 47.7175 110.602 47.3483 105.438C47.2583 104.203 47.2394 102.858 47.1116 101.651L49.9516 103.781Z" fill="#382E2B"/>
<path d="M47.1114 105.675C47.1445 106.224 47.064 106.787 47.1114 107.331C45.9706 107.734 44.4702 109.944 45.218 111.355C43.7318 111.762 43.2016 111.099 43.088 111.118C43.1638 110.077 42.5532 106.953 42.6147 106.74C42.8514 105.907 46.3682 105.793 47.1114 105.675Z" fill="#241C1A"/>
<path d="M40.4841 111.118C40.3516 111.161 39.2913 111.45 39.3008 111.118C38.9221 107.45 38.1743 107.232 41.0758 106.858C41.6958 110.129 42.1171 110.612 40.4841 111.118Z" fill="#382E2B"/>
<path d="M44.0347 112.065C43.8549 112.117 42.1935 111.729 40.7214 113.248C40.5131 112.884 39.912 112.557 39.5381 112.301C39.7227 111.582 40.3238 111.946 40.7214 111.828C42.3071 111.35 42.7094 111.634 42.9697 111.591C43.1685 111.558 43.0644 111.123 43.0881 111.118C43.2017 111.099 43.7318 111.762 45.2181 111.355C47.8309 110.64 47.3007 109.499 47.1114 107.331C47.0641 106.787 47.1445 106.224 47.1114 105.675C47.1256 105.675 47.0546 105.414 47.3481 105.438C47.7173 110.602 48.7113 110.697 44.0347 112.065Z" fill="#8C887E"/>
<path d="M37.8809 106.622C37.5827 106.087 35.2681 105.187 35.9876 104.965C36.7212 105.481 39.8026 107.071 37.8809 106.622Z" fill="#8C887E"/>
<path d="M42.6139 113.485C42.5855 113.528 42.6565 113.855 42.1405 114.432C41.1513 115.478 41.6767 112.728 42.6139 113.485Z" fill="#807564"/>
<path d="M47.1116 107.332C47.301 109.5 47.8311 110.641 45.2183 111.355C44.4705 109.945 45.9709 107.734 47.1116 107.332Z" fill="#575A4D"/>
<defs>
<linearGradient id="paint0_linear_460_6103" x1="50.524" y1="161.605" x2="33.4367" y2="185.172" gradientUnits="userSpaceOnUse">
<stop stop-color="#0C1D2A"/>
<stop offset="1" stop-color="#214963"/>
</linearGradient>
<linearGradient id="paint1_linear_460_6103" x1="77.0738" y1="69.986" x2="67.8296" y2="85.1374" gradientUnits="userSpaceOnUse">
<stop stop-color="#482016"/>
<stop offset="1" stop-color="#6A3320"/>
</linearGradient>
</defs>
</svg>
