<svg width="89" height="191" viewBox="0 0 89 191" fill="none" xmlns="http://www.w3.org/2000/svg">
<g id="Group">
<path id="Vector" d="M35.9221 7.79646C33.8205 10.0069 32.4478 12.7333 30.9616 15.3603C27.0566 20.974 24.2308 27.2409 21.2725 33.3185C19.4738 36.8543 17.803 40.002 16.312 43.7176C12.6578 52.1524 9.80365 60.7339 8.74812 69.9497C8.23692 68.7663 8.36946 69.6562 7.80146 69.4763C7.76832 69.4669 7.59319 68.932 7.32812 69.003C7.64526 68.5344 8.00972 62.8071 9.21671 57.8939C9.39658 57.165 9.57171 56.1852 9.69005 55.7686C10.3054 53.5677 12.0709 49.3597 12.9986 47.0262C13.1738 46.586 13.2921 46.0464 13.472 45.6062C14.2104 43.8028 15.4316 41.3936 16.3072 39.4624C16.79 38.3974 16.7427 37.8862 16.7806 37.8104C16.7948 37.7773 17.1498 37.9098 17.2539 37.6921C17.8645 36.3952 18.3662 34.8805 18.4372 34.7385C18.8159 33.967 19.2277 33.1339 19.6205 32.3766C20.2501 31.1601 21.8499 27.8752 21.9825 27.648C22.3517 27.0279 24.6947 25.2387 23.8711 24.5761C24.6947 23.5111 24.8367 22.8058 25.0544 22.4508C25.9111 21.9159 27.1465 20.122 26.943 19.1422C28.0885 17.3578 28.0601 17.1164 28.1263 17.017C29.0967 15.5354 29.9913 13.9971 30.9616 12.525C31.9082 11.0861 35.728 6.49953 35.9221 6.14453C36.5043 7.07226 35.9458 7.60239 35.9221 7.79646Z" fill="#37A7D7"/>
<path id="Vector_2" d="M63.3376 12.9984C63.9056 13.8456 64.3647 15.9425 65.4628 16.7803C65.9456 18.6547 67.0248 20.4723 68.0614 22.2141C68.0993 22.2757 67.9999 22.5313 68.5347 22.4508C68.4874 23.8471 69.5477 24.6518 70.1867 25.7594C70.8399 26.8859 71.0481 27.8468 71.6067 28.358C71.6209 28.3675 71.5546 28.6183 71.8433 28.5947C72.0989 29.7307 72.2173 30.4785 73.0267 31.4299C73.4905 33.025 75.0573 35.0178 75.1519 35.2118C75.7388 36.3715 76.1696 37.569 76.8039 38.7571C76.837 38.8186 76.6855 39.3014 77.2772 39.4671C77.2251 39.6896 77.0595 39.7038 77.0405 40.1771C77.0121 40.8398 81.4425 50.7324 81.5324 52.3465C81.5324 52.4222 80.8177 53.3452 80.8224 53.6481C76.5814 40.2623 65.7374 19.4357 57.6623 7.56453C57.4682 6.3244 57.6718 6.23446 57.6623 6.14453C59.3 8.45912 61.7803 10.6791 63.3328 12.9984H63.3376Z" fill="#37A7D7"/>
<path id="Vector_3" d="M8.74327 69.949C8.5776 71.4116 8.48767 72.7274 8.5066 74.2042C7.399 74.1711 8.3504 78.3554 8.26993 78.5778C8.10427 79.0417 7.40374 78.8571 7.32327 79.0512C7.16234 79.4393 7.328 86.2458 7.32327 87.4386L3.30469 86.1369C6.17308 84.272 3.66915 80.3907 5.19328 74.9095C5.48201 76.3532 4.64895 78.2086 7.31854 78.3364C7.48421 76.391 6.97774 74.4882 7.08187 72.5476C7.14814 71.2838 7.81081 70.6969 7.79187 69.4757C8.35987 69.6555 8.22734 68.7657 8.73854 69.949H8.74327Z" fill="#4B809D"/>
<path id="Vector_4" d="M7.80179 69.4759C7.82073 70.6971 7.1628 71.284 7.0918 72.5478C5.30733 71.5633 5.07067 74.3938 3.7832 72.4295C5.47773 69.509 7.18646 69.2108 7.32846 69.0026C7.59353 68.9316 7.76866 69.4664 7.80179 69.4759Z" fill="#66889D"/>
<g id="Group_2">
<path id="Vector_5" d="M38.5209 159.987C42.175 164.441 46.7664 167.953 47.0267 168.493C47.8929 170.272 46.6859 185.04 47.5 188.344C47.3628 188.666 47.0504 191.094 46.435 190.943C45.3227 188.988 44.6269 186.844 43.7181 184.799C41.5928 180.009 39.8747 175.058 37.8109 170.263C37.4607 169.449 37.1199 169.714 37.1009 169.671C37.0725 169.6 37.5648 169.207 37.1009 168.133C34.5023 162.145 31.8564 157.284 28.8318 151.59C28.7514 151.434 28.9123 150.913 28.8318 150.762C30.3986 151.77 37.1104 159.717 37.6926 159.977C37.8299 160.039 38.2227 159.94 38.5209 159.977V159.987Z" fill="#004B62"/>
<path id="Vector_6" d="M64.516 151.954C63.664 153.294 62.7078 154.6 61.9174 155.973C61.8843 156.034 61.9505 156.148 61.9174 156.21C61.0417 157.743 60.114 159.097 59.3188 160.701C59.0727 161.194 59.1011 161.378 59.0821 161.411C58.2396 163.144 57.4349 164.819 56.7202 166.609C56.0386 168.313 54.9641 170.604 55.3002 171.101C54.8079 171.493 54.8553 171.181 54.1169 172.402C53.4306 173.538 50.387 181.94 49.3883 184.335C48.8298 185.674 48.063 187.014 47.4997 188.353C46.6856 185.05 47.8926 170.282 47.0264 168.502C48.9339 166.022 51.168 163.963 52.6969 161.411C56.4646 158.103 59.5839 153.848 62.6227 149.834C65.8176 152.574 62.3529 147.278 65.5762 149.597C66.1537 147.936 67.6116 146.653 68.5298 145.342C67.4175 147.68 65.8934 149.782 64.5112 151.959L64.516 151.954Z" fill="#1A79A1"/>
</g>
<path id="Vector_7" d="M80.5851 47.7357C80.746 48.1712 80.9401 49.4208 81.2951 50.3343C81.9199 51.9436 82.4926 54.3245 83.1837 55.5315C83.8085 56.6202 84.5185 57.9502 85.7823 56.9515C86.0663 57.1834 86.4734 57.4106 86.729 57.6615L83.8937 58.2532C84.4475 62.3995 85.1386 66.527 85.7823 70.6592C85.8912 71.3455 85.7586 72.6235 86.2556 73.2578C85.3421 75.0422 86.3266 76.9403 86.019 79.0466L88.6175 77.2764C88.9394 77.3332 87.8081 79.4442 87.6709 79.6383C87.3679 80.0643 86.0521 80.8406 86.019 80.94C85.8817 81.3328 86.0994 83.2261 86.019 84.1302C85.7634 86.9607 85.7918 89.8055 85.5456 92.636C85.432 93.9566 85.4368 95.3387 85.309 96.6546C84.3386 106.514 82.6772 116.34 79.4018 125.722C79.3544 125.783 78.777 125.982 78.2184 126.787C77.0682 128.448 76.6423 131.227 75.1465 132.812C75.0613 132.571 75.4542 132.126 74.4365 131.392C78.5829 123.45 80.9022 117.003 82.7056 108.232C85.4273 95.0026 85.5882 77.3332 83.4156 64.042C82.7198 59.801 82.0808 57.6331 80.817 53.6429C80.8123 53.34 81.5318 52.417 81.527 52.3412C81.4371 50.7272 77.0067 40.8345 77.0351 40.1719C78.3036 42.3965 79.6858 45.3501 80.5804 47.7357H80.5851Z" fill="#37A7D7"/>
<path id="Vector_8" d="M75.1523 132.813C75.3132 133.272 75.5783 133.736 75.6256 134.233C72.8945 136.77 71.0154 141.806 68.5351 145.342C67.6169 146.653 66.159 147.931 65.5815 149.597C62.3581 147.278 65.8229 152.574 62.6279 149.834C64.7485 147.032 67.9955 143.141 69.0084 140.145C69.0936 140.026 69.2735 140.405 70.897 137.901C71.8011 136.505 73.5619 133.092 74.4423 131.402C75.46 132.131 75.0671 132.576 75.1523 132.822V132.813Z" fill="#2892B7"/>
<path id="Vector_9" d="M59.0821 16.5438C63.4415 26.0152 69.803 34.4783 73.4998 44.3094C76.5528 46.0797 76.2924 49.5966 78.2283 52.6969C78.3751 52.9336 78.5407 53.175 78.7017 53.4069C80.4057 59.3425 81.6695 65.3869 83.1936 71.3651C82.5215 72.4585 83.0705 73.6276 81.7736 74.2004C81.3003 72.0088 81.2246 69.6374 80.5903 67.4648C80.543 67.2992 79.9324 66.9252 79.8803 66.7548C79.0993 64.1941 77.7692 58.3674 76.0984 57.7757C75.2558 54.9073 72.7614 51.7692 71.8431 49.7386C70.2338 46.1744 65.9927 32.4809 63.6923 30.242C63.6734 30.2231 63.4225 30.6349 63.219 30.4787C62.8829 30.2184 62.2013 29.3474 62.0357 29.2954C60.8902 28.9546 60.6441 29.745 60.4973 29.7687C59.4702 29.9391 58.4052 30.1048 57.4254 30.4787C56.8385 29.7782 58.1875 30.4219 59.314 28.4718C58.7129 27.6387 58.0076 28.5096 57.4254 28.3534L57.1888 25.7548C59.4323 24.9502 53.8044 22.4226 51.3999 21.9729C48.2901 21.3954 47.3529 23.5728 47.7363 18.6643C47.954 18.3141 48.3895 17.1733 49.1563 17.0124C49.6438 16.9083 56.8906 17.5094 59.0821 16.5391V16.5438Z" fill="#391B15"/>
<path id="Vector_10" d="M80.8221 53.6433C82.0859 57.6288 82.7296 59.8014 83.4207 64.0424L83.184 64.5158C83.0041 63.3608 82.1521 58.7032 82.0007 58.2536C81.8965 57.9317 81.338 57.908 81.2907 57.7802C81.1866 57.5057 80.8836 55.2952 80.8174 55.1816C80.7511 55.0633 79.0329 53.8989 78.6921 53.4114C78.5312 53.1794 78.3655 52.938 78.2188 52.7014C74.1197 39.699 66.9251 28.0029 60.9658 15.8336C59.3754 12.5818 58.2252 11.2422 57.6572 7.56445C65.7323 19.4356 76.5763 40.2575 80.8174 53.648L80.8221 53.6433Z" fill="#CE8708"/>
<path id="Vector_11" d="M60.9707 15.8323C66.9252 28.0017 74.1246 39.693 78.2236 52.7001C76.2877 49.5998 76.548 46.083 73.495 44.3127C69.7983 34.4816 63.4415 26.0184 59.0774 16.547C58.6608 14.9188 57.1604 13.6408 58.249 12.0551C58.9117 11.7664 60.024 16.0074 60.966 15.837L60.9707 15.8323Z" fill="#4E370C"/>
<path id="Vector_12" d="M44.9015 17.0155L46.3215 18.1989C46.2079 18.871 46.4162 19.8413 46.3215 20.5608C46.1275 22.0139 46.8706 21.356 43.723 21.9808C40.7126 22.5772 37.8726 22.6719 35.2172 24.5794C35.1272 21.4317 35.2834 18.2746 35.2172 15.127C37.5507 16.5327 42.7621 19.1219 44.9063 17.0155H44.9015Z" fill="#391B15"/>
<path id="Vector_13" d="M49.1562 17.0158C48.3941 17.1767 47.9539 18.3222 47.7362 18.6677C46.7564 20.2486 47.1161 20.7598 46.3162 20.5563C46.4108 19.8368 46.2026 18.8665 46.3162 18.1944C46.354 17.9814 47.3149 18.928 47.0262 14.1758L49.1514 17.011L49.1562 17.0158Z" fill="#878F9A"/>
<path id="Vector_14" d="M47.0304 14.1766C47.3238 18.9289 46.3583 17.9775 46.3204 18.1952L44.9004 17.0119C45.0282 16.8888 46.3251 14.1198 47.0257 14.1766H47.0304Z" fill="#CACFD4"/>
<path id="Vector_15" d="M8.50689 74.2041C8.51162 74.7153 8.39329 75.1744 8.74356 75.1508C8.44536 77.1956 9.04175 88.1201 9.21689 91.2204C9.56242 97.3548 9.70916 100.446 10.8688 106.58C11.1907 108.284 11.0582 110.381 12.2888 111.896C15.3986 130.45 27.9703 145.086 38.5209 159.986C38.2227 159.948 37.8298 160.048 37.6925 159.986C37.1103 159.726 30.3985 151.778 28.8318 150.77C28.7513 150.619 28.6898 150.472 28.5951 150.297C27.994 149.189 27.3218 147.4 26.2332 147.462V147.225C26.1243 146.827 26.5266 146.723 26.4698 146.397C26.1858 144.745 18.3711 133.101 16.7807 130.209C16.1701 129.096 15.3087 126.886 14.4188 126.427C12.1515 120.52 10.3576 114.456 9.22163 108.232C8.64889 105.108 8.35069 101.828 8.0383 98.6612C8.02883 98.5523 7.59336 98.3677 7.56496 98.0695C7.56496 98.0411 8.0525 97.8754 8.0383 97.7145C7.8963 95.9064 7.38983 93.9562 7.3283 92.1623C7.29043 91.0926 7.32356 88.7212 7.3283 87.4337C7.33303 86.2409 7.16737 79.4297 7.3283 79.0463C7.40876 78.8522 8.10456 79.0368 8.27496 78.573C8.35543 78.3505 7.40403 74.171 8.51163 74.1994L8.50689 74.2041Z" fill="#116B93"/>
<path id="Vector_16" d="M7.32779 92.1617C7.38932 93.9603 7.89105 95.9057 8.03778 97.7139C8.05198 97.8748 7.56445 98.0405 7.56445 98.0689C6.42846 97.9553 5.33979 97.463 4.25586 97.1222C6.41899 95.1058 2.2584 90.7417 7.32779 92.1617Z" fill="#233F52"/>
<g id="Group_3">
<path id="Vector_17" d="M5.19719 74.9136C3.67306 80.3901 6.17698 84.2762 3.30859 86.1411L7.32718 87.4427C7.32245 88.7255 7.28932 91.0969 7.32718 92.1713C2.2578 90.7513 6.41838 95.1202 4.25526 97.1319C4.05646 97.0703 3.98072 96.9615 3.78192 96.8952C2.68379 96.5355 0.227199 96.3414 0 95.3569C0.336066 90.8697 2.21046 91.3241 2.36193 91.1016C3.29439 89.7668 2.43766 86.1316 2.59859 84.7211C2.71693 83.6703 5.03625 76.4567 2.95359 78.9322C1.96433 77.6874 3.67779 76.4567 2.83526 75.6236C2.84946 75.4674 2.83526 75.3065 2.83526 75.1503C3.77246 75.3207 3.01039 73.6073 3.42693 73.2617C5.68945 73.4227 5.00786 73.948 5.19719 74.9136Z" fill="#8FACC2"/>
<path id="Vector_18" d="M3.66352 93.582C4.40191 94.5524 4.79951 94.7133 4.37351 96.1806C4.30725 94.8174 3.06238 95.0778 3.66352 93.582Z" fill="#34576C"/>
<path id="Vector_19" d="M3.90081 91.9258C4.83801 92.8346 3.62155 93.5067 3.78248 92.0441L3.90081 91.9258Z" fill="#34576C"/>
</g>
<g id="Group_4">
<path id="Vector_20" d="M57.1883 2.83526H36.6268C36.6362 2.70746 35.9073 0.605865 36.7451 0.236666C37.3462 -0.0283999 43.5327 0.487532 45.1325 0.236666C45.5349 2.83052 47.84 3.94285 47.9678 0C50.5948 0.582198 56.9232 -0.0331332 57.3019 0.236666C57.78 0.577465 57.1741 2.70746 57.1836 2.83526H57.1883Z" fill="#37A7D7"/>
<path id="Vector_21" d="M57.188 2.83594C57.2259 3.4986 57.3773 4.25593 57.4247 4.9612C57.2259 4.947 56.9797 4.98486 56.9513 4.9612C55.6165 3.74947 52.9895 4.28433 51.0442 4.2512C51.0442 4.08553 51.1057 3.8394 50.9258 3.77787C49.7188 3.3566 40.2191 3.94353 38.2831 4.2512C37.6725 4.34587 37.0051 4.3222 36.3945 4.48786C36.4655 4.01453 36.6028 3.27614 36.6312 2.83594H57.1927H57.188Z" fill="#63423D"/>
<path id="Vector_22" d="M38.2831 4.2497C42.5336 4.30177 46.7936 4.1787 51.0441 4.2497C52.9895 4.28284 55.6165 3.74797 56.9513 4.9597V5.19637H36.3897C36.4418 5.01177 36.3566 4.71357 36.3897 4.48637C37.0003 4.3207 37.6725 4.3491 38.2783 4.2497H38.2831Z" fill="#3E3740"/>
<g id="Group_5">
<path id="Vector_23" d="M57.424 4.96094C57.4855 5.9076 57.6559 6.08273 57.6606 6.14427C57.6701 6.22947 57.4666 6.3194 57.6606 7.56426C58.2286 11.2421 59.3788 12.5816 60.9692 15.8334C60.0273 16.0085 58.9102 11.7627 58.2523 12.0515C57.1589 13.6371 58.6641 14.9104 59.0806 16.5434C56.8891 17.5137 49.6424 16.9126 49.1548 17.0167L47.0296 14.1814C46.3243 14.1294 45.0274 16.8936 44.9043 17.0167C42.7601 19.123 37.5487 16.5339 35.2152 15.1281C35.1584 15.095 34.6472 14.3518 34.2686 14.1814C35.0164 12.0799 35.6317 10.0303 35.9205 7.80093C35.9441 7.60686 36.5027 7.072 35.9205 6.149C36.1429 5.74667 36.2376 5.74194 36.3938 5.20234H37.1038L36.9855 5.67567C43.5837 6.50873 50.2388 5.5526 56.837 5.91234L56.9554 5.20234V4.96567C56.9838 4.98934 57.2299 4.95147 57.4287 4.96567L57.424 4.96094Z" fill="url(#paint0_linear_460_5846)"/>
<path id="Vector_24" d="M56.9513 5.19727L56.833 5.90726C50.2347 5.54753 43.5797 6.50366 36.9814 5.6706L37.0998 5.19727H56.9513Z" fill="#0C2431"/>
</g>
<path id="Vector_25" d="M51.0442 4.25123C46.7937 4.18023 42.5337 4.30329 38.2832 4.25123C40.2191 3.94356 49.7189 3.35663 50.9259 3.77789C51.1058 3.83943 51.0442 4.08556 51.0442 4.25123Z" fill="#6A5254"/>
</g>
<path id="Vector_26" d="M9.92694 124.539C9.62874 126.764 11.4274 123.715 10.4003 123.829C10.7979 123.502 10.7269 123.166 11.5836 123.356C11.8865 123.966 13.4864 123.729 12.5303 125.717C12.1185 125.391 12.2084 123.493 11.1103 125.126C12.6817 124.984 10.3908 125.798 12.7622 128.789C11.9102 129.244 10.5991 126.101 10.0453 125.954C9.22167 125.736 8.05255 126.839 7.80168 126.901C5.92255 127.35 5.76635 125.912 6.14975 125.362C6.46688 124.913 8.45014 126.352 6.38641 121.936C7.35201 123.18 8.32708 125.372 9.93167 124.534L9.92694 124.539Z" fill="#66889D"/>
<path id="Vector_27" d="M62.6271 149.823C59.5883 153.841 56.4691 158.097 52.7014 161.4C53.0942 160.743 53.5344 160.132 54.1213 159.63C53.0327 158.745 52.7061 160.037 51.9961 158.329C56.4833 153.169 59.9575 147.172 64.7571 142.259C64.7903 144.024 65.5428 143.565 64.7571 144.739C64.9181 146.505 67.0812 142.803 69.0124 140.129C67.9995 143.125 64.7524 147.016 62.6319 149.818L62.6271 149.823Z" fill="#9C524B"/>
<path id="Vector_28" d="M82.7154 108.232C83.7898 99.3997 84.4667 90.397 83.4254 81.5267C83.1224 78.9376 82.313 76.6987 81.7734 74.1995C83.0704 73.6268 82.5166 72.4577 83.1934 71.3643C84.0738 74.8243 84.1874 74.2421 83.9034 70.0626C83.8514 69.3242 83.3544 65.5376 83.1934 64.5104L83.4301 64.0371C85.6074 77.3283 85.4465 94.9978 82.7201 108.227L82.7154 108.232Z" fill="#49210E"/>
<path id="Vector_29" d="M15.3609 69.4748C15.3609 72.2675 15.9952 72.0403 16.5443 73.73C16.5869 73.8578 16.5443 74.7524 17.2543 76.3286H16.7809L14.6557 82.5908C14.5515 83.3434 14.9065 83.5138 14.8923 83.6558C14.7693 84.8959 14.2628 93.4443 14.419 93.9366C14.5231 94.2632 15.271 94.3247 15.6023 94.7649C15.5235 97.2073 15.4446 99.6497 15.3657 102.092C15.3657 102.092 15.4414 102.149 15.129 102.329C14.4285 102.731 13.9788 102.599 15.129 106.229C15.2284 106.546 15.7917 106.579 15.839 106.702C15.8532 106.74 15.3515 107.143 15.3657 107.176C16.7573 110.125 20.0233 110.309 22.9295 110.603C26.4511 110.958 30.0342 110.896 33.5653 110.839C33.0068 112.695 33.0304 113.211 34.9853 112.965C34.9237 113.49 34.9332 114.55 34.9853 115.09C35.2787 118.114 37.475 120.386 40.1825 121.47C39.1175 122.232 38.8713 122.228 38.7625 123.596C35.6195 121.361 35.5296 119.284 34.0339 120.287C33.2766 119.733 31.3643 117.731 31.1986 116.978C30.9809 115.989 32.7322 114.252 32.027 112.96C28.1977 112.486 19.5263 113.708 16.904 112.96C12.0997 111.592 15.3136 103.82 12.6488 104.454C12.0192 105.287 10.7318 105.713 10.8785 106.579C9.71883 100.445 9.56736 97.354 9.22656 91.2197C15.1716 90.7463 9.85136 74.601 15.3704 68.7695V69.4795L15.3609 69.4748Z" fill="#6F3330"/>
<g id="Group_6">
<path id="Vector_30" d="M34.2638 14.1754C33.0804 17.4888 31.012 21.3086 29.5352 24.5745C29.2275 23.5711 31.7835 19.8933 31.0735 19.3774C29.6914 19.9028 27.2821 26.3448 26.9366 26.5862C26.5343 26.8607 26.8325 25.7484 26.4633 26.1129C25.2421 27.3199 14.043 51.9189 13.4656 56.0085C12.4526 56.5434 12.5094 57.703 12.2822 54.8252C13.3567 51.1474 14.8666 47.2803 16.3008 43.7161C17.8013 40.256 19.6094 36.7202 21.2613 33.317C24.3191 27.3057 27.6229 21.2234 30.9504 15.3588C32.4414 12.7318 33.8141 10.0054 35.911 7.79492C35.6222 10.0243 35.0069 12.0738 34.259 14.1754H34.2638Z" fill="#E9B205"/>
<path id="Vector_31" d="M12.2876 54.8259C10.7919 59.9426 8.6666 69.3335 8.979 74.4408C8.88907 74.9141 8.76127 75.0182 8.74233 75.1508C8.39207 75.1744 8.51514 74.7153 8.50567 74.2041C8.48674 72.7273 8.57667 71.4114 8.74233 69.9489C9.79787 60.7331 12.6521 52.1516 16.3062 43.7168C14.872 47.2763 13.3621 51.1434 12.2876 54.8259Z" fill="#527E69"/>
<path id="Vector_32" d="M21.2715 33.3176C24.2298 27.2353 27.0556 20.9684 30.9606 15.3594C27.6331 21.224 24.3292 27.3063 21.2715 33.3176Z" fill="#507256"/>
<path id="Vector_33" d="M16.3057 43.7155C17.8014 39.9999 19.4723 36.8522 21.2662 33.3164C19.6143 36.7197 17.8014 40.2555 16.3057 43.7155Z" fill="#527E69"/>
<path id="Vector_34" d="M29.5402 24.575C26.2174 31.9447 22.2603 38.9832 18.9044 46.3151C17.0253 47.7635 14.635 55.6066 14.1758 56.1225C13.977 56.3497 13.8114 55.8243 13.4658 56.0042C14.0433 51.9146 25.2423 27.3156 26.4635 26.1086C26.8327 25.7441 26.5345 26.8564 26.9369 26.5819C27.2824 26.3452 29.6916 19.8984 31.0738 19.373C31.7885 19.889 29.2325 23.5715 29.5354 24.5702L29.5402 24.575Z" fill="#E9B205"/>
<path id="Vector_35" d="M18.9049 46.3145C17.466 49.4621 15.8424 52.6382 14.6496 55.8852C13.9207 57.8685 9.1874 73.3322 8.97913 74.4351C8.66673 69.3279 10.792 59.9369 12.2877 54.8202C12.5149 57.6934 12.4581 56.5384 13.4711 56.0036C13.8119 55.8237 13.9775 56.3491 14.181 56.1219C14.6354 55.606 17.0305 47.7628 18.9096 46.3145H18.9049Z" fill="#E9B205"/>
</g>
<path id="Vector_36" d="M42.3021 45.137C42.25 45.1796 41.3933 46.0268 41.3554 46.0836C39.2917 46.2682 37.2516 46.6895 35.2115 47.0303C34.6057 44.9334 35.5902 44.6826 35.9215 43.0117C38.0373 43.7312 40.3235 44.0436 42.3021 45.137Z" fill="#34576C"/>
<path id="Vector_37" d="M33.797 42.0646C33.8254 42.0836 33.8301 42.6658 34.0337 42.7746C34.5449 43.0444 34.8336 42.6374 35.9222 43.0113C35.5909 44.6822 34.6064 44.9283 35.2122 47.0299C35.056 47.0536 34.9945 47.1908 34.5022 47.2666C33.4656 45.165 33.4325 46.779 31.667 47.5032L32.8503 41.3594C33.2053 41.5487 33.4609 41.8374 33.797 42.0694V42.0646Z" fill="#E9B205"/>
<path id="Vector_38" d="M36.1592 34.0273C36.1686 34.1835 36.1686 34.3445 36.1592 34.5007C36.1024 35.3669 34.441 40.3605 33.7972 41.3545C33.6221 40.9806 32.9263 39.3145 32.8506 39.2293C34.4268 38.4767 34.5924 34.7894 36.1592 34.0321V34.0273Z" fill="#E9B205"/>
<g id="Group_7">
<path id="Vector_39" d="M35.2121 15.1221C35.2784 18.2698 35.1222 21.4269 35.2121 24.5746C35.2311 25.1663 34.7341 25.1331 35.2121 26.2265C35.6145 27.159 35.7659 26.4632 36.6321 26.5815C35.7896 27.1874 35.34 28.0346 34.7436 28.8251C34.7341 28.8393 34.6868 28.792 34.5069 29.0618C34.4596 29.1328 33.5697 29.5777 33.5602 30.1268C36.1541 29.8948 35.1269 30.0747 35.6855 32.1337C35.8511 32.7396 36.1209 33.459 36.1588 34.0223C34.5921 34.7796 34.4264 38.4716 32.8502 39.2195C32.8171 39.1769 32.2822 38.8834 32.0219 38.5095C25.4331 39.0727 29.8304 39.7307 32.8502 41.3447L31.6669 47.4886C31.9036 47.9951 34.0998 47.3135 34.5022 47.2519C34.9897 47.1762 35.0559 47.0389 35.2121 47.0153C37.2522 46.6792 39.297 46.2532 41.356 46.0686C40.9584 46.7313 40.7312 47.4223 40.8827 48.1938H40.646C40.4141 46.8259 39.2591 49.06 38.7574 49.6138C37.2995 51.1995 36.1257 52.3402 36.1588 54.811C36.1872 57.0594 37.1291 57.2866 37.5788 57.8829C39.2828 60.1502 41.0057 60.8271 43.7227 61.4282C47.0312 62.1619 48.4607 60.2212 47.0312 65.4468C43.2446 66.0385 21.0169 64.8883 18.5556 65.4468C17.4527 65.6977 15.8197 67.7377 15.3653 68.7554C9.8463 74.5868 15.1665 90.7322 9.2215 91.2055C9.04637 88.1052 8.44997 77.1807 8.74817 75.1359C8.7671 75.0034 8.8949 74.904 8.98483 74.4259C9.1931 73.323 13.9264 57.8593 14.6553 55.876C15.8481 52.629 17.4717 49.4529 18.9106 46.3053C22.2665 38.9686 26.2188 31.9349 29.5464 24.5651C31.0184 21.2991 33.0916 17.4841 34.275 14.166C34.6489 14.3364 35.1648 15.0748 35.2216 15.1127L35.2121 15.1221Z" fill="#9C524B"/>
<path id="Vector_40" d="M33.6788 56.9512L38.289 62.2667C38.2701 63.1708 29.3336 63.1708 29.0732 62.2667L33.6835 56.9512H33.6788Z" fill="#282C31"/>
<path id="Vector_41" d="M23.1613 52.4638C23.2749 54.2578 25.8451 54.3382 26.4699 52.9372C27.9325 53.2827 27.1894 56.1795 26.3516 56.4824C25.7978 56.6812 22.2667 56.3357 20.9177 56.4824C20.6905 56.3641 22.6407 51.7491 23.1613 52.4638Z" fill="#391B15"/>
<path id="Vector_42" d="M26.4697 52.9324C25.8449 54.3335 23.2747 54.2577 23.1611 52.4591C22.9954 49.8463 27.1465 49.851 26.4697 52.9324Z" fill="#FBFBFC"/>
<path id="Vector_43" d="M32.8497 39.2295C32.9254 39.3195 33.6212 40.9856 33.7964 41.3548C34.0141 41.8139 34.0141 42.0175 34.033 42.0648H33.7964C33.465 41.8329 33.2047 41.5441 32.8497 41.3548C29.8298 39.7407 25.4326 39.0828 32.0214 38.5195C32.2817 38.8935 32.8118 39.1869 32.8497 39.2295Z" fill="#34576C"/>
</g>
<path id="Vector_44" d="M34.5022 47.2616C34.0999 47.3231 31.9037 48.0047 31.667 47.4983C33.4325 46.7788 33.4656 45.16 34.5022 47.2616Z" fill="#50596F"/>
<path id="Vector_45" d="M81.7686 74.2031C82.3082 76.7022 83.1176 78.9364 83.4205 81.5302C81.4704 82.4816 82.5875 81.5444 82.4739 81.1752C81.2527 77.185 81.1343 73.2943 80.1119 69.7159C79.8847 68.9207 77.3714 62.6822 77.04 62.0337C76.7608 61.4894 74.555 59.3972 71.1328 51.3979C71.0287 51.1565 70.527 51.4027 70.4228 51.1613C70.3708 51.0429 70.8299 50.0915 70.1862 48.5627C69.4714 46.8539 67.5308 41.5858 67.3509 41.2355C67.1853 40.9136 65.7463 40.0285 65.699 39.9338C65.4955 39.5268 65.4481 39.1718 65.2257 38.7505C63.6258 35.707 62.4472 32.5309 60.4971 29.7714C60.6438 29.7477 60.8899 28.9573 62.0354 29.2981C62.2011 29.3454 62.8827 30.2211 63.2187 30.4814C63.4223 30.6376 63.6731 30.2258 63.6921 30.2447C65.9925 32.4836 70.2335 46.1771 71.8428 49.7413C72.7611 51.7719 75.2556 54.91 76.0981 57.7784C77.7689 58.3701 79.099 64.1968 79.88 66.7575C79.9321 66.9279 80.538 67.3019 80.59 67.4675C81.2243 69.6401 81.3 72.0115 81.7733 74.2031H81.7686Z" fill="#6F3330"/>
<path id="Vector_46" d="M60.4973 29.7773C62.4474 32.5369 63.6213 35.7129 65.2259 38.7565C64.2271 38.6192 63.3609 38.8369 62.3906 38.9931C61.9835 39.0594 61.0085 38.8322 60.7387 39.1114C61.212 40.0297 61.1315 41.0758 61.922 40.4131C61.0037 41.1278 62.1871 42.5526 61.4487 43.485C60.289 37.7246 59.1814 37.8429 57.6667 33.7959C57.3212 32.8729 56.3083 30.6009 57.4301 30.4873C58.4099 30.1134 59.4749 29.9477 60.502 29.7773H60.4973Z" fill="#9C524B"/>
<path id="Vector_47" d="M83.1843 64.5145C83.3452 65.5417 83.8422 69.333 83.8943 70.0667C84.183 74.2415 84.0647 74.8237 83.1843 71.3684C81.6602 65.3902 80.4011 59.341 78.6924 53.4102C79.0379 53.9024 80.7514 55.0621 80.8176 55.1804C80.8839 55.294 81.1868 57.5045 81.291 57.779C81.3383 57.9068 81.8921 57.9305 82.001 58.2523C82.1477 58.702 82.9997 63.3596 83.1843 64.5145Z" fill="#B58607"/>
<path id="Vector_48" d="M9.21626 108.231C10.357 114.456 12.1462 120.519 14.4134 126.426C13.6892 126.412 13.0928 126.171 12.5248 125.716C13.481 123.724 11.8811 123.965 11.5782 123.354C10.6789 121.532 8.25066 110.191 8.74292 107.521C8.79026 107.711 8.66246 108.071 9.21626 108.231Z" fill="#4D7086"/>
<path id="Vector_49" d="M26.2324 147.225C22.3559 142.127 19.6721 136.111 15.5967 131.156C16.4487 130.659 16.7563 131.336 16.78 130.209C18.3704 133.101 26.1851 144.745 26.4691 146.397C26.5259 146.724 26.1236 146.823 26.2324 147.225Z" fill="#004B62"/>
<path id="Vector_50" d="M9.92642 124.537C9.96429 124.518 10.0495 124.116 10.3998 123.827C11.4269 123.714 9.62822 126.762 9.92642 124.537Z" fill="#8FACC2"/>
<path id="Vector_51" d="M47.736 145.337C48.1573 146.369 47.8496 147.088 47.9727 147.462H44.6641C44.7871 147.116 44.6641 145.758 45.1374 145.1C45.8001 145.294 46.032 144.859 46.0841 144.863C46.2355 144.873 47.2958 145.185 47.736 145.337Z" fill="#99B5D7"/>
<path id="Vector_52" d="M45.3742 137.062C45.4547 138.407 45.6535 140.371 44.9009 141.318C44.4465 140.986 44.0347 140.499 43.7176 141.318C43.0597 139.973 44.2099 138.175 45.3695 137.062H45.3742Z" fill="#B6950E"/>
<g id="Group_8">
<path id="Vector_53" d="M31.1929 116.978C27.7281 116.566 32.2105 120.04 33.0815 121.233V121.47C32.8069 121.669 32.1064 123.155 31.8981 123.595C29.3185 129.072 30.9467 128.537 32.7265 128.556C41.8476 128.655 38.4869 127.022 38.752 123.595C38.8609 122.223 39.1023 122.232 40.172 121.47C44.7444 123.297 51.0397 123.117 55.0583 120.05C55.5505 119.799 55.7872 119.667 56.2416 119.34C57.1646 120.362 57.8651 119.714 57.4249 120.76C57.0557 120.93 53.7897 123.59 53.643 123.832C53.0277 124.84 52.9188 125.948 53.4063 127.259C50.8977 125.839 51.1533 127.6 50.0977 128.797C49.9084 128.797 49.6244 128.172 49.6244 128.087C49.6244 127.973 50.1214 126.819 49.8611 125.844C49.2789 123.647 45.6674 122.975 43.9539 125.489C41.9896 128.366 44.8059 130.946 44.9006 131.396C44.9621 131.684 45.0331 134.761 45.1372 136.124C45.194 136.867 45.3692 136.967 45.3739 137.071C44.2142 138.179 43.064 139.977 43.722 141.326C44.2568 142.424 46.1549 143.551 46.0839 144.871C46.0366 144.871 45.7999 145.302 45.1372 145.108C43.5752 144.654 38.4112 138.709 37.6917 138.254C37.5829 138.188 37.0717 138.188 37.1001 138.491C36.2623 137.577 35.1594 136.773 34.2648 135.892C32.7927 134.444 31.0603 132.073 31.1929 133.294C30.8757 132.745 30.0947 131.306 29.7729 131.755C29.7397 133.696 27.624 140.361 27.8843 141.445C27.9316 141.648 29.9007 143.414 30.7195 144.516C32.3667 146.741 43.1303 161.542 44.3089 161.888C48.4932 163.104 49.8374 160.813 51.9911 158.342C52.7011 160.046 53.0277 158.754 54.1163 159.644C53.5294 160.146 53.0939 160.761 52.6964 161.414C51.1675 163.961 48.9334 166.025 47.0258 168.505C46.7608 167.965 42.1694 164.448 38.5201 159.999C27.9695 145.099 15.3978 130.463 12.288 111.909C11.0621 110.389 11.1899 108.292 10.868 106.593C10.7213 105.722 12.0087 105.301 12.6383 104.468C15.2984 103.838 12.0892 111.61 16.8935 112.974C19.5158 113.721 28.1872 112.5 32.0165 112.974C32.7217 114.261 30.9704 116.003 31.1881 116.992L31.1929 116.978Z" fill="#92403B"/>
<path id="Vector_54" d="M31.1935 116.979C31.3592 117.732 33.2714 119.729 34.0288 120.288C33.972 120.325 33.5365 121.121 33.0821 121.234C32.2112 120.046 27.724 116.567 31.1935 116.979Z" fill="#9F8F0D"/>
<path id="Vector_55" d="M23.9892 120.756C28.3912 121.404 22.5692 126.507 23.1609 121.348L23.9892 120.756Z" fill="#0C2431"/>
<path id="Vector_56" d="M44.9003 141.316C45.047 141.425 46.4859 142.651 46.5522 142.736C46.6563 142.869 47.6929 144.526 47.7355 144.625C47.8018 144.791 47.6693 145.174 47.7355 145.335C47.2906 145.184 46.2351 144.876 46.0836 144.862C46.1546 143.541 44.2565 142.415 43.7217 141.316C44.0341 140.498 44.4506 140.985 44.905 141.316H44.9003Z" fill="#F6F3E2"/>
<path id="Vector_57" d="M34.2645 135.882C34.0657 135.91 33.1238 136.767 33.0812 136.829C33.8953 135.693 32.5558 136.152 31.6612 134.822C31.4056 134.438 31.5002 133.823 31.1878 133.283C31.0553 132.062 32.7877 134.434 34.2598 135.882H34.2645Z" fill="#49210E"/>
</g>
<path id="Vector_58" d="M65.6988 39.9352C65.7461 40.0299 67.1898 40.915 67.3507 41.2369C67.5306 41.5871 69.4713 46.8553 70.186 48.5641C70.8297 50.0929 70.3706 51.0443 70.4227 51.1627C70.5268 51.4041 71.0285 51.1579 71.1327 51.3993C74.5548 59.3986 76.7606 61.4908 77.0398 62.0351C77.3712 62.6836 79.8846 68.9221 80.1118 69.7173C78.9048 69.2771 78.7012 68.6333 78.2232 70.1906C78.2421 68.9079 77.712 68.018 77.2765 66.882C77.1298 66.5033 74.3986 61.4482 73.4946 59.6732C73.2437 59.1809 71.7432 58.736 71.3693 54.476L70.6593 54.5943C70.8345 52.4738 69.7789 52.3507 69.7127 52.2324C69.6464 52.114 70.115 51.2053 68.411 50.3438C66.0822 50.2302 66.2573 52.062 66.1674 52.2324C66.1485 52.2702 65.5994 52.6394 65.4574 52.7057C66.0538 51.4183 66.8585 49.5959 65.9307 49.9888C67.0857 48.8623 65.5379 48.0434 65.4574 47.6269C65.003 45.2697 65.2539 42.7373 64.5107 40.418C64.5723 40.4086 64.9083 39.8216 65.6941 39.9447L65.6988 39.9352Z" fill="#92403B"/>
<g id="Group_9">
<g id="Group_10">
<path id="Vector_59" d="M38.7572 123.596C38.4921 127.028 41.8528 128.656 32.7317 128.557C30.9519 128.538 29.3237 129.073 31.9033 123.596C32.5234 124.761 36.8922 123.331 36.8638 123.005C35.4675 122.328 34.7244 120.273 33.0819 121.466V121.23C33.5316 121.116 33.9718 120.321 34.0286 120.283C35.5196 119.279 35.6095 121.357 38.7572 123.591V123.596Z" fill="#282C31"/>
<path id="Vector_60" d="M31.9033 123.596C32.1116 123.156 32.8074 121.67 33.0867 121.471C34.7291 120.273 35.4722 122.328 36.8686 123.009C36.8922 123.336 32.5281 124.765 31.9081 123.601L31.9033 123.596Z" fill="#0C2431"/>
</g>
<g id="Group_11">
<path id="Vector_61" d="M61.9159 125.721C60.458 124.694 55.8289 124.945 53.6468 125.248C53.6468 125.177 53.4527 124.893 53.6468 123.828C53.7935 123.586 57.0548 120.926 57.4287 120.756C58.3707 119.142 61.5704 124.363 61.9206 125.716L61.9159 125.721Z" fill="#373B43"/>
<path id="Vector_62" d="M61.9156 125.721C62.0623 126.285 62.4315 128.159 62.0339 128.32C54.1246 128.121 53.7459 130.81 53.6465 125.248C55.8333 124.945 60.4625 124.694 61.9156 125.721Z" fill="#212F33"/>
</g>
</g>
<path id="Vector_63" d="M72.0789 107.996C71.989 108.971 73.4232 108.024 73.9675 108.824C68.7845 113.652 65.3103 111.911 58.8445 112.725C58.8161 112.521 58.4848 111.873 58.3712 111.541C58.3523 111.466 58.3949 111.376 58.3712 111.305C60.6006 110.292 66.8344 111.196 67.942 110.831C68.4106 110.675 69.1585 109.018 69.2437 108.943C70.64 107.641 70.5122 108.143 72.0789 107.996Z" fill="#9C524B"/>
<g id="Group_12">
<path id="Vector_64" d="M80.1111 69.7124C81.1383 73.2908 81.2566 77.1815 82.4731 81.1717C82.5867 81.5409 81.4696 82.4781 83.4197 81.5267C84.4658 90.397 83.7842 99.3997 82.7097 108.232C80.9063 116.998 78.587 123.445 74.4406 131.392C73.5602 133.082 71.7994 136.495 70.8954 137.891C69.2671 140.395 69.092 140.016 69.0068 140.135C67.0756 142.809 64.9125 146.51 64.7515 144.745C65.5373 143.571 64.7847 144.025 64.7515 142.265C64.7421 141.711 65.3385 141.758 65.2249 140.258C65.1302 139.06 63.6629 133.3 63.2179 131.16C62.6405 132.154 57.5663 136.111 57.4291 136.476C57.2823 136.869 57.6279 137.082 57.6657 137.304C57.5427 137.342 57.2113 137.522 57.1924 137.541L56.8374 137.068L47.74 144.631C47.6974 144.527 46.6655 142.871 46.5566 142.743C46.8738 142.184 47.2856 141.133 47.5033 140.854C49.586 138.118 50.1019 140.731 46.7933 135.42C46.7933 135.255 47.224 132.273 47.2666 132.112C47.7447 130.356 47.8867 131.406 48.5683 130.692C49.8084 129.39 50.0262 128.893 50.1066 128.803C51.1622 127.606 50.9066 125.845 53.4152 127.265C52.9277 125.954 53.0366 124.846 53.6519 123.838C53.4578 124.898 53.6519 125.187 53.6519 125.258C53.756 130.82 54.1347 128.131 62.0393 128.33C62.4369 128.169 62.0677 126.294 61.921 125.731C61.5755 124.377 58.371 119.157 57.4291 120.771C57.874 119.725 57.1687 120.373 56.2458 119.351C57.8456 118.205 58.6266 117.088 58.8443 115.095C58.9011 114.561 58.9106 113.245 58.8443 112.734C65.3101 111.919 68.7843 113.666 73.9673 108.833C73.423 108.033 71.984 108.98 72.0787 108.005C72.8171 107.939 73.7496 108.459 74.3223 108.242C74.5874 108.142 75.4062 106.405 75.6239 106.116C75.8748 105.78 77.2617 104.01 77.2759 103.873C77.2806 103.825 76.8736 103.399 76.8026 103.044C77.3374 102.784 79.0225 101.923 79.1645 101.506C79.3017 101.113 78.6864 94.1079 77.9811 93.8239C78.1752 93.3411 78.1421 93.2275 78.2178 92.8772C78.8615 89.9189 78.1421 86.7807 78.2178 83.7798C78.2178 83.6757 79.013 83.2686 79.1645 81.8912C79.2307 81.2995 78.4024 75.2314 78.2178 73.7404C78.1894 73.5085 78.2509 73.2624 78.2178 73.0304C78.1989 72.8837 77.8439 72.5524 77.9811 71.6104C78.0427 71.3264 78.2131 70.3608 78.2178 70.1904C78.7006 68.6332 78.9041 69.2816 80.1064 69.7171L80.1111 69.7124Z" fill="#9C524B"/>
<g id="Group_13">
<path id="Vector_65" d="M47.4985 140.846C47.1672 139.156 46.7507 137.121 46.7885 135.412C50.0971 140.728 49.5812 138.11 47.4985 140.846Z" fill="#E6C31A"/>
<path id="Vector_66" d="M59.4354 116.506L63.099 117.571C62.5878 120.397 57.8781 117.036 59.4354 116.506Z" fill="#C0BA20"/>
<path id="Vector_67" d="M68.4153 121.23H70.3039C71.1843 124.203 67.781 123.981 68.4153 121.23Z" fill="#0D353E"/>
<path id="Vector_68" d="M77.157 110.832L77.9854 111.424C77.0292 113.525 76.4754 110.917 77.157 110.832Z" fill="#E6CCCE"/>
<path id="Vector_69" d="M78.2233 73.7315H77.75C77.7879 73.6415 77.6364 73.1872 78.2233 73.0215C78.2565 73.2487 78.1949 73.4995 78.2233 73.7315Z" fill="#E39D84"/>
</g>
</g>
<path id="Vector_70" d="M15.1239 102.325C17.732 109.141 17.5426 109.378 25.0497 108.824L22.9244 110.594C20.0182 110.301 16.7569 110.116 15.3606 107.167C15.3464 107.134 15.8481 106.732 15.8339 106.694C15.7866 106.571 15.228 106.538 15.1239 106.221C13.9737 102.59 14.4234 102.723 15.1239 102.32V102.325Z" fill="#6F3330"/>
<path id="Vector_71" d="M35.4482 111.067C35.4056 111.176 34.9891 112.861 34.9749 112.956C33.02 113.197 33.0011 112.681 33.5549 110.831C34.0377 110.821 34.6199 110.239 35.4435 111.067H35.4482Z" fill="#4E2120"/>
<path id="Vector_72" d="M57.1881 43.7164C55.2711 44.0098 53.3683 44.2938 51.5176 44.8997C50.9401 44.5163 48.1948 43.7542 47.499 43.7164C48.2753 42.5662 47.9582 41.3071 47.9724 40.1711C47.9724 40.0623 48.4788 38.7606 48.209 38.0459C51.2809 37.4589 54.3813 36.9099 57.1881 35.4473C57.2781 35.9585 59.5737 41.7804 60.26 42.8928C59.9476 44.2418 58.3667 43.5412 57.1881 43.7211V43.7164Z" fill="#B96E62"/>
<path id="Vector_73" d="M61.4442 43.481C61.5341 43.9354 62.4666 47.3907 62.2725 47.4995C59.0302 45.7908 60.0763 47.3907 59.4373 47.4995C59.3095 47.5232 58.7557 46.9836 56.957 46.7895L58.8456 45.2512L57.1937 43.7129C58.3723 43.533 59.9532 44.2335 60.2656 42.8845C59.5793 41.7722 57.2836 35.9502 57.1937 35.439C57.099 34.9042 57.0517 33.9528 57.667 33.7871C59.1817 37.8341 60.2845 37.7158 61.4489 43.4762L61.4442 43.481Z" fill="#E9B205"/>
<path id="Vector_74" d="M47.9729 37.8095C47.9729 37.8095 48.2049 38.032 48.2096 38.0462C48.4794 38.7609 47.9729 40.0673 47.9729 40.1715H45.8477V38.0462C45.9565 38.0462 46.1033 37.6439 47.9729 37.8095Z" fill="#FBFBFC"/>
<path id="Vector_75" d="M45.8479 38.0453V43.9524C44.603 44.1181 43.3156 44.3453 42.3026 45.1358C40.3241 44.0424 38.0379 43.73 35.9221 43.0105C34.8287 42.6366 34.54 43.0436 34.0335 42.7738C34.6678 42.4614 34.0477 42.097 34.0335 42.0638C34.0146 42.0165 34.0146 41.813 33.7969 41.3538C34.4453 40.3598 36.102 35.3662 36.1588 34.5C38.516 37.0323 42.4778 38.0405 45.8479 38.0453Z" fill="#B96E62"/>
<path id="Vector_76" d="M57.1889 43.7168L58.8408 45.2551L56.9523 46.7935C55.608 46.6515 54.2969 46.4385 52.9337 46.5568C52.8958 46.4574 51.6083 44.9617 51.5137 44.9049C53.3644 44.299 55.2672 44.015 57.1842 43.7215L57.1889 43.7168Z" fill="#2D4C52"/>
<g id="Group_14">
<path id="Vector_77" d="M41.8296 58.3707C40.8072 59.2038 44.3856 60.2499 45.6115 60.2593C52.0773 61.6557 46.4115 60.9315 43.723 61.4427C41.006 60.8415 39.2784 60.1647 37.5791 57.8974C38.8808 58.0347 38.5826 56.0562 40.5327 55.2988C40.9303 57.0691 39.0748 57.3531 41.8344 58.3707H41.8296Z" fill="#0A0C0D"/>
<path id="Vector_78" d="M38.7575 49.625L38.9941 52.6969C38.9089 52.8815 39.316 52.9099 39.1125 53.1703C39.0083 53.3028 36.6275 54.879 36.1589 54.8222C36.1258 52.3514 37.2996 51.2107 38.7575 49.625Z" fill="#444242"/>
<path id="Vector_79" d="M40.6511 48.2094C39.0134 50.2021 39.6287 52.0339 39.4678 52.583C39.4063 52.7912 39.0087 52.6729 38.9945 52.7013L38.7578 49.6294C39.2643 49.0803 40.4145 46.8415 40.6464 48.2094H40.6511Z" fill="#B9B9B8"/>
<path id="Vector_80" d="M56.7205 56.7151C51.9398 60.8094 47.6515 60.355 50.5766 59.3137C51.8357 58.8688 53.8616 58.8688 55.8922 56.2418C55.0638 55.6548 54.5006 57.4204 53.8852 56.2418C56.356 53.5438 55.239 50.77 53.6486 47.9727C56.9193 49.6909 58.6233 53.3071 56.7205 56.7151Z" fill="#656968"/>
<path id="Vector_81" d="M47.737 58.8455V59.7922C47.0459 59.9105 46.3359 60.2703 45.6117 60.2655C44.3858 60.2561 40.8074 59.2053 41.8298 58.377C43.8415 59.1201 45.7632 58.6894 47.737 58.8503V58.8455Z" fill="#282C31"/>
<path id="Vector_82" d="M50.5722 59.3143C49.6066 57.6197 52.0442 58.2493 53.8808 56.2423C54.5008 57.4209 55.0593 55.6554 55.8877 56.2423C53.8523 58.8693 51.8265 58.8693 50.5722 59.3143Z" fill="#51595A"/>
<g id="Group_15">
<path id="Vector_83" d="M53.6495 47.9731C55.2399 50.7705 56.3569 53.5442 53.8861 56.2422C52.0496 58.2491 49.6119 57.6196 50.5775 59.3141C47.6524 60.3554 51.9407 60.8051 56.7214 56.7155C55.0458 59.7164 52.1348 60.2229 49.3942 61.4441C49.1055 61.5719 48.4807 61.2264 48.2109 61.7991C47.6192 63.0724 49.4273 65.0888 47.0276 65.4627C48.457 60.2371 47.0276 62.1778 43.719 61.4441C46.4075 60.9329 52.078 61.6571 45.6076 60.2608C46.3365 60.2655 47.0418 59.9058 47.7328 59.7874C48.3481 59.6833 48.599 60.2892 49.3848 59.6691C48.3908 58.003 48.8546 58.9307 47.7328 58.8408C45.759 58.6799 43.8373 59.1106 41.8256 58.3675C39.0708 57.3498 40.9216 57.0658 40.524 55.2955C38.5738 56.0576 38.872 58.0314 37.5704 57.8941C37.1207 57.2977 36.1835 57.0705 36.1504 54.8222C36.619 54.8743 38.9998 53.3028 39.104 53.1703C39.3075 52.9099 38.9004 52.8815 38.9856 52.6969C38.9998 52.6685 39.3974 52.7869 39.459 52.5786C39.6199 52.0343 39.0046 50.1977 40.6423 48.205H40.879C41.7688 52.6969 53.4885 53.8424 53.1667 47.7317C53.7205 47.6465 53.6163 47.9542 53.64 47.9684L53.6495 47.9731Z" fill="#0A0C0D"/>
<path id="Vector_84" d="M48.4482 56.952L49.1582 55.3001C50.2706 55.1391 50.3226 55.5746 50.6966 55.5367C51.1131 55.4941 50.725 54.8977 51.1699 54.5901C51.9225 54.0741 53.1674 53.5913 53.8868 52.1098C54.1898 51.485 53.7638 49.3408 54.8335 52.8198C54.8808 56.0432 51.0942 56.8147 48.453 56.9567L48.4482 56.952Z" fill="#7F8788"/>
<path id="Vector_85" d="M49.1582 55.3009L48.4482 56.9528C43.5208 57.2178 38.7544 54.4867 41.2393 53.8809C44.1361 56.0156 45.9916 55.7553 49.1582 55.3009Z" fill="#51595A"/>
<path id="Vector_86" d="M47.7373 59.7881V58.8414C48.8591 58.9314 48.4 57.9989 49.3892 59.6698C48.6035 60.2898 48.3526 59.684 47.7373 59.7881Z" fill="#353E3F"/>
</g>
<g id="Group_16">
<path id="Vector_87" d="M47.5005 43.7174C48.1963 43.7552 50.9416 44.5173 51.5191 44.9007C51.609 44.9622 52.8965 46.4532 52.9391 46.5526C53.0811 46.9171 53.1568 47.3384 53.1758 47.736C53.4976 53.8467 41.7779 52.6965 40.8881 48.2093C40.7366 47.433 40.9638 46.742 41.3614 46.084C41.3945 46.0272 42.256 45.18 42.3081 45.1374C43.321 44.3469 44.6085 44.1197 45.8533 43.954C46.2935 43.8972 46.5823 43.67 47.5053 43.7174H47.5005Z" fill="#E3E3E5"/>
<path id="Vector_88" d="M46.6778 47.5L48.0978 47.7367C51.4632 52.1481 41.793 50.9127 46.6778 47.5Z" fill="#917F73"/>
</g>
</g>
<path id="Vector_89" d="M47.9729 40.1719C47.9587 41.3031 48.2759 42.5669 47.4996 43.7171C46.5719 43.6698 46.2831 43.897 45.8477 43.9538V40.1719H47.9729Z" fill="#391B15"/>
<g id="Group_17">
<path id="Vector_90" d="M57.1894 25.7596C56.9291 25.8211 56.1386 26.1525 56.0061 26.2329C53.0335 28.0979 53.7246 28.0269 52.6975 26.7063C52.3851 26.3039 52.5129 25.9111 51.5141 25.0543C48.5984 22.5409 45.9998 23.1231 48.9155 25.646C48.9534 26.9429 44.0024 28.2635 46.4353 23.4024C44.3763 23.1989 43.1456 24.6993 42.7717 24.8224C42.5729 24.8887 42.4972 24.9975 42.2984 25.0591C40.9825 25.4709 40.6748 24.1124 37.1012 26.9477C36.9781 27.0471 36.1971 28.3251 34.7393 28.8363C35.3357 28.0458 35.7853 27.1985 36.6279 26.5927C35.7617 26.4743 35.6149 27.1701 35.2079 26.2377C38.417 23.2935 43.8698 23.3077 43.7136 21.9824C46.866 21.3576 46.1229 22.0156 46.3122 20.5624C47.1122 20.766 46.7477 20.2548 47.7322 18.6738C47.3441 23.5823 48.286 21.405 51.3958 21.9824C53.8003 22.4273 59.4282 24.9597 57.1847 25.7643L57.1894 25.7596Z" fill="#0C2431"/>
<path id="Vector_91" d="M47.9732 37.8109C46.1036 37.6452 45.9521 38.0476 45.848 38.0476C42.4779 38.0476 38.5161 37.0346 36.1589 34.5023C36.1683 34.3461 36.1683 34.1852 36.1589 34.029C36.121 33.461 35.8512 32.7462 35.6855 32.1404C36.6322 31.6055 36.3435 32.8362 37.9291 34.029C40.878 36.2489 47.552 37.4701 47.9732 37.8109Z" fill="#282C31"/>
<path id="Vector_92" d="M43.7229 21.9785C43.8791 23.3038 38.4216 23.2896 35.2171 26.2338C34.7391 25.1356 35.2361 25.1688 35.2171 24.5818C37.8725 22.6743 40.7172 22.5749 43.7229 21.9832V21.9785Z" fill="#0C2431"/>
<path id="Vector_93" d="M41.5934 26.7053C41.5934 26.7053 41.8064 27.1644 41.8301 27.1786C40.9024 28.4282 39.9604 27.6614 39.1132 27.8886C38.1334 28.1489 35.0331 30.189 34.5029 29.0719C34.6828 28.8021 34.7301 28.8495 34.7396 28.8353C36.1975 28.3241 36.9785 27.0413 37.1015 26.9467C37.9062 27.1218 39.4303 25.4367 41.5934 26.71V26.7053Z" fill="#282C31"/>
<g id="Group_18">
<path id="Vector_94" d="M57.4259 28.3593C58.0081 28.5155 58.7134 27.6446 59.3145 28.4777C58.1833 30.4278 56.8343 29.7841 57.4259 30.4846C56.3041 30.5982 57.3171 32.8702 57.6626 33.7932C57.0473 33.9589 57.0993 34.915 57.1893 35.4451C54.3824 36.9077 51.2821 37.4568 48.2102 38.0437C48.2054 38.0295 47.9924 37.8212 47.9735 37.807C47.5522 37.471 40.8783 36.245 37.9294 34.0251C36.3437 32.8276 36.6325 31.5969 35.6858 32.1365C35.1273 30.0728 36.1497 29.8977 33.5605 30.1296C33.5653 29.5805 34.4551 29.1403 34.5072 29.0646C35.0373 30.1864 38.1377 28.1416 39.1175 27.8813C39.9647 27.6588 40.9067 28.4256 41.8344 27.1713C42.7905 27.8529 43.4579 29.1545 44.788 29.5332C47.2635 30.2385 52.1672 29.9781 52.7068 26.6979C53.734 28.0185 53.0429 28.0895 56.0154 26.2246C56.4698 26.7169 56.9384 28.2173 57.4354 28.3499L57.4259 28.3593Z" fill="url(#paint1_linear_460_5846)"/>
<path id="Vector_95" d="M57.1892 25.7598L57.4259 28.3584C56.9336 28.2258 56.465 26.7254 56.0059 26.2331C56.1384 26.1526 56.9241 25.8213 57.1892 25.7598Z" fill="#63423D"/>
<path id="Vector_96" d="M41.4746 28.3594C43.3821 31.3745 45.8435 33.6228 41.8296 30.1296L41.4746 28.3594Z" fill="#B9B9B8"/>
</g>
<g id="Group_19">
<path id="Vector_97" d="M51.5185 25.0492C52.5173 25.9106 52.3895 26.3035 52.7019 26.7011C52.167 29.9813 47.2633 30.2416 44.783 29.5364C43.453 29.1577 42.7808 27.856 41.8294 27.1744C41.8058 27.1602 41.6164 26.7153 41.5928 26.7011L42.3028 25.0492C42.5016 24.9876 42.5773 24.8788 42.7761 24.8125C43.2021 27.7661 43.8979 26.6822 45.7297 27.8844C45.938 28.0217 46.5296 30.2984 49.3933 29.1861C50.5719 27.2786 50.6381 25.3852 51.5185 25.0492Z" fill="#E3E3E5"/>
<path id="Vector_98" d="M51.5188 25.0498C50.6384 25.3859 50.5674 27.2792 49.3935 29.1867C46.5299 30.2991 45.9382 28.0223 45.73 27.8851C43.8982 26.6828 43.2024 27.7668 42.7764 24.8132C43.1503 24.6901 44.381 23.1944 46.44 23.3932C44.007 28.2543 48.9581 26.9337 48.9202 25.6368C46.0045 23.1139 48.6031 22.5317 51.5188 25.0451V25.0498Z" fill="#E3E3E5"/>
</g>
<path id="Vector_99" d="M42.3035 25.0488L41.5935 26.7008C39.4304 25.4275 37.911 27.1126 37.1016 26.9374C40.6752 24.1022 40.9876 25.4559 42.2987 25.0488H42.3035Z" fill="#282C31"/>
</g>
<path id="Vector_100" d="M34.0335 42.7745C33.83 42.6656 33.83 42.0881 33.7969 42.0645H34.0335C34.0477 42.0976 34.6678 42.4621 34.0335 42.7745Z" fill="#63423D"/>
<path id="Vector_101" d="M65.2259 38.7564C65.4436 39.1729 65.491 39.5326 65.6992 39.9397C64.9182 39.8166 64.5822 40.3988 64.5159 40.413C63.1385 40.6639 62.7172 40.1574 62.6273 40.1764L62.3906 38.993C63.361 38.8368 64.2272 38.6191 65.2259 38.7564Z" fill="#0C2431"/>
<path id="Vector_102" d="M62.391 38.9936L62.6277 40.177C62.5283 40.1959 61.9461 40.39 61.9177 40.4136C61.132 41.0763 61.2124 40.0302 60.7344 39.112C61.0089 38.8327 61.9792 39.0599 62.3863 38.9936H62.391Z" fill="#B89380"/>
<path id="Vector_103" d="M69.2442 108.942C69.159 109.023 68.4159 110.679 67.9426 110.831C66.835 111.195 60.6012 110.291 58.3718 111.304C58.3434 111.214 57.3825 110.116 57.1885 109.884L69.2395 108.938L69.2442 108.942Z" fill="#282C31"/>
<g id="Group_20">
<path id="Vector_104" d="M69.7169 52.2274C69.7832 52.3457 70.834 52.4688 70.6636 54.5893C70.4222 57.5618 66.5314 57.0412 64.4014 56.7146C62.8489 55.7111 64.3446 55.1194 65.4664 52.696C65.6037 52.6297 66.1575 52.2605 66.1764 52.2227C66.4699 54.4236 69.5844 54.2769 69.7217 52.2227L69.7169 52.2274Z" fill="#391B15"/>
<path id="Vector_105" d="M69.7161 52.2277C69.5789 54.2819 66.4644 54.4287 66.1709 52.2277C66.2608 52.0525 66.0857 50.2255 68.4145 50.3391C70.1185 51.2005 69.6451 52.1093 69.7161 52.2277Z" fill="#FBFBFC"/>
</g>
<g id="Group_21">
<path id="Vector_106" d="M64.5157 40.4071C65.2541 42.7264 65.008 45.2588 65.4624 47.616C65.5428 48.0325 67.0906 48.8561 65.9357 49.9779C66.8634 49.585 66.0588 51.4121 65.4624 52.6948C64.3406 55.1135 62.8448 55.7099 64.3974 56.7134C66.5274 57.0353 70.4181 57.5559 70.6595 54.5881L71.3695 54.4698C71.7482 58.7298 73.2439 59.1747 73.4948 59.667C74.3941 61.442 77.13 66.4924 77.2767 66.8758C76.3017 66.0144 75.4497 65.1482 74.0865 64.9872C71.4595 64.6748 51.0068 66.1232 49.5111 65.4606C48.9147 65.1955 49.0709 62.0715 49.3928 61.442C52.1286 60.2255 55.0396 59.719 56.7199 56.7134C58.6227 53.3054 56.9187 49.6891 53.648 47.9709C53.6243 47.9567 53.7285 47.6491 53.1747 47.7343C53.1557 47.3367 53.08 46.9154 52.938 46.551C54.2965 46.4326 55.6123 46.6456 56.9566 46.7876C58.7553 46.977 59.3091 47.5166 59.4369 47.4976C60.0759 47.3888 59.0298 45.7889 62.2721 47.4976C62.4662 47.3935 61.5384 43.9334 61.4438 43.479C62.1822 42.5466 60.9988 41.1218 61.9171 40.4071C61.9455 40.3834 62.5277 40.1894 62.6271 40.1704C62.7218 40.1515 63.1383 40.658 64.5157 40.4071Z" fill="#9C524B"/>
<path id="Vector_107" d="M60.1415 56.9492C67.4024 64.0161 63.1945 63.1451 55.4129 62.6197C54.8118 61.9381 59.5499 57.9811 60.1415 56.9492Z" fill="#282C31"/>
</g>
<g id="Group_22">
<path id="Vector_108" d="M64.7523 142.263C59.9527 147.177 56.4784 153.178 51.9912 158.333C49.8423 160.804 48.4981 163.095 44.3091 161.878C43.1305 161.537 32.3669 146.732 30.7197 144.507C29.9008 143.404 27.9318 141.639 27.8844 141.435C27.6241 140.351 29.7446 133.687 29.773 131.746C30.0902 131.296 30.8712 132.73 31.193 133.284C31.5054 133.824 31.4108 134.439 31.6664 134.823C32.5562 136.153 33.9005 135.698 33.0864 136.83C32.2012 138.126 32.329 138.803 34.8566 139.665C38.6811 140.971 38.9225 140.474 37.1002 138.481C37.0718 138.179 37.583 138.179 37.6919 138.245C38.4066 138.699 43.5754 144.644 45.1374 145.099C44.6641 145.757 44.7871 147.115 44.6641 147.461C44.6073 147.626 43.5233 148.776 43.2441 150.414C42.5435 154.598 46.1503 155.474 48.4412 153.604C50.8221 151.664 49.1276 150.116 48.9146 149.349C48.3939 147.465 48.001 147.56 47.9679 147.461C47.8449 147.087 48.1525 146.367 47.7313 145.335C47.665 145.174 47.7975 144.791 47.7313 144.625L56.8287 137.061L57.1837 137.535C56.9234 137.786 55.4466 140.096 55.5318 140.252C60.8425 139.528 58.0452 139.613 57.657 137.298C57.6192 137.076 57.2736 136.863 57.4204 136.47C57.5576 136.101 62.6317 132.148 63.2092 131.154C63.6541 133.294 65.1262 139.054 65.2161 140.252C65.3345 141.752 64.7333 141.71 64.7428 142.259L64.7523 142.263Z" fill="#E9B205"/>
<path id="Vector_109" d="M49.6297 128.083C46.9222 130.913 42.932 129.56 43.9592 125.484C45.6726 122.971 49.2841 123.643 49.8663 125.839C50.1267 126.814 49.6344 127.969 49.6297 128.083Z" fill="#FBFBFC"/>
<path id="Vector_110" d="M47.2623 132.102C47.2197 132.263 46.7937 135.245 46.789 135.411C46.7511 137.119 47.1677 139.155 47.499 140.844C47.286 141.128 46.8695 142.174 46.5523 142.733C46.4813 142.648 45.0424 141.422 44.9004 141.313C45.653 140.366 45.4542 138.407 45.3737 137.058C45.369 136.954 45.1939 136.854 45.1371 136.111C47.4942 136.509 45.9654 132.632 46.3204 131.382C46.9641 131.558 46.7559 130.573 47.2671 132.092L47.2623 132.102Z" fill="#3B345A"/>
<path id="Vector_111" d="M49.6294 128.083C49.6294 128.168 49.9134 128.793 50.1028 128.793C50.0223 128.883 49.8046 129.385 48.5644 130.682C47.8828 131.396 47.7456 130.341 47.2628 132.102C46.7516 130.587 46.9598 131.567 46.3161 131.392C46.0037 131.306 45.6819 130.861 44.8961 131.392C44.8015 130.942 41.9851 128.362 43.9495 125.484C42.9271 129.56 46.9125 130.913 49.62 128.083H49.6294Z" fill="#391B15"/>
<path id="Vector_112" d="M34.2642 135.883C35.1588 136.763 36.2616 137.568 37.0994 138.481C38.9218 140.469 38.6804 140.966 34.8558 139.665C32.3282 138.803 32.2005 138.126 33.0856 136.829C33.1282 136.768 34.0654 135.916 34.2689 135.883H34.2642Z" fill="#4E4932"/>
<path id="Vector_113" d="M46.3204 131.39C45.9654 132.64 47.499 136.517 45.1371 136.119C45.0329 134.756 44.9619 131.679 44.9004 131.39C45.6814 130.86 46.008 131.305 46.3204 131.39Z" fill="#483234"/>
<path id="Vector_114" d="M57.1877 137.535C57.1877 137.535 57.5332 137.337 57.661 137.299C58.0444 139.618 60.8418 139.528 55.5358 140.252C55.4506 140.096 56.9321 137.786 57.1877 137.535Z" fill="#3F3E33"/>
<path id="Vector_115" d="M44.6633 147.461H47.9719C48.0051 147.56 48.3979 147.47 48.9186 149.35C47.5885 150.703 47.8962 148.067 45.8467 150.296C44.261 152.019 43.4421 153.695 46.0833 153.841C47.0726 153.898 47.2051 154.149 48.4452 153.605C46.1496 155.474 42.5428 154.599 43.2481 150.415C43.5226 148.777 44.6065 147.627 44.6681 147.461H44.6633Z" fill="#2E2926"/>
<path id="Vector_116" d="M48.9186 149.354C49.1316 150.12 50.8261 151.663 48.4453 153.609C47.2004 154.153 47.0679 153.902 46.0833 153.845C45.5532 152.435 46.7176 151.635 45.8467 150.3C47.8962 148.071 47.5885 150.707 48.9186 149.354Z" fill="#544F4C"/>
<path id="Vector_117" d="M46.0839 153.842C43.4427 153.695 44.2615 152.02 45.8472 150.297C46.7181 151.632 45.5537 152.427 46.0839 153.842Z" fill="#30312D"/>
</g>
<g id="Group_23">
<path id="Vector_118" d="M52.2294 101.853C53.1571 102.955 53.1145 104.058 53.176 104.214C53.2423 104.375 53.1145 104.745 53.176 104.924C52.182 110.983 41.2907 109.199 41.3617 103.978C41.3759 102.97 41.8445 102.051 42.545 101.379C44.7413 99.2682 50.2319 99.4717 52.2341 101.853H52.2294Z" fill="#E3E3E5"/>
<g id="Group_24">
<path id="Vector_119" d="M43.2506 120.051L42.7772 120.642C46.5023 122.365 51.3682 121.939 55.0649 120.051C51.0416 123.118 44.751 123.298 40.1786 121.471C37.4664 120.387 35.2749 118.115 34.9814 115.09C35.2086 115.119 35.4926 115.038 35.5731 115.09C35.9707 115.341 36.9126 118.683 43.2553 120.051H43.2506Z" fill="#0A0C0D"/>
<path id="Vector_120" d="M58.3736 114.139C58.421 114.73 58.1654 115.189 58.847 115.085C58.6292 117.073 57.8435 118.19 56.2484 119.341C55.7987 119.662 55.562 119.8 55.065 120.051C51.3683 121.934 46.5025 122.365 42.7773 120.642L43.2507 120.051C43.6625 120.141 44.008 120.226 44.434 120.287C51.0086 121.201 52.2061 119.847 55.8934 118.162C55.9502 118.138 56.3004 118.763 56.6034 118.635C58.3547 117.887 57.1998 114.905 58.3736 114.143V114.139Z" fill="#282C31"/>
<path id="Vector_121" d="M19.3804 102.325C19.5224 102.576 19.6928 102.798 19.8537 103.035C20.3886 103.821 21.127 105.136 21.8607 105.633C25.5385 108.114 38.1622 105.151 38.8769 105.633C39.142 105.813 38.9101 106.485 38.9953 106.58C37.2724 111.555 44.1546 114.882 50.1044 113.907C52.5941 113.5 56.3713 111.579 55.7749 108.592C54.62 106.211 53.7538 109.098 51.0463 109.893C51.0179 109.903 50.8428 109.396 50.6913 109.42C50.6014 109.434 50.4688 110.111 50.218 110.13C49.986 110.149 47.6336 109.538 46.1994 109.893C45.319 110.111 46.384 111.848 43.6008 111.077C41.2247 110.414 39.8851 107.053 39.7005 106.822C39.8189 105.473 41.7027 105.179 40.6472 103.986H41.3572C41.2909 109.207 52.1776 110.987 53.1716 104.933C53.4698 105.785 53.2426 106.566 54.3549 106.585C54.5206 107.427 55.543 106.585 55.6566 106.585C58.2173 106.623 60.778 106.448 63.3387 106.348C64.5647 106.301 71.9865 105.719 72.4362 105.875C72.5308 105.908 71.4516 107.849 73.0278 105.993C72.9332 105.387 71.7735 105.946 72.5545 104.455C72.6066 104.464 73.3213 103.432 73.2645 104.337C73.2219 105.032 70.9594 104.848 74.6845 105.638C75.2004 105.747 75.2241 105.856 75.6312 106.112C75.4182 106.4 74.5993 108.137 74.3295 108.237C73.7568 108.455 72.8196 107.934 72.0859 108C70.5192 108.142 70.647 107.645 69.2507 108.947L57.1996 109.893C57.034 109.69 56.6742 108.899 56.253 109.302C54.9182 114.433 50.4168 117.76 45.1439 117.453C39.6769 117.135 37.2297 113.519 38.1717 108.237C37.6936 107.749 35.5305 110.883 35.4548 111.072C34.6264 110.244 34.049 110.826 33.5662 110.835C30.0351 110.892 26.452 110.954 22.9304 110.599L25.0557 108.828C17.5486 109.382 17.7379 109.146 15.1299 102.33C15.4423 102.15 15.3523 102.098 15.3665 102.093C15.4091 102.074 15.6647 102.117 16.3132 101.856V102.093C15.2009 103.03 18.7887 107.532 20.4501 107.053L17.2599 102.093C18.3012 101.913 18.2586 101.373 18.3249 101.383C18.3959 101.392 18.6278 102.391 19.3899 102.33L19.3804 102.325Z" fill="#0A0C0D"/>
<path id="Vector_122" d="M58.8471 112.724C58.9134 113.236 58.9039 114.551 58.8471 115.086C58.1655 115.195 58.4211 114.731 58.3738 114.14C58.3359 113.666 58.4069 111.664 58.3738 111.541C58.4874 111.872 58.8187 112.521 58.8471 112.724Z" fill="#3E3740"/>
<path id="Vector_123" d="M45.1395 117.448L44.4295 120.283C44.0083 120.226 43.658 120.137 43.2462 120.047C36.9036 118.679 35.9664 115.332 35.564 115.086C35.4836 115.034 35.1996 115.115 34.9724 115.086C34.9203 114.547 34.9108 113.486 34.9724 112.961C34.9818 112.866 35.4031 111.176 35.4457 111.072C35.5214 110.883 37.6846 107.749 38.1626 108.237C37.2207 113.519 39.6678 117.136 45.1348 117.453L45.1395 117.448Z" fill="#282C31"/>
<path id="Vector_124" d="M57.1899 109.889C57.3792 110.121 58.3448 111.219 58.3732 111.309C58.3969 111.38 58.3543 111.47 58.3732 111.546C58.4064 111.673 58.3354 113.671 58.3732 114.144C57.1946 114.906 58.3543 117.883 56.603 118.636C56.3 118.764 55.9498 118.139 55.893 118.163C52.2057 119.848 51.0034 121.202 44.4336 120.288L45.1436 117.453C50.4165 117.76 54.9179 114.428 56.2527 109.302C56.674 108.9 57.0289 109.69 57.1993 109.894L57.1899 109.889Z" fill="#394B58"/>
<path id="Vector_125" d="M50.1042 113.907C46.9187 113.613 50.2699 111.228 51.0509 109.888C53.7583 109.093 54.6245 106.21 55.7794 108.586C56.3758 111.578 52.5939 113.495 50.1089 113.902L50.1042 113.907Z" fill="#394B58"/>
<g id="Group_25">
<path id="Vector_126" d="M39.7054 106.817C39.89 107.049 41.2295 110.409 43.6056 111.072C46.3888 111.844 45.3238 110.106 46.2042 109.889C47.6384 109.534 49.9909 110.144 50.2228 110.125C50.4737 110.106 50.6062 109.43 50.6961 109.415C50.8476 109.392 51.0227 109.898 51.0511 109.889C50.2749 111.223 46.9237 113.609 50.1045 113.907C44.1594 114.882 37.2772 111.555 38.9954 106.58C39.2368 106.84 39.6817 106.788 39.7054 106.817Z" fill="#282C31"/>
<path id="Vector_127" d="M49.5124 110.598C50.2413 110.504 49.6733 111.483 49.2757 111.308C48.9539 111.166 49.3562 110.622 49.5124 110.598Z" fill="#282C31"/>
</g>
</g>
</g>
<g id="Group_26">
<path id="Vector_128" d="M77.9863 93.8189C77.6739 94.5999 76.4007 95.7406 76.0977 96.4175C74.0387 96.6399 60.1181 96.6447 59.4365 97.1275C58.8685 97.5298 60.1086 101.113 59.4365 101.383C59.0294 101.544 54.031 101.326 52.2276 101.856C50.2254 99.4752 44.7348 99.2717 42.5385 101.383C40.8582 100.824 30.4117 102.221 29.8958 101.856C29.3988 101.501 30.2177 97.1038 29.6591 96.8956C29.1243 96.6968 19.9937 96.7062 18.1998 96.6589C16.2496 95.5513 16.9029 95.0448 16.5479 94.2969C21.3569 94.4863 26.1612 94.1455 30.9655 94.0603C31.3537 94.0555 31.7323 94.0697 32.1489 94.0603C34.1511 94.0224 34.3925 94.2969 34.5108 94.2969L34.3925 95.2436C42.6237 95.2247 50.8597 94.5762 59.0862 94.2969C59.995 94.2685 60.9606 94.3301 61.9215 94.2969C65.0975 94.1928 74.5026 94.4531 76.8077 93.8236C77.5935 93.6106 77.6171 93.232 78.2277 92.877C78.152 93.2272 78.1851 93.3408 77.9911 93.8236L77.9863 93.8189Z" fill="#0C2431"/>
<path id="Vector_129" d="M78.2227 92.8728C77.6121 93.2278 77.5931 93.6018 76.8027 93.8195C77.5458 87.8934 78.412 85.0345 74.6774 79.8751C74.6395 79.4302 74.649 79.0752 74.9141 78.6918C76.2867 78.0434 76.2773 79.5533 76.566 79.2835C76.8027 77.8966 77.1009 76.4908 77.5127 75.1466C77.6357 74.7395 77.9718 74.1952 77.986 73.7266H78.2227C78.4073 75.2176 79.2309 81.2857 79.1693 81.8773C79.0226 83.2595 78.2274 83.6618 78.2227 83.7659C78.1469 86.7669 78.8664 89.905 78.2227 92.8634V92.8728Z" fill="#E9B205"/>
<path id="Vector_130" d="M76.8029 103.035C76.7603 102.836 76.6372 102.77 76.5662 102.562C76.4195 102.145 76.4242 101.369 76.0929 101.142C76.1876 100.417 76.1024 99.1489 76.0929 98.3064C76.0882 97.7952 76.2065 97.336 75.8562 97.3597C75.8657 97.284 75.842 97.1988 75.8562 97.123C75.8704 97.0473 76.0645 96.4793 76.0929 96.413C76.4006 95.7362 77.6691 94.5955 77.9815 93.8145C78.6867 94.0937 79.3021 101.099 79.1648 101.497C79.0181 101.908 77.3378 102.77 76.8029 103.035Z" fill="#E9B205"/>
<path id="Vector_131" d="M76.8023 103.036C76.8733 103.386 77.2803 103.817 77.2756 103.864C77.2614 104.001 75.8698 105.776 75.6236 106.108C75.2166 105.852 75.1976 105.743 74.677 105.634C73.5836 104.754 75.3823 103.788 76.5656 102.562C76.6366 102.766 76.7597 102.837 76.8023 103.036Z" fill="#4797A7"/>
<path id="Vector_132" d="M38.2827 72.3118C37.9466 72.7899 38.1786 72.6668 38.2827 73.0218C36.8864 72.8751 37.5064 74.0821 37.336 74.4418C36.9621 75.237 37.1704 74.9104 37.0994 75.1518C37.052 75.3033 36.3278 74.2288 36.626 77.9871C36.6355 78.1291 35.5705 80.5052 37.691 79.639C38.0508 81.4945 37.6437 80.8933 37.336 82.0009C37.284 82.1855 37.3644 82.4837 37.336 82.7109C37.0899 84.6184 35.2392 81.9915 35.6841 85.0728C35.3054 84.5001 31.8548 81.8211 31.4288 82.5926C31.2711 86.414 31.1133 90.2337 30.9555 94.052C26.1559 94.1372 21.3516 94.478 16.5378 94.2886C16.3911 93.981 16.0882 93.4319 16.0645 93.342C15.8657 91.5812 17.0064 89.2382 16.0645 88.3814C16.2018 86.4739 16.0266 84.9498 16.0645 84.3629C16.126 83.3357 17.991 82.4695 18.8998 81.2909C19.4914 80.5241 19.5577 81.911 19.8464 79.1657C21.2569 79.5349 31.9022 78.3184 35.0877 78.6923L35.4427 77.7457L35.3244 75.3837C34.5812 75.0193 22.2509 75.7577 19.8464 75.3837C18.4359 75.166 17.688 74.385 16.5378 73.7318C15.9888 72.042 15.3545 72.274 15.3545 69.4766C16.5473 79.2367 29.8905 72.8562 36.0344 75.3837C36.484 74.8536 37.4023 71.9474 37.923 71.8385C38.0792 71.8054 37.9561 72.3686 38.278 72.3118H38.2827Z" fill="#37A7D7"/>
<path id="Vector_133" d="M76.5661 74.9154C76.9448 74.9343 76.2916 75.6112 77.2761 74.9154C77.3708 74.8491 77.5554 74.9911 77.5128 75.152C77.101 76.4963 76.8075 77.9021 76.5661 79.289C76.2726 79.5635 76.2868 78.0488 74.9142 78.6973C75.4869 77.8642 76.2821 78.1766 76.0975 77.3956C75.5106 76.6809 62.1957 76.7945 60.2645 77.2773C60.2409 77.1258 59.8906 76.7945 60.0279 75.8573C63.824 75.5544 73.7782 74.7828 76.5708 74.9106L76.5661 74.9154Z" fill="#233F52"/>
<g id="Group_27">
<path id="Vector_134" d="M49.391 61.4434C49.0691 62.0729 48.9129 65.1969 49.5093 65.4619C51.0098 66.1293 71.4577 64.6762 74.0847 64.9886C75.4479 65.1496 76.2999 66.0157 77.275 66.8772C77.7057 68.0085 78.2405 68.9031 78.2216 70.1858C78.2216 70.3562 78.0465 71.3218 77.9849 71.6058C77.8335 72.33 76.849 74.0387 76.565 74.9144C73.7723 74.7866 63.8181 75.5534 60.022 75.861C59.3972 75.9131 58.7582 75.8279 58.1334 75.861C56.2637 66.5885 42.3241 62.461 38.2819 72.3158C37.96 72.3726 38.0831 71.8093 37.9269 71.8425C37.4062 71.9513 36.4879 74.8576 36.0383 75.3877C29.8944 72.8601 16.5559 79.2406 15.3584 69.4805V68.7705C15.8128 67.7529 17.4458 65.7128 18.5487 65.4619C21.0147 64.9034 43.2377 66.0536 47.0243 65.4619C49.4241 65.088 47.6112 63.0716 48.2076 61.7984C48.4727 61.2256 49.1022 61.5712 49.391 61.4434Z" fill="#5FB4D7"/>
<g id="Group_28">
<path id="Vector_135" d="M78.2221 73.0207C77.6352 73.1864 77.7914 73.6408 77.7488 73.7307C77.5973 74.0715 77.2423 74.4881 77.2754 74.9141C76.2909 75.6099 76.9441 74.933 76.5654 74.9141C76.8494 74.0384 77.8292 72.3297 77.9854 71.6055C77.8482 72.5474 78.1984 72.874 78.2221 73.0255V73.0207Z" fill="#E3E3E5"/>
<path id="Vector_136" d="M59.6724 69.7116C62.7633 68.7365 64.3016 74.3834 59.5541 72.9018C59.5778 71.638 58.5648 70.0713 59.6724 69.7116Z" fill="#1A79A1"/>
<path id="Vector_137" d="M33.4405 69.4746L35.4474 69.8296C35.8639 74.7523 30.3543 74.2032 33.4405 69.4746Z" fill="#4B809D"/>
<path id="Vector_138" d="M30.3683 69.002L30.9599 69.1203C31.7646 74.9565 30.3209 72.5283 29.8949 72.5472C29.592 72.5614 26.255 74.5825 30.3683 69.002Z" fill="#1A79A1"/>
<path id="Vector_139" d="M64.1594 69.7129C69.5222 70.1342 63.9322 76.3253 63.3311 70.3046L64.1594 69.7129Z" fill="#004B62"/>
</g>
</g>
<path id="Vector_140" d="M60.0286 75.8575C59.8913 76.7947 60.2416 77.1213 60.2652 77.2775C60.3694 77.9638 60.2842 78.7164 60.5019 79.4028C59.6357 79.4406 58.7695 79.4217 57.9033 79.4028C58.0406 79.1235 58.1258 78.5224 58.14 78.2194C58.1637 77.6278 58.2157 76.5675 58.14 76.0942C58.1258 76.0184 58.1542 75.9332 58.14 75.8575C58.7648 75.8244 59.4085 75.9096 60.0286 75.8575Z" fill="#4B809D"/>
<path id="Vector_141" d="M16.0698 84.3671C16.0319 84.954 16.207 86.4781 16.0698 88.3857C15.923 90.4683 15.1752 90.0045 16.0698 93.3462C16.0934 93.4314 16.3964 93.9805 16.5431 94.2929C16.9028 95.0454 16.2496 95.5519 18.195 96.6548C17.0448 96.385 17.3146 96.9293 17.7217 98.78C17.982 99.9539 18.7772 101.293 19.3736 102.325C18.6116 102.392 18.3796 101.388 18.3086 101.379C18.2471 101.369 18.285 101.909 17.2436 102.089C16.9502 102.141 16.6046 102.055 16.297 102.089V101.852C16.652 101.71 17.7785 101.753 17.9489 101.26C18.2329 100.441 16.3632 95.798 15.587 94.7614C15.2604 94.326 14.5078 94.2597 14.4036 93.9331C14.2474 93.4408 14.7539 84.8925 14.877 83.6523L16.0603 84.3623L16.0698 84.3671Z" fill="#271D16"/>
<path id="Vector_142" d="M16.78 76.3301C17.0782 77.059 16.4771 80.2682 16.5433 80.467C16.7753 81.1249 18.3089 80.4859 18.9053 81.2953C17.9965 82.4739 16.1315 83.3401 16.07 84.3673L14.8867 83.6573C14.9009 83.52 14.5459 83.3496 14.65 82.5923L16.7753 76.3301H16.78Z" fill="#E9B205"/>
<path id="Vector_143" d="M16.306 101.852C15.6576 102.113 15.4067 102.07 15.3594 102.089C15.4383 99.6465 15.5172 97.2041 15.596 94.7617C16.3723 95.7983 18.2467 100.442 17.958 101.261C17.7876 101.753 16.6563 101.71 16.306 101.852Z" fill="#E9B205"/>
<path id="Vector_144" d="M17.2533 76.3309C17.6414 77.1971 18.9431 78.9295 19.8519 79.1662C19.5631 81.9162 19.5016 80.5246 18.9052 81.2914C18.3041 80.4868 16.7705 81.121 16.5433 80.4631C16.477 80.269 17.0734 77.0551 16.7799 76.3262H17.2533V76.3309Z" fill="#76630C"/>
<path id="Vector_145" d="M19.8516 75.3824V77.7443C19.8184 78.2129 19.8989 78.7005 19.8516 79.1643C18.9428 78.9277 17.6364 77.1953 17.253 76.3291C16.5477 74.7529 16.5856 73.8583 16.543 73.7305C17.6932 74.3837 18.441 75.1647 19.8516 75.3824Z" fill="#0A0C0D"/>
<path id="Vector_146" d="M74.6776 79.8747C78.4122 85.0293 77.5508 87.8882 76.8029 93.819C74.4978 94.4486 65.0879 94.1882 61.9166 94.2924C61.732 92.7872 63.5969 83.3963 62.9816 82.9513C61.4243 83.2732 62.1059 83.5051 61.9166 84.1347C61.5569 82.9987 61.2729 82.7904 60.2647 83.6613C58.4329 83.5856 56.9324 82.8141 56.2461 82.7147V82.478L57.1928 79.4061C57.4247 79.425 57.6661 79.4013 57.9028 79.4061C58.769 79.425 59.6351 79.4439 60.5013 79.4061C62.2905 79.3256 73.4848 78.3837 74.0907 78.6961C74.1475 78.7245 74.2327 79.2593 74.6824 79.8794L74.6776 79.8747Z" fill="#5FB4D7"/>
<path id="Vector_147" d="M18.1948 96.6548C19.9935 96.7021 29.1193 96.6927 29.6542 96.8915C30.2127 97.0997 29.3938 101.502 29.8908 101.852C30.4068 102.216 40.8532 100.82 42.5335 101.379C41.833 102.051 41.3644 102.969 41.3502 103.977H40.6402C35.3436 104.271 30.0802 104.365 24.8072 103.741C24.651 100.782 21.8678 100.716 21.3803 100.432C21.191 100.323 21.5602 98.8605 17.7167 98.7801C17.3097 96.9293 17.0351 96.385 18.1901 96.6548H18.1948Z" fill="#34576C"/>
<path id="Vector_148" d="M76.0978 96.418C76.0694 96.4842 75.8753 97.0522 75.8611 97.128C75.2505 96.9812 74.5027 97.8427 73.7359 98.548C73.5418 98.0368 69.3386 98.8935 69.1256 99.0213C68.586 99.3479 67.0856 103.04 66.882 103.158C66.2052 103.551 64.8562 102.836 64.9934 103.75C61.1074 104.11 57.0793 103.887 53.1791 104.223C53.1176 104.067 53.1602 102.964 52.2324 101.861C54.0358 101.331 59.0342 101.549 59.4413 101.388C60.1134 101.123 58.8733 97.5398 59.4413 97.1327C60.1229 96.6499 74.0388 96.6452 76.1025 96.4227L76.0978 96.418Z" fill="#1A79A1"/>
<path id="Vector_149" d="M39.7036 92.3987C41.2467 92.4224 42.6809 92.0721 44.1956 91.9254C44.8251 91.8638 45.8948 92.0248 46.5575 91.9254C51.1677 93.0472 47.4947 90.9077 49.7477 88.6168C49.7619 88.6026 50.0033 88.9528 50.1027 88.8534C50.4104 88.8818 50.7417 88.8108 51.0494 88.8534C50.7654 91.0071 51.589 92.0484 52.938 93.582C46.9787 93.7761 41.0384 93.6862 35.0981 93.8187C34.9703 93.8187 34.5443 94.292 34.5065 94.292C34.3881 94.292 34.1467 94.0175 32.1445 94.0554C32.6605 93.1655 33.645 93.1229 34.7431 91.8118C35.0413 91.4568 36.3477 88.7256 37.105 88.0298C37.7156 87.4713 38.2931 87.495 38.9936 86.9648C39.2019 92.1857 35.0603 92.3324 39.7036 92.3987Z" fill="#004B62"/>
<path id="Vector_150" d="M35.6848 85.0729C35.9593 86.9947 36.5605 86.0007 36.8681 86.0196C38.4254 86.1143 39.3484 85.9581 40.65 85.0729C40.3802 85.4279 40.437 85.7403 40.4134 85.7829C40.3802 85.8445 39.9732 86.4645 39.94 86.4929C39.4241 86.9899 39.036 86.9331 38.9934 86.9663C38.2928 87.4917 37.7106 87.468 37.1048 88.0313C36.3475 88.7271 35.0411 91.4582 34.7429 91.8132C33.6447 93.1291 32.6555 93.1717 32.1443 94.0568C31.7277 94.0663 31.3491 94.0521 30.9609 94.0568C31.1187 90.2354 31.2765 86.4156 31.4343 82.5974C31.8603 81.8259 35.3109 84.5049 35.6895 85.0777L35.6848 85.0729Z" fill="#1A79A1"/>
<path id="Vector_151" d="M52.9376 93.5838C54.4286 93.5365 55.9385 93.6548 57.4295 93.5838C57.9738 93.5601 58.5418 93.6359 59.0814 93.5838C59.0341 93.7968 59.1098 94.0666 59.0814 94.2938C50.8549 94.5683 42.6189 95.2168 34.3877 95.2405L34.506 94.2938C34.5439 94.2938 34.9699 93.8252 35.0977 93.8205C41.0427 93.6879 46.9831 93.7779 52.9376 93.5838Z" fill="#233F52"/>
<path id="Vector_152" d="M61.9167 94.293C60.9558 94.3262 59.9902 94.2646 59.0814 94.293C59.1098 94.0658 59.0341 93.796 59.0814 93.583C59.5831 93.5357 60.7191 93.8008 60.97 93.228C61.1783 92.7547 61.3818 85.9245 61.9167 84.1306C62.1013 83.5058 61.4244 83.2691 62.9817 82.9473C63.597 83.3922 61.7368 92.7878 61.9167 94.2883V94.293Z" fill="#004B62"/>
<path id="Vector_153" d="M24.8119 103.745C30.0848 104.37 35.3483 104.275 40.6449 103.982C41.7051 105.175 39.8213 105.468 39.6982 106.817C39.6746 106.789 39.2344 106.841 38.9882 106.58C38.903 106.49 39.135 105.814 38.8699 105.634C38.1552 105.151 25.5314 108.114 21.8536 105.634C21.1152 105.137 20.3815 103.821 19.8467 103.035C21.5175 103.097 23.1411 103.546 24.8072 103.745H24.8119Z" fill="#0C2431"/>
<path id="Vector_154" d="M68.0598 103.509C69.0444 103.396 70.5306 103.665 71.3684 103.509C71.4441 104.456 72.0453 104.366 72.5517 104.456C71.7707 105.942 72.9304 105.384 73.0251 105.994C71.4489 107.85 72.5281 105.909 72.4334 105.876C71.9837 105.72 64.5619 106.302 63.336 106.349C63.9797 104.248 55.1852 105.156 54.3569 106.586C53.2493 106.562 53.4765 105.786 53.1735 104.934C53.112 104.759 53.2398 104.385 53.1735 104.224C57.0738 103.888 61.1018 104.115 64.9879 103.751C66.0908 103.647 66.7534 103.845 68.0598 103.514V103.509Z" fill="#0C2431"/>
<path id="Vector_155" d="M24.8123 103.745C23.1415 103.546 21.518 103.101 19.8518 103.035C19.6909 102.798 19.5252 102.575 19.3785 102.325C18.7821 101.293 17.9822 99.9532 17.7266 98.7793C21.5653 98.8645 21.2008 100.322 21.3902 100.431C21.873 100.715 24.6609 100.781 24.8171 103.74L24.8123 103.745Z" fill="#1A79A1"/>
<path id="Vector_156" d="M63.3364 106.343C60.7804 106.442 58.2149 106.617 55.6542 106.58C55.5406 106.58 54.5229 107.422 54.3525 106.58C55.1856 105.15 63.9754 104.241 63.3316 106.343H63.3364Z" fill="#0C2431"/>
<path id="Vector_157" d="M76.5662 102.561C75.3829 103.787 73.5842 104.753 74.6776 105.633C70.9525 104.843 73.215 105.032 73.2576 104.332C73.3144 103.428 72.6044 104.46 72.5476 104.45C72.0411 104.36 71.44 104.45 71.3643 103.503C71.4353 103.489 72.3583 102.571 72.4293 102.557C73.996 102.221 75.7568 103.697 76.0929 101.137C76.4242 101.364 76.4195 102.14 76.5662 102.557V102.561Z" fill="#4B809D"/>
<path id="Vector_158" d="M17.2534 102.088L20.4437 107.048C18.7823 107.527 15.1944 103.025 16.3067 102.088C16.6097 102.055 16.9552 102.14 17.2534 102.088Z" fill="#0C2431"/>
<path id="Vector_159" d="M74.9151 78.6919C74.65 79.0753 74.6406 79.4256 74.6784 79.8752C74.2288 79.2552 74.1483 78.725 74.0868 78.6919C73.4809 78.3795 62.2913 79.3214 60.4974 79.4019C60.2797 78.7108 60.3649 77.963 60.2607 77.2766C62.1919 76.7938 75.5068 76.6802 76.0937 77.395C76.2783 78.176 75.4831 77.8636 74.9104 78.6966L74.9151 78.6919Z" fill="#004B62"/>
<path id="Vector_160" d="M77.9862 73.7305C77.9767 74.1991 77.6407 74.7434 77.5129 75.1505C77.5555 74.9895 77.3709 74.8475 77.2762 74.9138C77.2383 74.4925 77.5981 74.0713 77.7495 73.7305H77.9862Z" fill="#824B13"/>
<path id="Vector_161" d="M75.861 97.1289C75.8468 97.2047 75.8705 97.2899 75.861 97.3656C75.8137 97.82 75.7948 98.3549 76.0977 98.3123C76.1072 99.1548 76.1924 100.423 76.0977 101.148C75.7616 103.708 74.0009 102.227 72.4341 102.568C72.3631 102.582 71.4401 103.5 71.3691 103.514C70.5313 103.67 69.0451 103.401 68.0605 103.514C70.7207 102.842 71.8141 100.314 73.7311 98.5537C74.4979 97.8484 75.2457 96.987 75.8563 97.1337L75.861 97.1289Z" fill="#37A7D7"/>
<path id="Vector_162" d="M76.0978 98.3069C75.7948 98.3495 75.8138 97.8194 75.8611 97.3603C76.2114 97.3366 76.0883 97.7957 76.0978 98.3069Z" fill="#5A9792"/>
<path id="Vector_163" d="M35.4478 77.7494C31.9499 77.3896 28.4473 77.863 24.9304 77.7494C23.2927 77.6973 21.849 76.8974 19.8516 77.7494V75.3874C22.2561 75.7614 34.5864 75.023 35.3295 75.3874L35.4478 77.7494Z" fill="#0C2431"/>
<path id="Vector_164" d="M35.4473 77.7499L35.0923 78.6965C31.9068 78.3226 21.2568 79.5343 19.851 79.1699C19.8984 78.706 19.8179 78.2185 19.851 77.7499C21.8532 76.8979 23.2969 77.6978 24.9299 77.7499C28.4467 77.8635 31.9494 77.3901 35.4473 77.7499Z" fill="#004B62"/>
<path id="Vector_165" d="M16.07 93.3453C15.1754 90.0036 15.9232 90.4674 16.07 88.3848C17.0119 89.2462 15.8712 91.5845 16.07 93.3453Z" fill="#A18335"/>
<path id="Vector_166" d="M61.9173 84.1295C61.3872 85.9234 61.1836 92.7536 60.9706 93.2269C60.7198 93.7997 59.579 93.5346 59.082 93.5819C59.6264 91.1112 59.527 88.9338 59.792 86.4914C59.8015 86.4157 59.7826 86.3352 59.792 86.2548C59.882 85.469 59.7731 84.4561 59.792 84.3662C59.8015 84.3236 60.2322 83.6846 60.2654 83.6562C61.2783 82.7852 61.5623 82.9888 61.9173 84.1295Z" fill="#37A7D7"/>
<path id="Vector_167" d="M73.7307 98.5429C71.8137 100.304 70.7203 102.836 68.0602 103.503C66.7538 103.83 66.0911 103.636 64.9882 103.74C64.851 102.831 66.2 103.546 66.8768 103.148C67.0804 103.03 68.5808 99.3428 69.1204 99.0115C69.3287 98.8837 73.5366 98.0269 73.7307 98.5381V98.5429Z" fill="#4B809D"/>
<path id="Vector_168" d="M40.4131 87.6757C40.7113 88.3384 41.658 87.1645 41.7148 87.2024C42.0035 87.4106 41.7527 89.8767 42.5431 87.2024C45.066 86.729 43.9915 88.1774 44.195 91.931C42.6851 92.0777 41.2462 92.428 39.7031 92.4043C40.5078 91.2636 40.2617 88.1017 39.9398 86.4971C39.9682 86.4687 40.38 85.8486 40.4131 85.7871V87.6757Z" fill="#03191A"/>
<path id="Vector_169" d="M53.1736 88.8535C53.2635 89.0854 56.1603 92.4934 56.3638 92.6354C56.4396 92.6922 56.8656 92.6023 57.1922 92.6354C57.2442 93.052 57.4336 93.2082 57.4288 93.5821C55.9378 93.6531 54.4326 93.5348 52.9369 93.5821C51.5832 92.0485 50.7643 91.0119 51.0483 88.8535C51.7299 88.9482 52.3784 89.3978 53.1736 88.8535Z" fill="#1A79A1"/>
<path id="Vector_170" d="M39.7031 92.3994C35.0597 92.3284 39.2061 92.1864 38.9931 86.9655C39.0357 86.9324 39.4239 86.9892 39.9398 86.4922C40.2617 88.1015 40.5125 91.2586 39.7031 92.3994Z" fill="#233F52"/>
<path id="Vector_171" d="M59.7908 86.4916C59.5257 88.934 59.6251 91.1066 59.0808 93.5821C58.5412 93.6342 57.9732 93.5584 57.4289 93.5821C57.4336 93.2082 57.2443 93.0567 57.1922 92.6354C56.8988 90.2924 56.3876 87.9163 56.4822 85.5449C57.1307 85.6443 58.7731 86.4017 59.7908 86.4916Z" fill="#37A7D7"/>
<path id="Vector_172" d="M56.4822 85.5447C56.3875 87.9161 56.8987 90.2923 57.1922 92.6352C56.8656 92.6021 56.4443 92.692 56.3638 92.6352C56.1603 92.4932 53.2635 89.0852 53.1736 88.8533C52.989 88.38 52.705 88.1149 53.1736 87.4333C56.6526 90.3632 54.6457 87.6653 55.0622 85.3081C55.4882 85.2891 55.9521 85.4643 56.4822 85.5447Z" fill="#4B809D"/>
</g>
<g id="Group_29">
<path id="Vector_173" d="M43.4866 70.8952C43.3304 71.2266 43.2547 71.1177 43.2499 71.1319C42.4216 70.5024 42.1802 70.3651 41.3613 71.1319C40.3579 72.0691 41.456 73.2808 40.4147 73.4938C39.7331 72.6797 39.1225 73.0394 38.9947 73.9672C38.6823 73.6358 38.4314 73.5222 38.2847 73.0205C38.1805 72.6655 37.9486 72.7886 38.2847 72.3105C42.0098 71.6289 39.7283 70.8526 41.2383 69.9486C42.1897 69.3806 42.8429 70.1048 43.1269 69.9486C43.3067 69.8492 43.0085 67.3642 45.8438 69.1203C43.3635 68.77 43.9221 69.9438 43.4819 70.8905L43.4866 70.8952Z" fill="#444242"/>
<path id="Vector_174" d="M58.1367 76.0931C58.2125 76.5711 58.1604 77.6267 58.1367 78.2183C56.8446 77.9769 56.2718 76.183 55.0648 75.3831C54.44 74.9665 54.5868 75.1369 54.1182 74.9097C56.0115 73.8116 55.4246 73.9915 54.1182 71.8378C55.505 71.1373 57.1191 74.8198 58.1367 76.0931Z" fill="#9C7F7E"/>
<path id="Vector_175" d="M53.8806 71.6056C53.7292 71.5914 53.554 71.634 53.4073 71.6056C49.1142 70.7725 51.3294 71.9606 49.152 74.4408C49.2562 72.8646 48.6787 73.0966 48.6787 73.0208C48.6787 72.9404 48.6787 72.8646 48.6787 72.7842C48.6787 72.7274 49.0621 73.1344 49.3887 71.8375C51.0264 71.7428 51.1779 70.3749 49.6254 69.4756C50.1271 69.504 50.165 69.2058 50.3354 69.2389C54.0226 69.9394 53.7244 71.3973 53.8806 71.6008V71.6056Z" fill="#444242"/>
<path id="Vector_176" d="M53.8813 71.6045C54.0612 71.8412 54.1085 71.827 54.118 71.8412C55.4244 73.9949 56.0113 73.815 54.118 74.9131C54.0328 74.8705 53.9334 75.1119 52.9346 74.4398C52.7784 74.3357 52.1962 74.6954 52.2246 74.0848C52.2341 73.9097 53.266 74.0375 53.408 71.6045C53.5547 71.6329 53.7298 71.5903 53.8813 71.6045Z" fill="#9B9D9C"/>
<g id="Group_30">
<path id="Vector_177" d="M58.1367 75.8556C58.1509 75.9313 58.1225 76.0165 58.1367 76.0923C57.119 74.8237 55.5097 71.1365 54.1181 71.837C54.1086 71.8228 54.0613 71.837 53.8814 71.6004C53.7252 71.3921 54.0234 69.939 50.3362 69.2384C50.4214 67.3404 46.3034 69.2763 49.6262 69.4751C51.1787 70.3744 51.0272 71.7424 49.3895 71.837C48.9493 71.8607 48.7174 71.4726 48.2062 71.6004C48.1447 70.6963 47.2264 69.9484 46.4359 69.7118C47.0465 73.1292 45.1343 71.0892 43.4823 70.8951C43.9225 69.9437 43.3687 68.7698 45.8443 69.1248C43.009 67.3688 43.3072 69.8538 43.1273 69.9532C42.8433 70.1094 42.1854 69.3852 41.2387 69.9532C39.7288 70.8572 42.0103 71.6382 38.2852 72.3151C42.3274 62.4603 56.267 66.5878 58.1367 75.8603V75.8556Z" fill="#E3E3E5"/>
<path id="Vector_178" d="M50.3405 69.2381C50.1701 69.2049 50.1323 69.5031 49.6305 69.4747C46.3078 69.2807 50.4257 67.34 50.3405 69.2381Z" fill="#483234"/>
<path id="Vector_179" d="M49.3946 71.8426C49.068 73.1396 48.6893 72.7278 48.6846 72.7893H47.9746C48.1166 71.535 48.216 71.6675 48.2113 71.606C48.7177 71.4782 48.9544 71.8663 49.3946 71.8426Z" fill="#2E2926"/>
<path id="Vector_180" d="M45.9674 66.877L46.3224 67.4686C45.2574 67.7952 45.1485 67.5491 45.9674 66.877Z" fill="#875A41"/>
</g>
<path id="Vector_181" d="M58.1358 78.222C58.1216 78.5249 58.0364 79.126 57.8992 79.4053C57.6625 79.4006 57.4258 79.4242 57.1892 79.4053C57.0756 79.3958 57.3832 77.9285 55.6508 80.1153L55.0592 79.5236C58.0838 78.6764 51.2063 78.6764 55.0592 75.3867C56.2662 76.1866 56.8389 77.9806 58.1311 78.222H58.1358Z" fill="#B2BEC8"/>
<path id="Vector_182" d="M60.2617 83.6558C60.2286 83.6842 59.7978 84.3232 59.7884 84.3658C57.5069 83.9919 54.2883 84.0534 54.5912 83.1825C54.6054 83.173 54.5391 82.9221 54.8279 82.9458C55.7272 83.1115 56.1769 82.6997 56.2479 82.7091C56.9342 82.8085 58.4347 83.5801 60.2664 83.6558H60.2617Z" fill="#CACFD4"/>
<path id="Vector_183" d="M46.0845 79.6377C45.5401 80.2861 46.4868 81.0766 46.7945 81.9996C47.0264 82.7001 46.9081 83.5237 47.0311 83.8882C45.1236 84.2053 45.8857 85.6537 45.8478 85.7768C45.649 86.4915 45.8857 86.2217 45.3745 87.1968C44.9769 87.9541 43.9734 87.0311 45.3745 88.7351C45.5591 88.9623 44.1343 89.057 46.5578 89.3268C46.8749 91.0828 46.5199 91.4662 46.5578 91.5704C46.7045 91.949 47.1684 91.1775 47.7411 91.6887C47.1684 91.9017 47.0832 91.8449 46.5578 91.9254C45.8904 92.0248 44.8254 91.8638 44.1959 91.9254C43.9923 88.1718 45.0621 86.7234 42.5439 87.1968C43.093 85.3413 43.1924 87.0832 43.7273 86.3684C43.8409 85.0952 43.2445 85.417 42.7806 85.3034L43.4906 84.3568C45.3508 85.2324 44.5887 83.7272 43.9639 82.4682C46.6619 85.3981 43.5332 79.1075 46.0892 79.6329L46.0845 79.6377Z" fill="#444242"/>
<path id="Vector_184" d="M50.5723 86.2554C51.2255 89.28 50.5155 87.8363 50.2173 88.144C49.9806 88.3901 50.1557 88.7972 50.0989 88.854C49.9995 88.9534 49.7581 88.6031 49.7439 88.6173C47.4909 90.9083 51.1639 93.0477 46.5537 91.9259C47.0791 91.8455 47.1643 91.9023 47.737 91.6893C47.9406 91.6135 49.4789 91.5946 48.447 89.4457C48.2009 88.9345 47.6613 89.4504 46.5584 89.3273C44.1397 89.0575 45.5644 88.9629 45.3751 88.7357C43.974 87.0317 44.9775 87.9547 45.3751 87.1973C46.1703 89.351 47.046 87.4955 47.8554 88.6173C48.2293 88.5321 48.3808 86.8944 48.447 86.4921C49.1712 87.2352 49.8007 85.9099 50.2173 85.7821C50.7001 85.6354 50.5439 86.2602 50.5723 86.2554Z" fill="#0C2431"/>
<path id="Vector_185" d="M51.7554 85.7827C52.4323 86.0099 52.2855 86.8666 52.7021 87.2027C52.7683 87.2547 53.1139 87.3873 53.1754 87.4393C52.7068 88.1209 52.9908 88.386 53.1754 88.8593C52.3755 89.4037 51.727 88.954 51.0501 88.8593C50.7472 88.8167 50.4159 88.8877 50.1035 88.8593C50.1603 88.8025 49.9852 88.3955 50.2218 88.1493C50.52 87.8417 51.2253 89.2853 50.5768 86.2608C50.9082 86.1992 51.0549 85.7448 51.2868 85.7874C51.4383 85.8158 51.6513 85.7495 51.7601 85.7874L51.7554 85.7827Z" fill="#0A0C0D"/>
<path id="Vector_186" d="M41.3562 83.1831C41.0106 84.0683 42.0614 84.1156 40.6462 85.0717C39.3445 85.9521 38.4263 86.1083 36.8643 86.0184C37.2287 85.4504 37.6169 84.8824 38.0476 84.3665C38.6771 84.4706 39.1552 84.9487 39.4676 84.1298C42.2034 84.8682 39.0937 82.3927 41.3562 83.1831Z" fill="#0A0C0D"/>
<path id="Vector_187" d="M43.4868 84.3653L42.7768 85.3119C42.5023 85.2457 42.1284 85.3545 41.8302 85.3119C40.5948 85.2315 41.106 85.9083 41.8302 86.4953C41.5367 87.0443 40.8362 87.2573 40.4102 87.6786V85.79C40.4338 85.7474 40.377 85.4397 40.6468 85.08C42.0621 84.1191 41.0113 84.0765 41.3568 83.1914C42.9472 83.7452 43.3732 84.3227 43.4821 84.3747L43.4868 84.3653Z" fill="#444242"/>
<path id="Vector_188" d="M50.3406 79.4006C51.6091 80.1816 49.6448 80.7591 50.1039 81.7625C49.0863 81.6347 49.0579 81.1993 48.8023 81.2892C48.6792 81.3318 48.4047 82.2737 48.3289 82.2359C48.0497 82.0986 48.6319 80.3283 46.7906 81.9992C46.4829 81.0715 45.541 80.2857 46.0806 79.6373C46.2557 78.4729 49.8862 79.1261 50.3359 79.4006H50.3406Z" fill="#9B9D9C"/>
<path id="Vector_189" d="M43.9599 82.4725C44.5847 83.7363 45.3468 85.2415 43.4866 84.3611C43.3777 84.309 42.947 83.7316 41.3613 83.1778C41.5223 82.766 43.4203 82.0465 43.9599 82.4678V82.4725Z" fill="#A99F94"/>
<path id="Vector_190" d="M43.2498 71.1323C43.1314 71.4021 44.0166 71.3264 42.7764 72.3156C42.9279 71.1607 42.3646 72.221 41.3564 71.1323C42.1753 70.3655 42.4167 70.5028 43.245 71.1323H43.2498Z" fill="#E3E3E5"/>
<g id="Group_31">
<path id="Vector_191" d="M48.211 71.6046C48.211 71.6661 48.1163 71.5336 47.9743 72.7879C47.9649 72.8589 47.7377 73.034 47.501 73.9712C47.2028 75.1498 46.8525 75.519 46.9093 76.0965C47.1081 76.2101 48.921 74.7096 49.1529 74.4446C49.063 75.7746 46.9425 77.0857 50.5729 75.8645C49.754 76.9248 48.7979 77.6301 49.6262 78.8181C49.7162 78.9459 51.7136 79.6323 50.3362 79.4098C49.8866 79.1353 46.2561 78.4821 46.081 79.6465C43.525 79.1211 46.649 85.4117 43.9557 82.4817C43.4161 82.0605 41.5181 82.7799 41.3571 83.1917C39.0946 82.4013 42.2044 84.8768 39.4685 84.1384C39.407 84.1195 38.6875 83.3385 38.4035 83.4284C37.935 83.5751 38.0817 84.3325 38.0486 84.3751C37.6178 84.8957 37.2297 85.459 36.8652 86.027C36.5623 86.0081 35.9612 87.0068 35.6819 85.0803C35.237 81.9989 37.0924 84.6259 37.3338 82.7184C37.9965 81.6345 38.5313 84.0721 39.6957 82.1267L37.3338 82.0084C37.6415 80.9008 38.0438 81.4972 37.6888 79.6465C35.573 80.5079 36.638 78.1365 36.6238 77.9945C39.3502 78.0939 40.4389 81.3126 40.6424 80.1198C40.8696 80.0914 41.1489 80.1719 41.3524 80.1198C38.0485 83.3953 44.1261 81.6297 41.8257 80.1198C44.0551 79.1542 42.0435 78.8229 41.3524 78.9365C40.0223 77.0763 41.7027 77.7484 41.2341 77.0479C40.5572 76.0349 37.6178 77.152 37.4522 77.0479C36.8889 76.7023 38.4414 75.8219 37.0972 75.1593C37.1682 74.9179 36.9599 75.2445 37.3338 74.4493C40.3679 76.6597 38.9005 74.615 38.9857 73.976C39.6673 74.6954 40.1643 75.7178 40.6377 74.4493C41.2341 75.3344 42.2565 77.436 42.9996 75.2776C40.4531 71.8602 41.9062 73.0056 42.7629 72.324C44.0031 71.3348 43.1179 71.4152 43.2363 71.1407C43.241 71.1265 43.3167 71.2354 43.4729 70.904C45.1249 71.0981 47.0371 73.1382 46.4265 69.7207C47.217 69.9574 48.1353 70.71 48.1968 71.6093L48.211 71.6046Z" fill="#54433D"/>
<g id="Group_32">
<path id="Vector_192" d="M38.2847 73.0174C38.4314 73.5191 38.6823 73.6327 38.9947 73.9641C38.9095 74.6031 40.3721 76.6431 37.3428 74.4374C37.5084 74.0824 36.8884 72.8754 38.2894 73.0174H38.2847Z" fill="#E3E3E5"/>
<path id="Vector_193" d="M37.3432 82.708C37.3716 82.4808 37.2911 82.1874 37.3432 81.998L39.7051 82.1164C38.5407 84.0618 38.0011 81.6241 37.3432 82.708Z" fill="#B9B9B8"/>
<path id="Vector_194" d="M42.777 72.3083C41.9202 72.9899 40.4624 71.8445 43.0136 75.2619C42.2705 77.4251 41.2434 75.3187 40.6517 74.4336C40.3204 73.9413 40.4482 73.5248 40.415 73.4869C41.4564 73.2739 40.3582 72.0622 41.3617 71.125C42.3699 72.2137 42.9284 71.1534 42.7817 72.3083H42.777Z" fill="#B9B9B8"/>
<path id="Vector_195" d="M43.3688 72.7812L45.6123 75.4982C45.8111 78.2672 41.2151 72.9374 43.3688 72.7812Z" fill="#9B9D9C"/>
<path id="Vector_196" d="M49.1569 74.4376C48.9203 74.7026 47.1121 76.2078 46.9133 76.0895C46.8565 75.512 47.2068 75.1428 47.505 73.9642C48.3049 74.447 48.8871 73.879 48.6883 73.0176C48.6883 73.0933 49.2658 72.8614 49.1617 74.4376H49.1569Z" fill="#9B9D9C"/>
<path id="Vector_197" d="M41.8306 80.1086C44.131 81.6185 38.0534 83.384 41.3572 80.1086C41.504 80.0707 41.7406 80.1465 41.8306 80.1086Z" fill="#A99F94"/>
<path id="Vector_198" d="M45.731 73.0176L46.5593 73.3726C47.0563 76.506 43.956 74.8068 45.731 73.0176Z" fill="#CACFD4"/>
<path id="Vector_199" d="M41.3564 78.9257C42.0475 78.8121 44.0592 79.1434 41.8298 80.109C41.7398 80.1469 41.5032 80.0711 41.3564 80.109C41.1529 80.1611 40.8736 80.0806 40.6464 80.109C39.908 79.3659 40.3624 79.0913 41.3564 78.9257Z" fill="#291714"/>
<path id="Vector_200" d="M40.4143 73.492C40.4474 73.5298 40.3196 73.9416 40.651 74.4386C40.1776 75.7072 39.6759 74.6848 38.999 73.9653C39.1268 73.0376 39.7327 72.6778 40.419 73.492H40.4143Z" fill="#E3E3E5"/>
<path id="Vector_201" d="M48.6843 72.7812C48.6843 72.8617 48.6843 72.9374 48.6843 73.0179C48.8831 73.8794 48.3056 74.4474 47.501 73.9646C47.7376 73.0274 47.9648 72.857 47.9743 72.7812H48.6843Z" fill="#E3E3E5"/>
<path id="Vector_202" d="M39.4678 84.1274C39.1602 84.9462 38.6821 84.4682 38.0479 84.364C38.081 84.3262 37.9343 83.5688 38.4029 83.4174C38.6868 83.3274 39.4063 84.1084 39.4678 84.1274Z" fill="#9B9D9C"/>
<path id="Vector_203" d="M44.0743 79.1633C44.5713 78.9929 44.9121 79.4047 44.5476 79.6366C44.3393 79.7691 43.7997 79.2579 44.0743 79.1633Z" fill="#77635C"/>
</g>
</g>
<g id="Group_33">
<path id="Vector_204" d="M37.1066 75.15C38.4509 75.8174 36.8984 76.6931 37.4616 77.0386C37.6273 77.1428 40.5667 76.0257 41.2436 77.0386C41.7122 77.7439 40.0318 77.0718 41.3619 78.9272C40.3679 79.0929 39.9135 79.3674 40.6519 80.1105C40.4484 81.3033 39.3597 78.0847 36.6333 77.9853C36.3351 74.227 37.0593 75.3015 37.1066 75.15Z" fill="#9B9D9C"/>
<path id="Vector_205" d="M39.3497 77.748L40.4147 77.8664C40.0455 78.1125 39.3166 78.5101 39.3497 77.748Z" fill="#444242"/>
</g>
<path id="Vector_206" d="M50.8086 84.13C50.7092 84.1915 48.9958 84.9536 48.6834 85.0766C48.4751 85.1571 48.3757 84.8447 47.7367 85.0766C47.8692 84.4613 47.0504 83.9596 47.0267 83.8933C46.9036 83.5288 47.0267 82.7052 46.79 82.0047C48.6266 80.3339 48.0491 82.1041 48.3284 82.2414C48.4041 82.2792 48.6786 81.3373 48.8017 81.2947C49.0526 81.2048 49.081 81.6402 50.1034 81.768C50.6808 81.839 50.6619 82.0094 50.695 82.0047C51.1968 81.9195 49.9614 79.5955 52.2334 82.5964C51.8405 84.2436 51.6038 83.6377 50.8134 84.1347L50.8086 84.13Z" fill="#54433D"/>
<path id="Vector_207" d="M59.7926 84.3658C59.7737 84.4605 59.8826 85.4734 59.7926 86.2544C56.7728 84.4747 56.5692 85.3693 56.3657 85.3077C55.1634 84.9575 53.9896 84.2995 53.4121 84.1244C53.7387 83.7647 54.2404 83.5043 54.5954 83.1777C54.2925 84.0439 57.5112 83.9824 59.7926 84.3611V84.3658Z" fill="#77776E"/>
<path id="Vector_208" d="M53.4124 84.1297C53.9946 84.3048 55.1637 84.9627 56.366 85.313C56.5648 85.3698 56.773 84.4799 59.7929 86.2597C59.7834 86.3354 59.8023 86.4159 59.7929 86.4963C58.7752 86.4111 57.1328 85.6491 56.4843 85.5497C55.9542 85.4692 55.495 85.2988 55.0643 85.313C54.359 85.3414 54.3022 85.9141 53.9993 86.023C53.4171 86.236 52.4657 84.7923 52.6976 87.2063C52.2858 86.8703 52.4278 86.0183 51.751 85.7863C52.6598 82.828 52.4894 83.8551 53.4029 84.1344L53.4124 84.1297Z" fill="#444242"/>
<path id="Vector_209" d="M50.8092 84.1297L51.2825 85.7817C51.0553 85.7391 50.9039 86.1935 50.5725 86.255C50.5441 86.2597 50.7003 85.6349 50.2175 85.7817C49.801 85.9095 49.1715 87.2348 48.4473 86.4917C48.523 86.0183 48.4899 85.545 48.6839 85.0717C48.9963 84.9533 50.7145 84.1865 50.8092 84.125V84.1297Z" fill="#7F8788"/>
<g id="Group_34">
<path id="Vector_210" d="M54.1171 74.9136C54.5857 75.1408 54.4342 74.9704 55.0638 75.3869C51.2108 78.6766 58.0884 78.6766 55.0638 79.5239L55.6554 80.1155C57.3878 77.9287 57.0802 79.3961 57.1938 79.4055L56.2471 82.4775C53.852 81.9663 56.4222 81.5876 54.8271 81.2941L54.2354 80.8208C50.5387 82.7757 53.4355 82.4159 53.6438 82.4727C53.8047 82.5153 54.7419 82.9319 54.8271 82.9461C54.5384 82.9177 54.6046 83.1733 54.5904 83.1827C54.2354 83.5093 53.7337 83.7696 53.4071 84.1294C52.4888 83.8548 52.664 82.8277 51.7552 85.7813C51.6463 85.7434 51.4333 85.8097 51.2818 85.7813L50.8085 84.1294C51.5942 83.6324 51.8309 84.2382 52.2285 82.5911C49.9612 79.5901 51.1966 81.9142 50.6902 81.9994C50.657 82.0041 50.676 81.8337 50.0985 81.7627C49.6394 80.7545 51.6037 80.1771 50.3352 79.4008C51.7126 79.6233 49.7151 78.9369 49.6252 78.8091C48.7968 77.6163 49.753 76.9158 50.5718 75.8555C51.102 75.1692 51.0972 74.6911 51.1635 74.6722C51.2818 74.6438 51.5658 76.3715 52.9338 74.4355C53.9325 75.1029 54.0272 74.8663 54.1171 74.9089V74.9136Z" fill="#6B6664"/>
<path id="Vector_211" d="M56.2469 82.4724V82.7091C56.1759 82.6996 55.7262 83.1114 54.8269 82.9457C54.7417 82.9315 53.8045 82.515 53.6436 82.4724L54.8269 81.2891C56.4173 81.5778 53.8471 81.9565 56.2469 82.4724Z" fill="#444242"/>
<path id="Vector_212" d="M54.8263 81.2948L53.643 82.4781C53.4347 82.4213 50.5379 82.7763 54.2346 80.8262L54.8263 81.2995V81.2948Z" fill="#9B9D9C"/>
<path id="Vector_213" d="M51.1636 77.9863L52.2286 78.3413C51.4192 81.1766 51.831 79.6193 51.7553 79.5247C51.0689 78.6206 50.0039 78.9235 51.1636 77.9863Z" fill="#A99F94"/>
<path id="Vector_214" d="M51.1642 79.6367C51.3441 79.6367 51.3441 80.3467 51.1642 80.3467C50.9843 80.3467 50.9843 79.6367 51.1642 79.6367Z" fill="#B9B9B8"/>
</g>
<path id="Vector_215" d="M48.6836 85.0706C48.4895 85.5392 48.5227 86.0173 48.4469 86.4906C48.3854 86.8929 48.2292 88.5354 47.8553 88.6159C47.0459 87.4988 46.1702 89.3543 45.375 87.1959C45.8862 86.2255 45.6448 86.4906 45.8483 85.7759C47.5097 86.0599 47.6328 85.1038 47.7369 85.0659C48.3759 84.834 48.4753 85.1464 48.6836 85.0659V85.0706Z" fill="#2E2926"/>
<path id="Vector_216" d="M47.737 91.6892C47.1642 91.178 46.7004 91.9495 46.5537 91.5709C46.5158 91.4667 46.8708 91.0833 46.5537 89.3273C47.6612 89.4503 48.2008 88.9344 48.4422 89.4456C49.4741 91.5993 47.9405 91.6135 47.7322 91.6892H47.737Z" fill="#877B66"/>
<path id="Vector_217" d="M42.7768 85.3091C43.2407 85.4179 43.8371 85.1008 43.7235 86.3741C43.1933 87.0888 43.0892 85.3469 42.5401 87.2024C41.7497 89.8767 42.0006 87.4107 41.7118 87.2024C41.655 87.1598 40.7084 88.3384 40.4102 87.6757C40.8362 87.2545 41.532 87.0462 41.8302 86.4924C42.1047 85.9812 42.1946 85.8392 41.8302 85.3091C42.1284 85.3517 42.5023 85.2428 42.7768 85.3091Z" fill="#6B6664"/>
<path id="Vector_218" d="M47.0316 83.8926C47.0553 83.9588 47.8742 84.4606 47.7416 85.0759C47.6375 85.1138 47.5097 86.0699 45.853 85.7859C45.8909 85.6581 45.1241 84.2144 47.0364 83.8973L47.0316 83.8926Z" fill="#9B9D9C"/>
<path id="Vector_219" d="M55.0637 85.3075C54.6424 87.6694 56.6541 90.3626 53.1751 87.4327C53.1135 87.3807 52.768 87.2481 52.7017 87.1961C52.4698 84.7821 53.4212 86.2257 54.0034 86.0127C54.3063 85.9039 54.3631 85.3311 55.0684 85.3027L55.0637 85.3075Z" fill="#CACFD4"/>
<path id="Vector_220" d="M41.83 85.3073C42.1944 85.8375 42.1045 85.9795 41.83 86.4907C41.1058 85.9037 40.5946 85.2269 41.83 85.3073Z" fill="#948B81"/>
<g id="Group_35">
<path id="Vector_221" d="M53.4124 71.6041C53.2751 74.0371 52.2385 73.9093 52.229 74.0844C52.2006 74.695 52.7781 74.3305 52.939 74.4394C51.5711 76.3753 51.2824 74.6477 51.1688 74.6761C51.1025 74.695 51.1072 75.1683 50.5771 75.8594C46.9466 77.0853 49.0719 75.7695 49.1571 74.4394C51.3344 71.9591 49.1192 70.7711 53.4124 71.6041Z" fill="#B9B9B8"/>
<path id="Vector_222" d="M51.6376 72.5469C52.5275 72.5469 51.9405 75.4484 50.3359 73.8485L51.6376 72.5469Z" fill="#544F4C"/>
</g>
</g>
</g>
<defs>
<linearGradient id="paint0_linear_460_5846" x1="47.9431" y1="8.26479" x2="47.6023" y2="15.3458" gradientUnits="userSpaceOnUse">
<stop stop-color="#0C1D24"/>
<stop offset="1" stop-color="#060A0D"/>
</linearGradient>
<linearGradient id="paint1_linear_460_5846" x1="44.9442" y1="27.1807" x2="50.9224" y2="35.6912" gradientUnits="userSpaceOnUse">
<stop stop-color="#1C2124"/>
<stop offset="1" stop-color="#44494B"/>
</linearGradient>
</defs>
</svg>
