<svg width="207" height="207" viewBox="0 0 207 207" fill="none" xmlns="http://www.w3.org/2000/svg">
<g id="Group 94">
<g id="Clip path group">
<circle id="Ellipse 13" cx="103.5" cy="103.5" r="101" fill="#D9D9D9" stroke="#C3463D" stroke-width="5"/>
<mask id="mask0_460_5787" style="mask-type:luminance" maskUnits="userSpaceOnUse" x="5" y="5" width="197" height="197">
<g id="clippath">
<path id="Vector" d="M103.5 202C157.9 202 202 157.9 202 103.5C202 49.1 157.9 5 103.5 5C49.1 5 5 49.1 5 103.5C5 157.9 49.1 202 103.5 202Z" fill="white"/>
</g>
</mask>
<g mask="url(#mask0_460_5787)">
<g id="Group">
<g id="Group_2">
<g id="Group_3">
<path id="Vector_2" d="M103.5 202C157.9 202 202 157.9 202 103.5C202 49.1 157.9 5 103.5 5C49.1 5 5 49.1 5 103.5C5 157.9 49.1 202 103.5 202Z" fill="#1F455C"/>
<path id="Vector_3" d="M67.2973 28.2225C108.001 23.8377 38.9354 37.9896 22.3409 91.909C15.2318 64.9258 39.861 31.1789 67.2973 28.2225Z" fill="#FCFDFE"/>
</g>
<path id="Vector_4" d="M103.5 202C157.9 202 202 157.9 202 103.5C202 93.7604 200.585 84.3525 197.952 75.4668C197.952 75.4668 154.2 130.163 113.308 110.822C72.4161 91.481 37.8955 176.973 37.8955 176.973C55.3133 192.537 78.3012 202 103.5 202Z" fill="#FCFDFE"/>
</g>
<path id="Vector_5" d="M-21.0303 123.031C-17.7147 122.882 -8.31231 122.07 -7.58288 120.835C-1.18384 121.387 6.90615 119.953 13.1035 119.738C20.7321 119.472 22.0693 116.093 29.8029 115.858C31.1208 115.817 32.436 115.977 33.6987 116.359C34.5607 116.621 42.5347 121.161 43.1011 121.202C81.9678 124.023 120.832 123.111 159.779 123.031C160.37 122.465 165.802 122.426 164.097 120.263C162.111 117.74 170.121 118.055 173.276 118.657C177.376 119.442 193.962 110.772 198.681 110.822C204.998 110.888 199.242 119.688 205.498 120.102C205.567 120.108 206 121.191 206.119 121.199C209.938 121.481 218.05 121.34 221.014 121.931C224.852 122.694 226.936 125.88 232.185 123.761L231.978 124.857C231.754 125.385 230.798 127.347 230.116 127.419C229.419 127.493 219.884 123.119 216.876 124.125C215.138 124.705 214.367 131.273 213.98 124.857C212.38 125.451 209.333 124.291 208.808 127.236C208.382 129.632 213.284 133.649 207.567 129.433C205.666 133.119 205.279 137.089 204.257 140.96C202.025 140.228 199.814 141.084 197.637 141.325C163.965 145.055 155.386 136.697 144.884 135.103C129.914 132.831 119.796 143.726 98.1285 142.057C87.2562 141.22 71.3166 133.434 60.4774 134.006C50.8429 134.514 23.9123 145.685 0.689461 141.689C-0.194691 141.537 -6.10193 139.993 -6.34507 139.678C-7.01924 138.802 -8.57479 125.529 -10.6885 124.857" fill="#028D9A"/>
<path id="Vector_6" d="M13.04 131.926V202.575L194.222 205.039L194.333 130.887" fill="#028D9A"/>
<g id="Group_4">
<path id="Vector_7" d="M160.113 106.84C160.113 106.84 151.233 124.857 149.15 125.711C149.15 125.711 66.023 128.402 61.5967 125.097L160.113 106.837V106.84Z" fill="#0E1327"/>
<path id="Vector_8" d="M92.821 100.496L89.5856 104.975L75.5497 111.949L75.0551 116.165L67.6835 118.715L64.3044 123.57L61.5967 125.1L160.113 106.84C160.113 106.84 161.312 106.003 160.696 105.323L127.322 109.528L116.138 107.315L111.678 102.845L92.8183 100.499L92.821 100.496Z" fill="#BACCD9"/>
<path id="Vector_9" d="M101.572 101.247L101.884 93.4085L80.957 91.3003L81.2168 87.7969L104.362 88.6948L104.1 73.9378L86.7427 71.9844L87.077 68.97L104.185 70.1553L104.989 67.3757L103.58 66.1241L104.951 65.262L104.796 62.1758L105.699 62.0791L105.752 65.0521L107.28 66.3479L105.793 67.4255L105.691 70.1442L122.139 71.8103L121.31 74.6479L106.816 74.1892L107.382 88.5677L131.514 90.9273L131.572 94.1683L108.52 93.892L108.493 102.446L101.279 101.855L101.572 101.247Z" fill="#0E1327"/>
<path id="Vector_10" d="M148.387 117.562C149.608 117.562 150.598 116.573 150.598 115.352C150.598 114.131 149.608 113.142 148.387 113.142C147.166 113.142 146.177 114.131 146.177 115.352C146.177 116.573 147.166 117.562 148.387 117.562Z" fill="#FDFBF6"/>
<path id="Vector_11" d="M140.681 119.356C141.902 119.356 142.891 118.367 142.891 117.146C142.891 115.925 141.902 114.936 140.681 114.936C139.46 114.936 138.471 115.925 138.471 117.146C138.471 118.367 139.46 119.356 140.681 119.356Z" fill="#FDFBF6"/>
<path id="Vector_12" d="M113.384 104.809L107.366 105.212L96.4189 110.359L116.138 107.315L113.384 104.809Z" fill="#241A36"/>
</g>
</g>
</g>
</g>
</g>
</svg>
