<svg width="46" height="45" viewBox="0 0 46 45" fill="none" xmlns="http://www.w3.org/2000/svg">
<g id="Group">
<path id="Vector" d="M2.36035 16.9183H43.6404V40.7999C43.6404 41.3757 43.4115 41.9279 43.004 42.3351C42.5966 42.7422 42.0439 42.971 41.4677 42.971H4.53298C3.95677 42.971 3.40415 42.7422 2.9967 42.3351C2.58925 41.9279 2.36035 41.3757 2.36035 40.7999V16.9183ZM2.36035 7.14859C2.36035 6.57279 2.58925 6.02058 2.9967 5.61343C3.40415 5.20627 3.95677 4.97754 4.53298 4.97754H41.4677C42.0439 4.97754 42.5966 5.20627 43.004 5.61343C43.4115 6.02058 43.6404 6.57279 43.6404 7.14859V16.9183H2.36035V7.14859Z" stroke="white" stroke-width="3" stroke-linejoin="round"/>
<path id="Vector_2" d="M14.3096 29.9448L20.8275 36.458L33.8633 23.4316" stroke="white" stroke-width="3" stroke-linecap="round" stroke-linejoin="round"/>
<path id="Vector_3" d="M31.6906 1.7207V10.4049M14.3096 1.7207V10.4049V1.7207Z" stroke="white" stroke-width="3" stroke-linecap="round"/>
</g>
</svg>
