<svg width="223" height="93" viewBox="0 0 223 93" fill="none" xmlns="http://www.w3.org/2000/svg">
<g id="Group 86">
<path id="P" d="M0 47.1822V0.636719H20.0909C23.5455 0.636719 26.5682 1.31854 29.1591 2.68217C31.75 4.04581 33.7652 5.96248 35.2045 8.43217C36.6439 10.9019 37.3636 13.7882 37.3636 17.0913C37.3636 20.4246 36.6212 23.311 35.1364 25.7504C33.6667 28.1898 31.5985 30.0685 28.9318 31.3867C26.2803 32.7049 23.1818 33.364 19.6364 33.364H7.63636V23.5458H17.0909C18.5758 23.5458 19.8409 23.2882 20.8864 22.7731C21.947 22.2428 22.7576 21.4928 23.3182 20.5231C23.8939 19.5534 24.1818 18.4094 24.1818 17.0913C24.1818 15.7579 23.8939 14.6216 23.3182 13.6822C22.7576 12.7276 21.947 12.0004 20.8864 11.5004C19.8409 10.9852 18.5758 10.7276 17.0909 10.7276H12.6364V47.1822H0Z" fill="#1F455C"/>
<path id="N" d="M40.2727 45.1816V91.7271H29.7273L12.9091 67.2726H12.6364V91.7271H0V45.1816H10.7273L27.2727 69.5453H27.6364V45.1816H40.2727Z" fill="#1F455C"/>
<path id="A" d="M56.6477 92.1816H45L58.1231 45.1816H72.8769L86 92.1816H74.3523L65.6553 58.125H65.3447L56.6477 92.1816ZM54.4735 73.6387H76.3712V83.1855H54.4735V73.6387Z" fill="#1F455C"/>
<path id="V" d="M105.799 47.1816L113.833 78.9102H114.167L124.5 47.1816H136L121.917 92.1816H106.083L92 47.1816H105.799Z" fill="#1F455C"/>
<path id="A_2" d="M151.636 91.7271H138L153.364 45.1816H170.636L186 91.7271H172.364L162.182 57.9998H161.818L151.636 91.7271ZM149.091 73.3635H174.727V82.818H149.091V73.3635Z" fill="#1F455C"/>
<path id="L" d="M192 92.1816V45.1816H204.454V81.9004H223V92.1816H192Z" fill="#1F455C"/>
<path id="O" d="M87.0911 23.9091C87.0911 29.0909 86.0835 33.4621 84.0684 37.0227C82.0532 40.5682 79.3335 43.2576 75.9093 45.0909C72.485 46.9091 68.6668 47.8182 64.4547 47.8182C60.2123 47.8182 56.379 46.9015 52.9547 45.0682C49.5456 43.2197 46.8335 40.5227 44.8184 36.9773C42.8184 33.4167 41.8184 29.0606 41.8184 23.9091C41.8184 18.7273 42.8184 14.3636 44.8184 10.8182C46.8335 7.25758 49.5456 4.56818 52.9547 2.75C56.379 0.916667 60.2123 0 64.4547 0C68.6668 0 72.485 0.916667 75.9093 2.75C79.3335 4.56818 82.0532 7.25758 84.0684 10.8182C86.0835 14.3636 87.0911 18.7273 87.0911 23.9091ZM74.0911 23.9091C74.0911 21.1212 73.7199 18.7727 72.9774 16.8636C72.2502 14.9394 71.1668 13.4848 69.7275 12.5C68.3032 11.5 66.5456 11 64.4547 11C62.3638 11 60.5987 11.5 59.1593 12.5C57.735 13.4848 56.6517 14.9394 55.9093 16.8636C55.182 18.7727 54.8184 21.1212 54.8184 23.9091C54.8184 26.697 55.182 29.053 55.9093 30.9773C56.6517 32.8864 57.735 34.3409 59.1593 35.3409C60.5987 36.3258 62.3638 36.8182 64.4547 36.8182C66.5456 36.8182 68.3032 36.3258 69.7275 35.3409C71.1668 34.3409 72.2502 32.8864 72.9774 30.9773C73.7199 29.053 74.0911 26.697 74.0911 23.9091Z" fill="#1F455C"/>
<path id="N_2" d="M136 0.181641V47.1816H124.479L106.104 22.4883H105.806V47.1816H92V0.181641H103.72L121.797 24.7832H122.194V0.181641H136Z" fill="#1F455C"/>
<path id="G" d="M170.227 16C170.03 15.197 169.72 14.4924 169.296 13.8864C168.871 13.2652 168.341 12.7424 167.705 12.3182C167.084 11.8788 166.356 11.553 165.523 11.3409C164.705 11.1136 163.803 11 162.818 11C160.697 11 158.887 11.5076 157.387 12.5227C155.902 13.5379 154.765 15 153.977 16.9091C153.205 18.8182 152.818 21.1212 152.818 23.8182C152.818 26.5455 153.19 28.8788 153.932 30.8182C154.674 32.7576 155.78 34.2424 157.25 35.2727C158.72 36.303 160.546 36.8182 162.727 36.8182C164.652 36.8182 166.25 36.5379 167.523 35.9773C168.811 35.4167 169.773 34.6212 170.409 33.5909C171.046 32.5606 171.364 31.3485 171.364 29.9545L173.546 30.1818H162.909V21.1818H183.546V27.6364C183.546 31.8788 182.644 35.5076 180.841 38.5227C179.053 41.5227 176.584 43.8258 173.432 45.4318C170.296 47.0227 166.697 47.8182 162.637 47.8182C158.106 47.8182 154.129 46.8561 150.705 44.9318C147.28 43.0076 144.606 40.2652 142.682 36.7045C140.773 33.1439 139.818 28.9091 139.818 24C139.818 20.1515 140.402 16.7424 141.568 13.7727C142.75 10.803 144.387 8.29546 146.477 6.25C148.568 4.18939 150.985 2.63636 153.727 1.59091C156.47 0.530303 159.409 0 162.546 0C165.303 0 167.864 0.39394 170.227 1.18182C172.606 1.95455 174.705 3.06061 176.523 4.5C178.356 5.92424 179.834 7.61364 180.955 9.56818C182.076 11.5227 182.758 13.6667 183 16H170.227Z" fill="#1F455C"/>
</g>
</svg>
