<svg width="100" height="100" viewBox="0 0 100 100" fill="none" xmlns="http://www.w3.org/2000/svg">
<g id="Clip path group">
<mask id="mask0_220_12584" style="mask-type:luminance" maskUnits="userSpaceOnUse" x="0" y="0" width="100" height="100">
<g id="clippath">
<path id="Vector" d="M50 100C77.6142 100 100 77.6878 100 50.1643C100 22.6408 77.6142 0.328613 50 0.328613C22.3858 0.328613 0 22.6408 0 50.1643C0 77.6878 22.3858 100 50 100Z" fill="white"/>
</g>
</mask>
<g mask="url(#mask0_220_12584)">
<g id="Group">
<g id="Clip path group_2">
<mask id="mask1_220_12584" style="mask-type:luminance" maskUnits="userSpaceOnUse" x="-3" y="-1" width="106" height="102">
<g id="clippath-1">
<path id="Vector_2" d="M49.9322 100.809C79.0785 100.809 102.706 78.1349 102.706 50.1645C102.706 22.194 79.0785 -0.480469 49.9322 -0.480469C20.7859 -0.480469 -2.8418 22.194 -2.8418 50.1645C-2.8418 78.1349 20.7859 100.809 49.9322 100.809Z" fill="white"/>
</g>
</mask>
<g mask="url(#mask1_220_12584)">
<g id="Group_2">
<path id="Vector_3" d="M80.5478 89.8764C63.7955 104.44 33.1426 100.602 16.2808 86.9693C14.6379 76.7785 16.7115 70.4337 22.7029 62.0516C27.1885 55.7758 68.6572 25.1994 78.5815 27.2256C100.914 40.1592 98.486 74.2816 80.5478 89.8764Z" fill="#08586F"/>
<g id="Group_3">
<path id="Vector_4" d="M78.4325 87.9011C95.9548 72.9558 98.8723 40.8627 77.0563 28.4679C67.3621 26.527 26.8547 55.8283 22.4731 61.8423C16.6206 69.8753 15.3635 77.2205 16.9683 86.9867C-23.669 54.7547 11.5461 -17.8787 68.7992 1.95175C105.32 14.6015 112.368 68.0613 78.4311 87.9011H78.4325Z" fill="#1F455C"/>
<path id="Vector_5" d="M33.0206 9.26696C52.9556 7.12652 19.1302 14.0347 11.003 40.3553C7.52127 27.1835 19.5835 10.7101 33.0206 9.26696Z" fill="#FCFDFE"/>
</g>
<g id="Group_4">
<path id="Vector_6" d="M48.0496 42.5216C46.7667 42.3193 45.5029 42.3719 44.2133 42.2276C44.2282 42.1642 44.3486 41.9443 44.3608 41.9335C44.7789 41.5869 44.9616 38.2785 44.5827 38.1099C42.8533 37.3438 31.2106 38.292 33.9616 35.1696C34.9183 35.1427 41.1781 35.9762 41.4853 35.7577C41.9467 35.43 40.7573 32.7352 42.5178 33.2585C43.1659 33.7171 40.8303 36.9621 45.8371 35.8319C45.6964 34.8554 46.0225 28.9371 45.8371 28.6269C45.6179 28.2601 38.3486 27.8663 37.354 27.5237C35.281 24.5511 42.4853 26.651 46.0577 26.7886C46.7938 25.4156 45.8195 24.9112 45.8358 24.8033C45.852 24.6967 46.4893 24.8208 46.2782 22.8921C47.5272 22.5509 45.806 24.5443 47.4582 24.9503C47.4636 25.1566 46.0712 25.1823 46.6463 26.7886C49.3265 27.1069 52.0067 27.4257 54.6869 27.7449C55.4271 30.789 50.5029 28.1846 47.1632 28.774C47.5475 32.7123 45.9846 37.1509 48.8601 36.1987C48.7803 32.5706 50.1971 32.514 50.0401 36.3457C53.064 36.6155 56.0884 36.8852 59.1132 37.155V38.6251C58.829 39.1673 49.285 38.1881 47.8276 38.4039C47.764 41.506 47.1294 42.2249 49.4501 41.9322C49.9616 42.6861 49.1998 42.5095 48.0482 42.5202L48.0496 42.5216Z" fill="#0E1327"/>
<g id="Group_5">
<path id="Vector_7" d="M36.9855 45.1676C43.064 44.9896 44.0396 44.0738 37.5024 46.3437C36.5213 46.8387 38.3887 46.4274 38.7568 46.3437C39.5403 46.6526 40.8258 46.4462 41.7067 46.3437C42.0924 46.7551 42.5484 46.3478 42.5917 46.3437C45.52 46.078 48.7866 45.9688 51.4428 45.0206C52.7947 45.8272 55.5985 44.6673 56.9016 46.1967C56.9462 46.2493 57.2169 46.658 57.0491 46.7848C55.9584 46.7767 55.0355 46.7942 53.9516 46.9318C55.5606 46.4287 50.4198 47.2905 48.5673 47.6668C48.2372 47.7343 47.6458 47.8112 47.7554 48.1079C46.8907 48.1322 46.7744 47.9595 46.723 47.9609C45.5173 48.0067 44.2087 47.7451 42.9611 47.8139C40.5186 47.9487 34.6431 49.0425 32.7081 50.4601C32.064 50.9321 32.0098 51.036 31.6756 51.7832C29.7608 52.0826 27.8447 52.4279 25.9219 52.6652C26.0667 52.2943 27.4889 50.2429 27.6188 50.166C27.7717 50.0743 30.1465 49.8086 30.9381 48.9899C31.2507 48.6663 31.4713 48.7917 31.5281 46.9318C33.2345 46.1158 35.0274 45.4859 36.6918 44.5796C36.7902 44.7756 36.8885 44.9716 36.9868 45.1676H36.9855Z" fill="#BACCD9"/>
<path id="Vector_8" d="M40.0858 41.4922C41.4336 41.8199 42.8395 42.0721 44.217 42.2272C45.5053 42.3716 46.7705 42.319 48.0533 42.5213C49.7529 42.7897 49.3537 42.8099 50.4133 43.8444C49.7082 43.607 47.2238 43.5841 47.1683 43.9186C49.0087 45.0798 46.0371 44.2827 43.3321 45.5357C51.2008 44.222 48.5932 45.2552 42.4471 46.1979C42.1873 46.2384 42.0127 46.3099 41.7096 46.3449C40.8287 46.4474 39.5418 46.6538 38.7597 46.3449C41.1616 45.8014 43.5161 44.8681 45.9139 44.2868C42.8963 44.1613 39.9342 44.5767 36.9884 45.1688C36.89 44.9728 36.7917 44.7768 36.6934 44.5808C37.715 44.0238 38.5838 44.0521 39.0533 42.6696C39.853 42.0627 39.0249 41.8051 40.0858 41.4935V41.4922Z" fill="#BACCD9"/>
<path id="Vector_9" d="M72.9816 45.1677C69.1994 45.7436 65.4065 46.221 61.6216 46.7848C60.6338 46.4112 59.5364 46.9413 57.8598 46.9318C57.7502 46.9318 57.8206 47.2312 57.7123 47.2258C56.9559 47.1867 57.0885 46.7848 57.0479 46.7848C57.2157 46.658 56.945 46.2494 56.9004 46.1968C59.7407 45.7611 62.5973 45.4523 65.4565 45.1677C65.8625 45.1272 65.7353 45.022 65.7515 45.0207C66.6839 44.9316 67.8463 44.759 68.259 44.7266C68.5026 44.7078 68.7529 44.7442 68.9965 44.7266C70.3794 44.6282 71.8314 44.7873 73.2008 44.4326C73.4592 44.7873 72.991 45.1313 72.9789 45.1677H72.9816Z" fill="#A0B3C7"/>
<path id="Vector_10" d="M50.4115 43.8442C50.7308 44.1557 51.1571 44.849 51.444 45.0203C48.7877 45.9684 45.5211 46.0777 42.5928 46.3434L42.4453 46.1964C48.5915 45.255 51.2004 44.2218 43.3303 45.5341C46.0353 44.2798 49.0055 45.0783 47.1666 43.917C47.222 43.5825 49.7065 43.6055 50.4115 43.8428V43.8442Z" fill="#241A36"/>
<path id="Vector_11" d="M61.621 46.786C51.6062 48.279 41.6711 50.2252 31.6738 51.7857C32.0094 51.0385 32.0622 50.9347 32.7063 50.4626C37.4167 49.822 42.1177 49.1746 46.7212 47.9634C46.774 47.9621 46.889 48.1347 47.7537 48.1104C49.4072 48.0659 52.234 47.1528 53.9499 46.9343C55.0338 46.7968 55.9566 46.7792 57.0473 46.7873C57.0865 46.7873 56.9553 47.1892 57.7117 47.2284C57.82 47.2338 57.7496 46.933 57.8592 46.9343C59.5358 46.9438 60.6332 46.4137 61.621 46.7873V46.786Z" fill="#D6DFED"/>
<g id="Group_6">
<path id="Vector_12" d="M68.5574 52.8134C68.1798 53.3003 67.8699 53.8304 67.4504 54.2836C53.5628 54.3159 39.7076 54.6814 25.8483 53.5485C25.5195 53.5215 24.4586 53.4109 24.5939 53.1075C25.0594 53.0643 25.7021 52.6934 25.9214 52.6664C27.8442 52.4277 29.7603 52.0824 31.6751 51.7844C41.6724 50.2239 51.6074 48.2777 61.6223 46.7846C65.4058 46.2208 69.2001 45.7434 72.9822 45.1675C72.5425 46.6349 69.5709 51.5052 68.556 52.8134H68.5574Z" fill="#0E1327"/>
<g id="Group_7">
<path id="Vector_13" d="M39.1273 51.9312C41.2274 52.7107 38.7646 54.5531 38.4629 52.4464C38.6839 52.2746 38.9054 52.1029 39.1273 51.9312Z" fill="#FDFBF6"/>
<path id="Vector_14" d="M41.6361 51.7842C43.406 51.9932 42.2057 54.1876 41.1191 52.7404C41.2914 52.4221 41.4638 52.1034 41.6361 51.7842Z" fill="#FDFBF6"/>
<path id="Vector_15" d="M52.8461 50.9023C54.4103 51.6684 52.2777 53.1628 52.1816 51.4176C52.4027 51.2458 52.6241 51.0741 52.8461 50.9023Z" fill="#FDFBF6"/>
<path id="Vector_16" d="M50.6341 51.0493C52.3689 51.1451 50.948 53.1911 50.1172 51.7115L50.6341 51.0493Z" fill="#FDFBF6"/>
<path id="Vector_17" d="M67.0061 48.4028C68.5366 48.4069 67.6381 50.3531 66.6367 49.2121L67.0061 48.4028Z" fill="#FDFBF6"/>
<path id="Vector_18" d="M58.1585 50.4609C58.4292 50.6327 58.6998 50.8044 58.9704 50.9762C58.0367 52.1253 56.5712 51.1893 58.1585 50.4609Z" fill="#FDFBF6"/>
</g>
</g>
<path id="Vector_19" d="M46.7239 47.9623C42.1204 49.1735 37.4194 49.8222 32.709 50.4615C34.644 49.044 40.5195 47.9502 42.962 47.8153C44.2097 47.7465 45.5182 48.0082 46.7239 47.9623Z" fill="#241A36"/>
<path id="Vector_20" d="M38.7576 46.3447C38.3896 46.4284 36.5222 46.8397 37.5032 46.3447C44.0405 44.0748 43.0648 44.9906 36.9863 45.1687C39.9322 44.5766 42.8943 44.1611 45.9119 44.2866C43.5141 44.8679 41.1582 45.8012 38.7576 46.3447Z" fill="#1F3043"/>
<path id="Vector_21" d="M53.952 46.933C52.2362 47.1515 49.4094 48.0646 47.7558 48.1091C47.6449 47.8124 48.2376 47.7355 48.5677 47.6681C50.4216 47.2905 55.561 46.43 53.952 46.933Z" fill="#0E1327"/>
<path id="Vector_22" d="M42.4426 46.1978L42.5901 46.3429C42.5454 46.3469 42.0894 46.7492 41.7051 46.3429C42.0082 46.3083 42.1828 46.2377 42.4426 46.1978Z" fill="#596574"/>
<g id="Group_8">
<path id="Vector_23" d="M44.3608 41.9333C44.3486 41.9441 44.2282 42.164 44.2133 42.2274C42.8371 42.0723 41.4298 41.8187 40.082 41.4923C40.8682 41.2617 41.8195 41.8268 42.737 40.1692C43.9264 39.7632 42.1213 42.3622 44.3594 41.9333H44.3608Z" fill="#1F3043"/>
<path id="Vector_24" d="M42.8109 40.6099C43.0098 41.3584 42.9449 42.115 42.1465 41.5661C42.3675 41.2478 42.589 40.9291 42.8109 40.6099Z" fill="#DADEDD"/>
</g>
</g>
</g>
<g id="Group_9">
<path id="Vector_25" d="M-10.498 54.2596C-8.87423 54.1868 -4.26936 53.7903 -3.91212 53.1874C-0.778155 53.4571 3.18396 52.7571 6.21914 52.6519C10.4641 52.5049 14.9269 53.182 19.188 52.83C19.0013 53.1995 20.4587 53.333 20.9106 53.3654C39.9458 54.7425 58.9796 54.2974 78.054 54.2583C78.6305 53.708 79.0554 53.0633 79.5737 52.4712C82.548 53.3317 87.6955 52.6155 90.9214 52.6492C94.0148 52.6816 97.3815 52.6249 100.445 52.8273C100.479 52.83 100.691 53.3587 100.75 53.3627C102.62 53.5003 106.593 53.4315 108.045 53.7201C109.924 54.0924 110.944 55.6475 113.515 54.613L113.414 55.1484C113.304 55.406 112.836 56.3636 112.502 56.3987C112.161 56.4351 107.491 54.3001 106.018 54.791C105.166 55.0742 104.789 58.2802 104.599 55.1484C103.816 55.4384 102.323 54.8719 102.066 56.3097C101.858 57.479 104.258 59.4401 101.459 57.3819C100.528 59.1811 100.338 61.1193 99.8375 63.0088C98.7442 62.6514 97.6616 63.0695 96.5953 63.1869C80.1041 65.0077 75.9025 60.9278 70.7591 60.1495C63.4275 59.0409 58.4722 64.3589 47.8605 63.5443C42.5358 63.1356 34.7293 59.3349 29.4208 59.6141C24.7022 59.8623 11.5128 65.3152 0.139301 63.3649C-0.293716 63.2907 -3.18682 62.5368 -3.3059 62.383C-3.63607 61.9555 -4.39791 55.4762 -5.43309 55.1484" fill="#028D9A"/>
<g id="Group_10">
<path id="Vector_26" d="M87.6421 56.2329L87.9114 56.5013C86.7531 56.9949 89.0507 58.8225 87.2835 57.4832C84.818 58.225 87.6137 57.3254 86.2984 56.5013C87.0562 56.2127 86.9141 57.2161 87.6421 56.2329Z" fill="#ACE7EC"/>
<path id="Vector_27" d="M10.5724 55.1606L11.3789 55.429C11.5467 57.0044 9.56429 56.5417 10.5724 55.1606Z" fill="#F3FEFE"/>
<path id="Vector_28" d="M6.62789 56.768C8.35996 56.6575 6.78486 58.0522 5.82139 57.214C5.72938 56.9917 6.58188 56.7707 6.62789 56.768Z" fill="#DEF8F9"/>
<path id="Vector_29" d="M80.2957 55.1606L81.1022 55.9645C79.6706 56.4581 79.3593 57.0988 80.2957 55.1606Z" fill="#ACE7EC"/>
<path id="Vector_30" d="M17.5625 58.1978H18.8169C20.1241 58.879 17.7059 58.9383 17.5625 58.1978Z" fill="#ACE7EC"/>
<path id="Vector_31" d="M3.40234 56.4111L4.74605 56.4993C4.33469 56.9907 3.22237 56.8171 3.40234 56.4111Z" fill="#ACE7EC"/>
</g>
</g>
<path id="Vector_32" d="M-9.69141 59.3763C-8.06759 59.3035 -3.46272 58.907 -3.10548 58.3041C0.0284853 58.5738 3.9906 57.8738 7.02578 57.7686C11.2707 57.6216 15.7335 58.2987 19.9947 57.9467C19.8079 58.3162 21.2653 58.4497 21.7173 58.4821C40.7524 59.8592 59.7863 59.4141 78.8607 59.375C79.4371 58.8247 79.862 58.18 80.3803 57.5879C83.3546 58.4484 88.5021 57.7322 91.7281 57.7659C94.8214 57.7983 98.1882 57.7416 101.252 57.944C101.286 57.9467 101.498 58.4754 101.556 58.4794C103.426 58.617 107.399 58.5482 108.851 58.8368C110.731 59.2091 111.751 60.7642 114.322 59.7297L114.221 60.2651C114.111 60.5227 113.643 61.4803 113.309 61.5154C112.968 61.5518 108.298 59.4168 106.824 59.9077C105.973 60.1909 105.595 63.3969 105.406 60.2651C104.623 60.5551 103.13 59.9886 102.873 61.4264C102.664 62.5957 105.065 64.5568 102.265 62.4986C101.334 64.2978 101.145 66.236 100.644 68.1255C99.5508 67.7681 98.4683 68.1862 97.402 68.3036C80.9108 70.1244 76.7091 66.0444 71.5657 65.2662C64.2342 64.1576 59.2788 69.4756 48.6672 68.661C43.3424 68.2523 35.5359 64.4516 30.2274 64.7308C25.5089 64.9789 12.3194 70.4319 0.945942 68.4816C0.512924 68.4074 -2.38017 67.6535 -2.49925 67.4997C-2.82943 67.0722 -3.59127 60.5929 -4.62645 60.2651" fill="#028D9A"/>
<path id="Vector_33" d="M-11.043 64.2318C-9.41915 64.1589 -4.81428 63.7624 -4.45704 63.1595C-1.32308 63.4293 2.63903 62.7293 5.67422 62.6241C9.91914 62.4771 14.3819 63.1541 18.6431 62.8021C18.4564 63.1717 19.9137 63.3052 20.3657 63.3376C39.4009 64.7146 58.4347 64.2695 77.5091 64.2304C78.0856 63.6801 78.5105 63.0355 79.0287 62.4434C82.003 63.3039 87.1505 62.5877 90.3765 62.6214C93.4699 62.6538 96.8366 62.5971 99.9002 62.7994C99.934 62.8021 100.146 63.3308 100.205 63.3349C102.075 63.4724 106.048 63.4037 107.5 63.6923C109.379 64.0645 110.4 65.6196 112.971 64.5851L112.869 65.1206C112.759 65.3782 112.291 66.3358 111.957 66.3709C111.616 66.4073 106.946 64.2722 105.473 64.7632C104.621 65.0464 104.244 68.2524 104.054 65.1206C103.271 65.4106 101.778 64.8441 101.521 66.2819C101.313 67.4512 103.713 69.4123 100.914 67.3541C99.9827 69.1533 99.7933 71.0914 99.2926 72.981C98.1992 72.6236 97.1167 73.0417 96.0504 73.159C79.5592 74.9798 75.3576 70.8999 70.2141 70.1217C62.8826 69.013 57.9273 74.3311 47.3156 73.5165C41.9909 73.1078 34.1844 69.3071 28.8758 69.5863C24.1573 69.8344 10.9679 75.2873 -0.405621 73.3371C-0.838638 73.2629 -3.73174 72.509 -3.85082 72.3552C-4.18099 71.9277 -4.94283 65.4483 -5.97802 65.1206" fill="#028D9A"/>
<path id="Vector_34" d="M-10.502 68.8255C-8.87814 68.7527 -4.27327 68.3562 -3.91603 67.7533C-0.782062 68.023 3.18005 67.323 6.21523 67.2178C10.4602 67.0708 14.9229 67.7479 19.1841 67.3959C18.9974 67.7654 20.4547 67.8989 20.9067 67.9313C39.9419 69.3084 58.9757 68.8633 78.0501 68.8242C78.6266 68.2739 79.0515 67.6292 79.5698 67.0371C82.5441 67.8976 87.6916 67.1814 90.9175 67.2151C94.0109 67.2475 97.3776 67.1909 100.441 67.3932C100.475 67.3959 100.687 67.9246 100.746 67.9286C102.616 68.0662 106.589 67.9974 108.041 68.286C109.92 68.6583 110.941 70.2134 113.512 69.1789L113.41 69.7143C113.3 69.972 112.832 70.9295 112.498 70.9646C112.157 71.001 107.487 68.866 106.014 69.3569C105.162 69.6402 104.785 72.8461 104.595 69.7143C103.812 70.0043 102.319 69.4379 102.062 70.8756C101.854 72.045 104.254 74.006 101.455 71.9478C100.524 73.7471 100.334 75.6852 99.8336 77.5748C98.7403 77.2173 97.6577 77.6355 96.5914 77.7528C80.1002 79.5736 75.8986 75.4937 70.7551 74.7155C63.4236 73.6068 58.4683 78.9248 47.8566 78.1102C42.5319 77.7015 34.7254 73.9008 29.4169 74.18C24.6983 74.4282 11.5089 79.8811 0.135395 77.9308C-0.297623 77.8566 -3.19072 77.1027 -3.3098 76.949C-3.63998 76.5214 -4.40182 70.0421 -5.437 69.7143" fill="#028D9A"/>
<path id="Vector_35" d="M-11.043 78.7982C-9.41915 78.7254 -4.81428 78.3288 -4.45704 77.7259C-1.32308 77.9957 2.63903 77.2957 5.67422 77.1905C9.91914 77.0435 14.3819 77.7206 18.6431 77.3685C18.4564 77.7381 19.9137 77.8716 20.3657 77.904C39.4009 79.281 58.4347 78.836 77.5091 78.7968C78.0856 78.2466 78.5105 77.6019 79.0287 77.0098C82.003 77.8703 87.1505 77.1541 90.3765 77.1878C93.4699 77.2202 96.8366 77.1635 99.9002 77.3658C99.934 77.3685 100.146 77.8972 100.205 77.9013C102.075 78.0389 106.048 77.9701 107.5 78.2587C109.379 78.6309 110.4 80.186 112.971 79.1516L112.869 79.687C112.759 79.9446 112.291 80.9022 111.957 80.9373C111.616 80.9737 106.946 78.8387 105.473 79.3296C104.621 79.6128 104.244 82.8188 104.054 79.687C103.271 79.977 101.778 79.4105 101.521 80.8483C101.313 82.0176 103.713 83.9787 100.914 81.9205C99.9827 83.7197 99.7933 85.6578 99.2926 87.5474C98.1992 87.19 97.1167 87.6081 96.0504 87.7255C79.5592 89.5462 75.3576 85.4663 70.2141 84.6881C62.8826 83.5794 57.9273 88.8975 47.3156 88.0829C41.9909 87.6742 34.1844 83.8735 28.8758 84.1527C24.1573 84.4008 10.9679 89.8538 -0.405621 87.9035C-0.838638 87.8293 -3.73174 87.0754 -3.85082 86.9216C-4.18099 86.4941 -4.94283 80.0147 -5.97802 79.687" fill="#028D9A"/>
<path id="Vector_36" d="M-11.043 74.0775C-9.41915 74.0047 -4.81428 73.6081 -4.45704 73.0052C-1.32308 73.275 2.63903 72.575 5.67422 72.4698C9.91914 72.3228 14.3819 72.9998 18.6431 72.6478C18.4564 73.0174 19.9137 73.1509 20.3657 73.1833C39.4009 74.5603 58.4347 74.1152 77.5091 74.0761C78.0856 73.5259 78.5105 72.8812 79.0287 72.2891C82.003 73.1496 87.1505 72.4334 90.3765 72.4671C93.4699 72.4995 96.8366 72.4428 99.9002 72.6451C99.934 72.6478 100.146 73.1765 100.205 73.1806C102.075 73.3182 106.048 73.2494 107.5 73.538C109.379 73.9102 110.4 75.4653 112.971 74.4309L112.869 74.9663C112.759 75.2239 112.291 76.1815 111.957 76.2166C111.616 76.253 106.946 74.1179 105.473 74.6089C104.621 74.8921 104.244 78.0981 104.054 74.9663C103.271 75.2563 101.778 74.6898 101.521 76.1276C101.313 77.2969 103.713 79.258 100.914 77.1998C99.9827 78.999 99.7933 80.9371 99.2926 82.8267C98.1992 82.4693 97.1167 82.8874 96.0504 83.0048C79.5592 84.8255 75.3576 80.7456 70.2141 79.9674C62.8826 78.8587 57.9273 84.1768 47.3156 83.3622C41.9909 82.9535 34.1844 79.1528 28.8758 79.432C24.1573 79.6801 10.9679 85.1331 -0.405622 83.1828C-0.83864 83.1086 -3.73174 82.3547 -3.85082 82.2009C-4.18099 81.7734 -4.94283 75.294 -5.97802 74.9663" fill="#028D9A"/>
</g>
</g>
</g>
</g>
</g>
</g>
</svg>
